<svg width="501" height="4" viewBox="0 0 501 4" fill="none" xmlns="http://www.w3.org/2000/svg">
<mask id="mask0_2_2437" style="mask-type:luminance" maskUnits="userSpaceOnUse" x="0" y="0" width="501" height="4">
<path d="M500.8 0.566345H0.800003V3.5544H500.8V0.566345Z" fill="white"/>
</mask>
<g mask="url(#mask0_2_2437)">
<path d="M-35.6257 16.6449C-34.2028 16.5026 -33.0645 16.0758 -32.2108 15.6489C-30.7879 15.222 -29.0805 14.7952 -27.6576 14.3683C-27.0884 14.226 -26.2347 13.9414 -25.6656 13.7991C-24.2427 13.5146 -23.1044 13.0877 -21.9661 12.6608C-20.2586 12.234 -18.5512 11.8071 -17.1283 11.238C-17.1283 11.238 -16.8437 11.238 -16.8437 11.0957C-16.8437 11.0957 -16.5591 11.0957 -16.5591 10.9534C-15.99 10.8111 -15.4208 10.6688 -14.8517 10.3842C-14.5671 10.2419 -14.2825 10.2419 -13.7134 10.0997C-6.02983 7.82305 1.36914 5.68873 9.0527 3.41212C9.0527 3.41212 9.33727 3.41212 9.33727 3.26984C11.8985 2.5584 14.4596 1.70467 17.0208 0.850937L42.0635 -6.54804C42.0635 -6.54804 42.3481 -6.54804 42.3481 -6.69033C42.3481 -6.69033 42.6327 -6.69032 42.6327 -6.83261C43.2018 -6.9749 44.0555 -7.25948 44.6247 -7.40176C46.9013 -8.1132 50.0316 -8.82465 52.0237 -9.53609C52.0237 -9.53609 52.3082 -9.53608 52.3082 -9.67837H52.5928C53.162 -9.67837 53.4465 -9.96295 53.7311 -9.96295C54.0157 -10.1052 54.3003 -10.1052 54.8694 -10.2475L57.7152 -11.1013C57.9998 -11.1013 58.2843 -11.2435 58.2843 -11.2435C60.2764 -11.8127 62.553 -12.5241 64.545 -13.0933C65.9679 -13.5201 67.3908 -13.947 68.8136 -14.3739C70.2365 -14.8007 71.944 -15.2276 73.3669 -15.6545C81.335 -18.0734 89.3031 -20.4923 97.2712 -22.9112C99.5479 -23.6226 101.824 -24.334 104.101 -24.9032L106.947 -25.7569C106.947 -25.7569 107.231 -25.7569 107.231 -25.8992C109.793 -26.6106 112.069 -27.3221 114.63 -28.0335C114.915 -28.0335 115.2 -28.1758 115.2 -28.1758C115.769 -28.3181 116.053 -28.4604 116.622 -28.6027C116.622 -28.6027 116.907 -28.6027 116.907 -28.745C120.606 -29.741 124.021 -30.8793 127.721 -31.8753C127.721 -31.8753 128.005 -31.8753 128.005 -32.0176C129.144 -32.3022 129.997 -32.5867 131.136 -33.0136C131.42 -33.0136 131.705 -33.1559 131.705 -33.1559L132.274 -33.2982C132.274 -33.2982 132.559 -33.2982 132.559 -33.4405C132.559 -33.4405 132.843 -33.4405 132.843 -33.5828C132.843 -33.5828 133.128 -33.5828 133.128 -33.725C135.689 -34.4365 138.25 -35.2902 140.811 -36.0017H138.819C110.646 -36.0017 82.7579 -36.0017 54.5849 -36.0017C54.0157 -36.0017 53.7311 -36.0017 53.162 -36.0017C52.8774 -36.0017 52.5928 -36.0017 52.5928 -36.0017V-62.1826H53.7311C53.4465 -61.7558 54.8694 -61.6135 55.4386 -61.4712C56.0077 -61.3289 56.5769 -61.1866 57.146 -60.9021C58.2843 -60.9021 58.5689 -60.7598 58.8535 -60.7598C59.1381 -60.7598 59.4226 -60.6175 59.4226 -60.6175C60.2764 -60.3329 61.4147 -60.0483 62.2684 -59.7638C62.553 -59.7638 62.8376 -59.6215 62.8376 -59.6215C62.8376 -59.6215 63.1221 -59.6215 63.1221 -59.4792L66.8216 -58.3409C68.5291 -57.914 69.952 -57.3449 71.6594 -56.918C74.5052 -56.0643 77.3509 -55.2105 79.9121 -54.4991C80.1967 -54.4991 80.4813 -54.3568 80.4813 -54.3568C80.4813 -54.3568 80.7658 -54.3568 80.7658 -54.2145C80.7658 -54.2145 81.0504 -54.2145 81.0504 -54.0722L83.8962 -53.2185C85.0345 -52.7916 86.4574 -52.5071 87.5957 -52.0802C87.8802 -52.0802 88.1648 -51.9379 88.1648 -51.9379C88.734 -51.7956 89.3031 -51.6533 89.8723 -51.3688C90.1568 -51.3688 90.4414 -51.2265 90.4414 -51.2265C91.8643 -50.7996 93.5718 -50.3727 94.9946 -49.9459C95.2792 -49.8036 95.5638 -49.8036 96.1329 -49.6613C96.1329 -49.6613 96.4175 -49.6613 96.4175 -49.519C97.2712 -49.3767 97.8404 -49.2344 98.125 -49.0922C112.069 -44.9658 126.298 -40.8394 139.958 -36.5708C141.096 -36.1439 141.95 -36.2862 142.519 -35.7171C142.519 -27.1798 142.519 -18.7848 142.519 -10.2475V-9.53609H53.7311H53.4465C53.4465 -9.3938 53.4465 -9.25151 53.4465 -9.10922V16.7872H142.234C143.088 25.4668 142.234 34.1463 142.519 42.8259C142.803 42.9682 143.088 42.6836 143.088 42.6836C147.072 41.5453 150.772 40.407 154.471 39.2687C154.756 39.2687 155.04 39.1264 155.04 39.1264C155.04 39.1264 155.325 39.1264 155.325 38.9841C155.325 38.9841 155.609 38.9841 155.609 38.8418C155.894 38.8418 156.178 38.6995 156.178 38.6995L159.309 37.7035C159.309 37.7035 159.593 37.7035 159.593 37.5612C159.593 37.5612 159.878 37.5612 159.878 37.419C160.447 37.2767 160.732 37.1344 161.301 36.9921C161.87 36.8498 162.724 36.5652 163.293 36.4229C163.577 36.4229 163.862 36.2806 163.862 36.2806C164.147 36.1384 164.431 36.1384 165 35.9961C171.83 34.004 179.514 32.012 185.774 29.8777H186.059L205.695 35.7115C206.264 35.8538 206.548 35.9961 207.118 36.1384C208.54 36.5652 210.248 36.9921 211.671 37.419C211.671 37.419 211.955 37.419 211.955 37.5612L216.793 38.9841C221.346 40.2647 225.615 41.6876 230.168 42.9682V43.1105H141.95C127.152 38.6995 112.638 34.2886 97.8404 29.8777C96.9867 29.5931 96.4175 29.4508 95.2792 29.3085C94.9946 29.1663 94.7101 29.1662 94.7101 29.1662L87.0265 26.8896C85.8882 26.6051 85.0345 26.3205 83.8962 25.8936C83.327 25.6091 82.1887 25.4668 81.335 25.1822C81.0504 25.1822 80.7658 25.0399 80.7658 25.0399C77.0664 23.9016 73.0823 22.7633 69.3828 21.625C68.8137 21.4827 68.2445 21.3404 67.6753 21.0558C66.8216 20.7713 65.9679 20.629 65.1142 20.3444C65.1142 20.3444 64.8296 20.3444 64.8296 20.2021L63.1221 19.633C62.2684 19.3484 61.6993 19.0638 61.1301 18.9215C60.5609 18.7792 60.2764 18.6369 59.7072 18.4947C59.7072 18.4947 59.4226 18.4947 59.4226 18.3524C59.4226 18.3524 59.1381 18.3524 59.1381 18.2101C59.1381 18.2101 58.8535 18.2101 58.8535 18.0678C58.8535 18.0678 58.5689 18.0678 58.5689 17.9255C57.9998 17.7832 57.7152 17.6409 57.146 17.4986C56.0077 17.2141 55.154 16.7872 54.0157 16.5026L53.7311 16.3603C53.4465 16.3603 52.8774 16.3603 52.5928 16.3603H-35.6257V16.6449Z" fill="#08090B"/>
<path d="M231.876 -9.53607H320.948V43.1105H320.663L276.554 30.02C289.929 26.0359 303.304 21.9096 317.248 17.9255C318.102 17.6409 320.948 17.2141 320.663 16.7872C320.379 16.5026 320.379 16.6449 320.094 16.5026C319.525 16.3603 318.671 16.0758 318.102 15.9335C318.671 15.9335 317.818 15.6489 317.533 15.6489C311.272 13.7992 304.727 11.9494 299.036 10.0997L296.474 9.53052C295.336 9.24595 294.482 8.96137 293.344 8.53451L292.206 7.96535L289.36 7.25391C289.36 7.25391 289.075 7.25391 289.075 7.11163C288.791 6.82705 287.653 6.40019 286.514 6.40019C286.514 6.40019 286.23 6.40018 286.23 6.25789C285.661 5.83103 284.238 5.54646 283.099 5.11959C282.815 5.11959 282.246 4.69273 281.961 4.97731C281.107 4.69273 280.254 4.55044 279.4 4.26587L277.977 3.69671C273.139 2.27383 268.017 0.993243 263.464 -0.429637C258.057 -1.99481 252.365 -3.98684 246.389 -5.55201C243.828 -6.26345 241.267 -6.97489 238.706 -7.68633C239.275 -7.68633 238.706 -7.97091 238.421 -7.97091C237.852 -8.11319 236.713 -8.39777 236.144 -8.54005C235.006 -8.82463 234.152 -9.2515 232.729 -9.39379H231.876C231.876 -9.2515 231.876 -9.39378 231.876 -9.53607C231.876 -9.39378 231.876 -9.39378 231.876 -9.53607Z" fill="#009061"/>
<path d="M143.942 16.5026C143.942 16.3603 144.226 16.5026 143.942 16.5026C143.942 16.3603 144.226 16.3603 144.226 16.3603C144.795 16.2181 145.934 15.9335 146.787 15.6489C147.072 15.5066 147.357 15.5066 147.926 15.3643L148.21 15.222C148.495 15.0798 148.779 15.0798 149.349 14.9375L149.633 14.7952C149.918 14.6529 150.202 14.6529 150.771 14.5106C155.325 13.3723 159.309 11.9494 163.577 10.6688C163.577 10.6688 163.862 10.6688 163.862 10.5265L164.147 10.3842C164.147 10.3842 164.431 10.3842 164.431 10.242C164.716 10.0997 165 10.0997 165.569 9.95738C165.569 9.95738 165.854 9.95738 165.854 9.81509L166.423 9.67281C166.708 9.67281 166.992 9.53052 166.992 9.53052L167.277 9.38823C167.561 9.24594 167.846 9.24594 168.415 9.10365L169.269 8.96137C169.554 8.96137 169.838 8.81908 169.838 8.81908C171.546 8.24993 173.253 7.82306 174.96 7.25391C175.245 7.25391 175.53 7.11162 175.53 7.11162C176.099 6.96934 176.383 6.82705 176.952 6.68476C176.952 6.68476 177.237 6.68476 177.237 6.54247C178.66 6.11561 180.367 5.68875 181.79 5.26188C182.359 5.11959 182.644 5.11959 183.213 4.83501C183.782 4.83501 184.067 4.69273 184.351 4.55044C184.351 4.55044 184.636 4.55044 184.636 4.40815L185.774 4.12357C185.774 4.12357 186.059 4.12358 186.059 3.98129C186.344 3.98129 186.628 3.839 186.628 3.839C201.426 -0.287351 215.37 -4.98285 230.168 -8.96692C230.737 -9.10921 231.022 -9.2515 231.591 -9.2515C231.591 -9.2515 231.591 -9.2515 231.591 -9.10921C231.591 -0.429642 231.591 8.39222 231.591 17.0718H320.094C320.379 17.4986 317.818 17.9255 316.679 18.2101C303.02 22.1942 289.645 26.3205 275.985 30.3046C262.041 34.4309 246.389 38.6996 233.014 42.9682C232.729 43.1105 232.16 43.1105 232.16 43.3951H231.876V17.2141V17.0718L143.373 16.9295C143.373 16.6449 143.657 16.6449 143.942 16.5026Z" fill="#08090B"/>
<path d="M98.4096 -49.3767C99.2633 -49.6613 100.117 -49.8036 100.971 -50.0882C108.085 -52.2225 115.484 -54.3568 122.599 -56.4911C123.737 -56.7757 124.591 -57.0603 125.729 -57.4871C129.998 -58.7677 134.266 -60.0483 138.535 -61.3289C139.673 -61.6135 141.096 -61.8981 141.95 -62.3249H142.519L187.197 -49.2344V-49.0921C179.514 -46.9578 172.115 -44.6812 165 -42.5469C164.716 -42.4046 164.431 -42.4046 163.862 -42.2623C163.577 -42.12 163.293 -42.12 162.724 -41.9777L160.163 -41.2663C158.171 -40.6971 157.032 -40.4126 155.325 -39.8434L153.902 -39.4166C153.617 -39.4166 153.333 -39.2743 153.333 -39.2743L151.625 -38.7051C148.78 -37.8514 145.934 -37.2822 143.373 -36.2862C143.373 -36.2862 142.234 -36.1439 142.803 -36.1439C172.399 -36.1439 201.995 -36.1439 231.876 -36.1439V-36.0016L231.591 -35.8594C217.078 -32.5867 204.841 -27.3221 190.612 -23.9072C176.668 -19.0694 157.601 -14.8007 143.942 -9.96294C143.657 -9.82066 143.088 -9.82066 143.373 -9.67837C172.968 -9.53608 202.564 -9.67837 232.16 -9.67837C232.16 -9.67837 232.16 -9.67837 232.16 -9.53608C231.591 -9.53608 231.307 -9.39379 230.737 -9.2515C215.939 -5.26744 201.995 -0.571938 187.197 3.55441L186.913 3.41212C177.806 0.708652 168.415 -2.13711 159.024 -4.84058C155.609 -5.83659 152.194 -6.9749 148.495 -7.97092C148.495 -7.97092 148.21 -7.97091 148.21 -8.1132C147.357 -8.39778 146.788 -8.54007 146.218 -8.68236C145.934 -8.82464 145.934 -8.82464 145.649 -8.82464C144.795 -8.96693 144.226 -9.3938 143.088 -9.53608V-10.3898C143.657 -10.5321 143.373 -10.8167 143.373 -10.959C143.657 -19.0694 143.088 -27.3221 143.373 -35.4325C143.657 -35.5748 143.088 -35.7171 143.088 -35.7171C142.519 -36.2862 141.665 -36.2862 140.527 -36.5708C126.867 -40.8394 112.638 -44.8235 98.6942 -49.0921C98.125 -49.0921 98.4096 -49.2344 98.4096 -49.3767Z" fill="#E12127"/>
<path d="M-35.6257 -9.53607H-33.9183C-32.78 -8.82463 -30.5034 -8.39777 -28.7959 -7.82861C-28.7959 -7.82861 -29.0805 -7.82862 -29.0805 -7.68633C-28.2268 -7.40175 -26.8039 -6.97489 -25.6656 -6.8326C-25.6656 -6.8326 -25.381 -6.8326 -25.381 -6.69031L-15.1363 -3.84455C-15.1363 -3.84455 -14.8517 -3.84455 -14.8517 -3.70227C-14.2825 -3.55998 -13.9979 -3.41769 -13.4288 -3.2754C-13.4288 -3.2754 -13.1442 -3.2754 -13.1442 -3.13311C-13.1442 -2.84854 -13.1442 -2.84854 -12.0059 -2.84854C-12.0059 -2.84854 -11.7213 -2.84854 -11.7213 -2.70625C-11.7213 -2.56396 -11.4368 -2.42167 -10.8676 -2.27939L-10.583 -2.42167C-10.0139 -2.27938 -9.72931 -2.1371 -9.16016 -1.99481C-9.72931 -1.99481 -8.30643 -1.56795 -8.30643 -1.56795C-6.88355 -1.14108 -5.46067 -0.714214 -4.03779 -0.429638C-4.03779 -0.429638 -3.75321 -0.42964 -3.75321 -0.287353C-3.18406 0.139512 -1.4766 0.566377 -0.338303 0.708665C-0.338303 0.708665 -0.0537224 0.708663 -0.0537224 0.85095C0.515427 0.993238 0.515427 1.27781 1.36916 1.27781C1.36916 1.27781 1.65373 1.27782 1.65373 1.4201L5.35322 2.70069C7.34525 2.84298 7.34525 3.55442 9.05271 3.69671C1.65373 5.97332 -6.02982 8.10764 -13.7134 10.3842L-13.9979 10.242C-14.5671 10.3842 -14.8517 10.5265 -14.8517 10.6688C-15.4208 10.8111 -15.99 10.9534 -16.5591 11.238L-16.8437 11.3803C-16.8437 11.3803 -17.1283 11.3803 -17.1283 11.5226C-18.8357 11.9494 -20.5432 12.5186 -21.9661 12.9454C-23.389 13.3723 -24.5273 13.6569 -25.6656 14.0837C-26.2347 14.226 -27.0884 14.5106 -27.6576 14.6529C-29.0805 14.7952 -30.5034 15.3643 -31.6417 15.6489C-31.9262 15.6489 -32.78 15.9335 -32.2108 15.9335C-33.0645 16.0758 -34.2028 16.5026 -35.6257 16.6449V-9.53607Z" fill="#008F61"/>
<path d="M53.7311 -9.53607L54.0157 -9.39379C55.7232 -8.68235 59.7072 -7.68633 61.9838 -7.11717C67.3908 -5.40972 73.0823 -3.84455 78.7738 -2.13709C88.734 0.850953 98.6941 3.839 108.654 6.68476C109.223 6.82705 109.793 6.96933 110.362 7.25391C110.646 7.25391 110.931 7.3962 110.931 7.3962L131.136 13.3723C133.982 14.226 137.112 15.222 139.958 16.2181L139.389 16.6449H53.4465V-8.68235C53.7311 -8.82463 53.162 -8.96692 53.162 -8.96692C53.162 -9.10921 53.162 -9.2515 53.162 -9.39379L53.7311 -9.53607Z" fill="#E12127"/>
<path d="M53.4466 -9.10922C53.4466 -9.10922 54.0157 -8.82465 53.7312 -8.82465V16.5026H139.673L140.242 16.0758C140.527 16.218 141.381 16.218 141.665 16.3603L142.234 16.5026V16.6449H53.4466V-9.10922Z" fill="#ED262D"/>
<path d="M319.525 16.6449L232.16 16.7872V-8.82465L233.868 -8.54007C235.291 -8.1132 236.714 -7.82863 238.136 -7.40177C240.698 -6.69033 243.259 -5.97889 245.82 -5.26745C251.227 -3.4177 257.203 -1.85254 262.895 -0.145081C268.301 1.42009 273.708 2.98526 278.831 4.55043C279.685 4.835 280.538 4.97729 281.392 5.26187C282.815 5.68873 284.238 6.11559 285.661 6.54246C285.661 6.54246 285.945 6.54246 285.945 6.68475C286.799 6.96932 287.653 7.11161 288.506 7.39619C288.506 7.39619 288.791 7.39618 288.791 7.53847C290.214 7.96534 291.637 8.3922 293.06 8.81907C294.198 9.10364 295.052 9.38821 296.19 9.81508C303.304 11.9494 310.703 14.0837 317.818 16.218C318.102 16.218 318.956 16.3603 319.525 16.6449Z" fill="#FDBF12"/>
<path d="M231.876 -9.2515H232.16C232.729 -9.10921 233.299 -8.82463 233.868 -8.68235L232.16 -8.96692V16.6449L319.525 16.5026C320.094 16.6449 320.094 16.5026 320.094 16.7872H231.591C231.876 8.10764 231.876 -0.571927 231.876 -9.2515Z" fill="#FAEC1E"/>
<path d="M262.895 -0.14505C267.448 1.27783 272.57 2.55842 277.408 3.9813L278.831 4.55046C273.424 2.98529 268.017 1.42012 262.895 -0.14505Z" fill="#008F61"/>
<path d="M-32.7799 -9.53607C-32.4953 -9.39378 -31.357 -9.39379 -30.7879 -9.39379C-3.18402 -9.2515 24.4199 -9.39379 52.0237 -9.39379C51.4546 -8.82463 49.4625 -8.54005 48.3242 -8.25548C47.4705 -7.9709 46.3322 -7.54404 45.4785 -7.25947C44.9093 -7.11718 44.0556 -6.8326 43.4864 -6.69031H42.9173L43.2019 -6.54803C43.2019 -6.54803 42.9173 -6.54802 42.9173 -6.40573C34.6646 -3.98684 26.1273 -1.42565 17.8746 0.993242C15.3134 1.70468 12.7522 2.55841 10.1911 3.41213C7.62987 2.70069 5.06868 1.98925 2.5075 1.27781C2.5075 1.27781 2.22292 1.27782 2.22292 1.13553C1.65377 0.993239 1.3692 0.850953 0.800045 0.708665C0.800045 0.708665 0.515469 0.708662 0.515469 0.566374C-0.622837 0.281797 -1.76114 -0.145062 -2.89944 -0.429638C-2.89944 -0.429638 -3.18402 -0.429642 -3.18402 -0.571929C-4.89148 -1.14108 -6.59893 -1.56794 -8.30639 -2.13709C-9.72927 -2.13709 -10.0138 -2.27938 -10.583 -2.42167C-10.8676 -2.56396 -11.1521 -2.56396 -11.7213 -2.70625C-11.7213 -2.70625 -12.0059 -2.70625 -12.0059 -2.84854C-12.2905 -2.99082 -12.575 -2.99082 -13.1442 -3.13311C-13.1442 -3.13311 -13.4288 -3.13311 -13.4288 -3.2754L-14.8516 -3.70227C-14.8516 -3.70227 -15.1362 -3.70226 -15.1362 -3.84455C-18.5511 -4.84057 -21.966 -5.83658 -25.0964 -6.8326C-25.0964 -6.8326 -25.3809 -6.8326 -25.3809 -6.97489C-26.5193 -7.25946 -27.0884 -7.68633 -28.5113 -7.97091C-30.5033 -8.39777 -32.7799 -8.82463 -33.9182 -9.53607H-32.7799Z" fill="#FDBF12"/>
<path d="M1.93828 1.27783C4.49946 1.98927 7.06065 2.70071 9.62183 3.41215C9.62183 3.41215 9.33726 3.41216 9.33726 3.55444C7.6298 3.41216 7.6298 2.70071 5.63777 2.55843L1.93828 1.27783Z" fill="#008F61"/>
<path d="M17.3055 0.993246C25.5582 -1.56794 34.0954 -3.98684 42.3481 -6.40573L17.3055 0.993246Z" fill="#FCDF09"/>
<path d="M1.65375 1.13551C0.800018 1.13551 0.800018 0.850937 0.230865 0.708649C0.800018 0.850937 1.08459 0.993224 1.65375 1.13551Z" fill="#008F61"/>
<path d="M143.942 16.3603L143.088 16.0758V-8.96692C143.088 -9.25149 144.796 -8.68234 145.08 -8.54006C145.365 -8.54006 145.365 -8.68235 145.365 -8.68235C145.934 -8.68235 145.934 -8.54006 145.934 -8.54006H145.649C146.503 -8.39777 147.072 -7.97091 148.21 -7.97091C148.21 -7.97091 148.495 -7.9709 148.495 -7.82862C148.495 -7.68633 149.064 -7.54404 149.349 -7.40175C151.91 -6.54802 154.756 -5.83658 157.317 -4.98286L159.024 -4.69828C168.415 -1.99481 177.806 0.708664 186.913 3.55442L186.344 3.98129C186.344 3.98129 186.059 3.98128 186.059 4.12357C185.49 4.26586 185.49 4.26586 184.921 4.40815L184.636 4.55044C183.213 4.40815 183.498 4.69273 183.498 4.69273C182.929 4.83501 182.644 4.9773 182.075 5.11959C180.368 5.40417 178.66 5.97332 177.522 6.40018C177.522 6.40018 177.237 6.40018 177.237 6.54247C176.383 6.54247 176.383 6.82704 175.814 6.96933C175.53 6.96933 175.245 7.11162 175.245 7.11162L170.977 8.24993L169.838 8.67679C169.554 8.81908 169.269 8.96137 169.269 8.96137C169.269 8.96137 168.985 8.96136 168.985 9.10365C168.7 9.24594 168.415 9.24594 167.846 9.38823C167.846 9.38823 167.562 9.38823 167.562 9.53052C167.277 9.53052 166.992 9.67281 166.992 9.67281C166.708 9.67281 166.423 9.81509 166.423 9.81509C166.423 9.81509 166.139 9.8151 166.139 9.95738C165.285 9.95738 165.285 10.0997 165 10.242C165 10.242 164.716 10.242 164.716 10.3842C164.716 10.3842 164.431 10.3842 164.431 10.5265C164.431 10.6688 164.147 10.5265 164.147 10.6688C160.447 11.6648 156.748 12.6609 153.333 13.7992C152.764 13.9415 151.91 14.3683 151.341 14.5106C151.056 14.6529 150.487 14.6529 150.203 14.7952C150.203 14.7952 149.918 14.7952 149.918 14.9375C149.633 15.0798 149.064 15.222 148.78 15.222C148.78 15.222 148.495 15.222 148.495 15.3643C148.21 15.5066 147.641 15.5066 147.357 15.6489C146.218 15.7912 145.649 16.0758 144.796 16.3603C144.226 16.3603 144.226 16.3603 143.942 16.3603Z" fill="#FDBF12"/>
<path d="M142.803 16.218C142.803 7.68076 142.803 -0.85652 142.803 -9.3938C143.657 -9.25151 144.511 -8.82465 145.365 -8.68236C145.365 -8.68236 145.365 -8.54007 145.08 -8.54007C144.795 -8.54007 143.373 -9.10922 143.088 -8.96693V16.0758L144.226 16.3603V16.5026L142.803 16.6449C142.519 16.5026 142.803 16.3603 142.803 16.218Z" fill="#FDD508"/>
<path d="M142.234 -9.39377V16.0758C139.389 16.0758 141.381 16.3604 141.665 16.3604C141.665 16.5026 141.665 16.5027 141.665 16.6449C141.381 16.5027 140.527 16.5026 140.242 16.3604C137.396 15.5066 134.551 14.5106 131.42 13.5146C124.875 11.3803 118.045 9.53054 111.215 7.5385C110.931 7.5385 110.646 7.39622 110.646 7.39622C110.646 7.11164 109.793 7.11164 109.223 6.82706C99.5479 3.69673 89.0186 0.850965 79.0584 -1.99479C73.6515 -3.70225 68.2445 -5.40971 62.2684 -6.97487C59.9918 -7.54403 56.0077 -8.54004 54.3003 -9.25148C54.8694 -9.39377 55.4386 -9.39377 56.2923 -9.39377C84.7499 -9.67835 113.777 -9.1092 142.234 -9.39377Z" fill="#009061"/>
<path d="M79.0584 -1.99481C89.0186 0.850947 99.5479 3.69671 109.224 6.82704H108.939C98.6942 3.839 88.734 0.993235 79.0584 -1.99481Z" fill="#16A36C"/>
<path d="M142.234 16.0758V-9.3938H142.519C142.519 -0.85652 142.519 7.68076 142.519 16.218C142.519 16.218 142.234 16.218 142.234 16.0758Z" fill="#008F61"/>
</g>
<mask id="mask1_2_2437" style="mask-type:luminance" maskUnits="userSpaceOnUse" x="0" y="0" width="501" height="4">
<path d="M500.8 0.566345H0.800003V3.5544H500.8V0.566345Z" fill="white"/>
</mask>
<g mask="url(#mask1_2_2437)">
<path d="M286.23 16.6449C287.653 16.5026 288.791 16.0758 289.645 15.6489C291.067 15.222 292.775 14.7952 294.198 14.3683C294.767 14.226 295.621 13.9414 296.19 13.7991C297.613 13.5146 298.751 13.0877 299.889 12.6608C301.597 12.234 303.304 11.8071 304.727 11.238C304.727 11.238 305.012 11.238 305.012 11.0957C305.012 11.0957 305.296 11.0957 305.296 10.9534C305.865 10.8111 306.435 10.6688 307.004 10.3842C307.288 10.2419 307.573 10.2419 308.142 10.0997C315.826 7.82305 323.225 5.68873 330.908 3.41212C330.908 3.41212 331.193 3.41212 331.193 3.26984C333.754 2.5584 336.315 1.70467 338.876 0.850937L363.919 -6.54804C363.919 -6.54804 364.203 -6.54804 364.203 -6.69033C364.203 -6.69033 364.488 -6.69032 364.488 -6.83261C365.057 -6.9749 365.911 -7.25948 366.48 -7.40176C368.757 -8.1132 371.887 -8.82465 373.879 -9.53609C373.879 -9.53609 374.164 -9.53608 374.164 -9.67837H374.448C375.017 -9.67837 375.302 -9.96295 375.587 -9.96295C375.871 -10.1052 376.156 -10.1052 376.725 -10.2475L379.571 -11.1013C379.855 -11.1013 380.14 -11.2435 380.14 -11.2435C382.132 -11.8127 384.408 -12.5241 386.4 -13.0933C387.823 -13.5201 389.246 -13.947 390.669 -14.3739C392.092 -14.8007 393.799 -15.2276 395.222 -15.6545C403.19 -18.0734 411.159 -20.4923 419.127 -22.9112C421.403 -23.6226 423.68 -24.334 425.956 -24.9032L428.802 -25.7569C428.802 -25.7569 429.087 -25.7569 429.087 -25.8992C431.648 -26.6106 433.925 -27.3221 436.486 -28.0335C436.77 -28.0335 437.055 -28.1758 437.055 -28.1758C437.624 -28.3181 437.909 -28.4604 438.478 -28.6027C438.478 -28.6027 438.762 -28.6027 438.762 -28.745C442.462 -29.741 445.877 -30.8793 449.576 -31.8753C449.576 -31.8753 449.861 -31.8753 449.861 -32.0176C450.999 -32.3022 451.853 -32.5867 452.991 -33.0136C453.276 -33.0136 453.56 -33.1559 453.56 -33.1559L454.13 -33.2982C454.13 -33.2982 454.414 -33.2982 454.414 -33.4405C454.414 -33.4405 454.699 -33.4405 454.699 -33.5828C454.699 -33.5828 454.983 -33.5828 454.983 -33.725C457.544 -34.4365 460.106 -35.2902 462.667 -36.0017H460.675C432.502 -36.0017 404.613 -36.0017 376.44 -36.0017C375.871 -36.0017 375.587 -36.0017 375.017 -36.0017C374.733 -36.0017 374.448 -36.0017 374.448 -36.0017V-62.1826H375.587C375.302 -61.7558 376.725 -61.6135 377.294 -61.4712C377.863 -61.3289 378.432 -61.1866 379.001 -60.9021C379.286 -60.7598 379.571 -60.7598 379.571 -60.7598C379.855 -60.7598 380.14 -60.6175 380.14 -60.6175C380.993 -60.3329 382.132 -60.0483 382.986 -59.7638C383.27 -59.7638 383.555 -59.6215 383.555 -59.6215C383.555 -59.6215 383.839 -59.6215 383.839 -59.4792L387.254 -58.4832C388.962 -58.0563 390.384 -57.4871 392.092 -57.0603C394.938 -56.2066 397.783 -55.3528 400.345 -54.6414C400.629 -54.6414 400.914 -54.4991 400.914 -54.4991C400.914 -54.4991 401.198 -54.4991 401.198 -54.3568C401.198 -54.3568 401.483 -54.3568 401.483 -54.2145L404.329 -53.3608C405.467 -52.9339 406.89 -52.6494 408.028 -52.2225C408.313 -52.2225 408.597 -52.0802 408.597 -52.0802C409.167 -51.9379 409.736 -51.7956 410.305 -51.511C410.589 -51.511 410.874 -51.3688 410.874 -51.3688C412.297 -50.9419 414.004 -50.515 415.427 -50.0882C415.712 -49.9459 415.996 -49.9459 416.565 -49.8036C416.565 -49.8036 416.85 -49.8036 416.85 -49.6613C417.135 -49.519 417.419 -49.519 417.988 -49.3767C431.933 -45.2504 446.161 -41.124 459.821 -36.8554C460.959 -36.4285 461.813 -36.5708 462.382 -36.0017C462.382 -27.4644 462.382 -19.0694 462.382 -10.5321V-9.53609H373.594H373.31C373.31 -9.3938 373.31 -9.25151 373.31 -9.10922V16.7872H462.098C462.951 25.4668 462.098 34.1463 462.382 42.8259C462.667 42.9682 462.951 42.6836 462.951 42.6836C466.935 41.5453 470.635 40.407 474.334 39.2687C474.619 39.2687 474.904 39.1264 474.904 39.1264C474.904 39.1264 475.188 39.1264 475.188 38.9841C475.188 38.9841 475.473 38.9841 475.473 38.8418C475.757 38.8418 476.042 38.6995 476.042 38.6995L479.172 37.7035C479.172 37.7035 479.457 37.7035 479.457 37.5612C479.457 37.5612 479.741 37.5612 479.741 37.419C480.311 37.2767 480.595 37.1344 481.164 36.9921C481.733 36.8498 482.587 36.5652 483.156 36.4229C483.441 36.4229 483.725 36.2806 483.725 36.2806C484.01 36.1384 484.295 36.1384 484.864 35.9961C491.694 34.004 499.377 32.012 505.638 29.8777H505.922L525.558 35.7115C526.127 35.8538 526.412 35.9961 526.981 36.1384C528.404 36.5652 530.111 36.9921 531.534 37.419C531.534 37.419 531.819 37.419 531.819 37.5612L536.657 38.9841C541.21 40.2647 545.478 41.6876 550.032 42.9682V43.1105H460.959C446.161 38.6995 431.648 34.2886 416.85 29.8777C415.996 29.5931 415.427 29.4508 414.289 29.3085C414.004 29.1663 413.72 29.1662 413.72 29.1662L406.036 26.8896C404.898 26.6051 404.044 26.3205 402.906 25.8936C402.337 25.6091 401.198 25.4668 400.345 25.1822C400.06 25.1822 399.775 25.0399 399.775 25.0399C396.076 23.9016 392.092 22.7633 388.392 21.625C387.823 21.4827 387.254 21.3404 386.685 21.0558C385.831 20.7713 384.978 20.629 384.124 20.3444C384.124 20.3444 383.839 20.3444 383.839 20.2021L382.132 19.633C381.278 19.3484 380.709 19.0638 380.14 18.9215C379.571 18.7792 379.286 18.6369 378.717 18.4947C378.717 18.4947 378.432 18.4947 378.432 18.3524C378.432 18.3524 378.148 18.3524 378.148 18.2101C378.148 18.2101 377.863 18.2101 377.863 18.0678C377.863 18.0678 377.579 18.0678 377.579 17.9255C377.009 17.7832 376.725 17.6409 376.156 17.4986C375.017 17.2141 374.164 16.7872 373.025 16.5026L372.741 16.3603C372.456 16.3603 371.887 16.3603 371.602 16.3603H283.953V16.6449H286.23Z" fill="#08090B"/>
<path d="M465.797 16.5026C465.797 16.3603 466.082 16.5026 465.797 16.5026C465.797 16.3603 466.082 16.3603 466.082 16.3603C466.651 16.2181 467.789 15.9335 468.643 15.6489C468.927 15.5066 469.212 15.5066 469.781 15.3643L470.066 15.222C470.35 15.0798 470.635 15.0798 471.204 14.9375L471.489 14.7952C471.773 14.6529 472.058 14.6529 472.627 14.5106C477.18 13.3723 481.164 11.9494 485.433 10.6688C485.433 10.6688 485.717 10.6688 485.717 10.5265L486.002 10.3842C486.002 10.3842 486.287 10.3842 486.287 10.242C486.571 10.0997 486.856 10.0997 487.425 9.95738C487.425 9.95738 487.709 9.95738 487.709 9.81509L488.279 9.67281C488.563 9.67281 488.848 9.53052 488.848 9.53052L489.132 9.38823C489.417 9.24594 489.701 9.24594 490.271 9.10365L490.555 8.96137C490.84 8.96137 491.124 8.81908 491.124 8.81908C492.832 8.24993 494.539 7.82306 496.247 7.25391C496.531 7.25391 496.816 7.11162 496.816 7.11162C497.385 6.96934 497.67 6.82705 498.239 6.68476C498.239 6.68476 498.523 6.68476 498.523 6.54247C499.946 6.11561 501.654 5.68875 503.077 5.26188C503.646 5.11959 503.93 5.11959 504.499 4.83501C505.069 4.83501 505.353 4.69273 505.638 4.55044C505.638 4.55044 505.922 4.55044 505.922 4.40815L507.061 4.12357C507.061 4.12357 507.345 4.12358 507.345 3.98129C507.63 3.98129 507.914 3.839 507.914 3.839C522.712 -0.287351 536.656 -4.98285 551.454 -8.96692C552.024 -9.10921 552.308 -9.2515 552.877 -9.2515C552.877 -9.2515 552.877 -9.2515 552.877 -9.10921C552.877 -0.429642 552.877 8.39222 552.877 17.0718H641.38C641.665 17.4986 639.104 17.9255 637.966 18.2101C624.306 22.1942 610.931 26.3205 597.271 30.3046C583.327 34.4309 567.675 38.6996 554.3 42.9682C554.016 43.1105 553.446 43.1105 553.446 43.3951H552.877V17.2141V17.0718L465.228 16.9295C465.228 16.6449 465.512 16.6449 465.797 16.5026Z" fill="#08090B"/>
<path d="M420.265 -49.3767C421.119 -49.6613 421.972 -49.8036 422.826 -50.0882C429.94 -52.2225 437.339 -54.3568 444.454 -56.4911C445.592 -56.7757 446.446 -57.0603 447.584 -57.4871C451.853 -58.7677 456.121 -60.0483 460.39 -61.3289C461.528 -61.6135 462.951 -61.8981 463.805 -62.3249H464.374L509.053 -49.2344V-49.0921C501.369 -46.9578 493.97 -44.6812 486.856 -42.5469C486.571 -42.4046 486.286 -42.4046 485.717 -42.2623C485.433 -42.12 485.148 -42.12 484.579 -41.9777L482.018 -41.2663C480.026 -40.6971 478.888 -40.4126 477.18 -39.8434L475.757 -39.4166C475.473 -39.4166 475.188 -39.2743 475.188 -39.2743L473.481 -38.7051C470.635 -37.8514 467.789 -37.2822 465.228 -36.2862C465.228 -36.2862 464.09 -36.1439 464.659 -36.1439C494.255 -36.1439 523.851 -36.1439 553.731 -36.1439V-36.0016L553.446 -35.8594C538.933 -32.5867 526.696 -27.3221 512.468 -23.9072C498.523 -19.0694 479.457 -14.8007 465.797 -9.96294C465.512 -9.82066 464.943 -9.82066 465.228 -9.67837C494.824 -9.53608 524.42 -9.67837 554.016 -9.67837C554.016 -9.67837 554.016 -9.67837 554.016 -9.53608C553.446 -9.53608 553.162 -9.39379 552.593 -9.2515C537.795 -5.26744 523.851 -0.571938 509.053 3.55441L508.768 3.41212C499.662 0.708652 490.271 -2.13711 480.88 -4.84058C477.465 -5.83659 474.05 -6.9749 470.35 -7.97092C470.35 -7.97092 470.066 -7.97091 470.066 -8.1132C469.212 -8.39778 468.643 -8.54007 468.074 -8.68236C467.789 -8.82464 467.789 -8.82464 467.504 -8.82464C466.651 -8.96693 466.082 -9.3938 464.943 -9.53608V-10.3898C465.512 -10.5321 465.228 -10.8167 465.228 -10.959C465.512 -19.0694 464.943 -27.3221 465.228 -35.4325C465.512 -35.5748 464.943 -35.7171 464.943 -35.7171C464.374 -36.2862 463.52 -36.2862 462.382 -36.5708C448.722 -40.8394 434.494 -44.8235 420.549 -49.0921C419.98 -49.0921 420.265 -49.2344 420.265 -49.3767Z" fill="#E12127"/>
<path d="M286.23 -9.53607H287.937C289.075 -8.82463 291.352 -8.39777 293.06 -7.82861C293.06 -7.82861 292.775 -7.82862 292.775 -7.68633C293.629 -7.40175 295.052 -6.97489 296.19 -6.8326C296.19 -6.8326 296.474 -6.8326 296.474 -6.69031L306.435 -3.70227C306.435 -3.70227 306.719 -3.70226 306.719 -3.55998C307.288 -3.41769 307.573 -3.2754 308.142 -3.13311C308.142 -3.13311 308.427 -3.13311 308.427 -2.99083C308.427 -2.70625 308.427 -2.70625 309.565 -2.70625C309.565 -2.70625 309.85 -2.70625 309.85 -2.56396C309.85 -2.42167 310.134 -2.27938 310.703 -2.13709L310.988 -2.27939C311.557 -2.1371 311.842 -1.99481 312.411 -1.85252C311.842 -1.85252 313.264 -1.42566 313.264 -1.42566C314.687 -0.998791 316.11 -0.571928 317.533 -0.287353C317.533 -0.287353 317.818 -0.287354 317.818 -0.145066C318.387 0.281797 320.094 0.708663 321.233 0.85095C321.233 0.85095 321.517 0.850954 321.517 0.993242C322.086 1.13553 322.086 1.4201 322.94 1.4201C322.94 1.4201 323.225 1.4201 323.225 1.56239L326.924 2.84299C328.916 2.98527 328.916 3.69671 330.624 3.839C323.225 6.11561 315.541 8.24993 307.857 10.5265L307.573 10.3842C307.004 10.5265 306.719 10.6688 306.719 10.8111C306.15 10.9534 305.581 11.0957 305.012 11.3803L304.727 11.5226C304.727 11.5226 304.443 11.5226 304.443 11.6648C302.735 12.0917 301.028 12.6609 299.605 13.0877C298.182 13.5146 297.044 13.7992 295.905 14.226C295.336 14.3683 294.482 14.6529 293.913 14.7952C292.49 14.9375 291.068 15.5066 289.929 15.7912C289.645 15.7912 288.791 16.0758 289.36 16.0758C288.506 16.3603 287.368 16.9295 285.945 17.0718V-9.53607H286.23Z" fill="#008F61"/>
<path d="M375.586 -9.53607L375.871 -9.39379C377.578 -8.68235 381.562 -7.68633 383.839 -7.11717C389.246 -5.40972 394.938 -3.84455 400.629 -2.13709C410.589 0.850953 420.549 3.839 430.51 6.68476C431.079 6.82705 431.648 6.96933 432.217 7.25391C432.502 7.25391 432.786 7.3962 432.786 7.3962L452.991 13.3723C455.837 14.226 458.967 15.222 461.813 16.2181L461.244 16.6449H375.302V-8.68235C375.586 -8.82463 375.017 -8.96692 375.017 -8.96692C375.017 -9.10921 375.017 -9.2515 375.017 -9.39379L375.586 -9.53607Z" fill="#E12127"/>
<path d="M375.302 -9.10922C375.302 -9.10922 375.871 -8.82465 375.587 -8.82465V16.5026H461.528L462.098 16.0758C462.382 16.218 463.236 16.218 463.521 16.3603L464.09 16.5026V16.6449H375.302V-9.10922Z" fill="#ED262D"/>
<path d="M289.075 -9.53607C289.36 -9.39378 290.498 -9.39379 291.067 -9.39379C318.671 -9.2515 346.275 -9.39379 373.879 -9.39379C373.31 -8.82463 371.318 -8.54005 370.18 -8.25548C369.326 -7.9709 368.188 -7.54404 367.334 -7.25947C366.765 -7.11718 365.911 -6.8326 365.342 -6.69031H364.773L365.057 -6.54803C365.057 -6.54803 364.773 -6.54802 364.773 -6.40573C356.52 -3.98684 347.983 -1.42565 339.73 0.993242C337.169 1.70468 334.608 2.55841 332.046 3.41213C329.485 2.70069 326.924 1.98925 324.363 1.27781C324.363 1.27781 324.078 1.27782 324.078 1.13553C323.509 0.99324 323.225 0.850953 322.655 0.708666C322.655 0.708666 322.371 0.708662 322.371 0.566374C321.233 0.281798 320.094 -0.145061 318.956 -0.429637C318.956 -0.429637 318.671 -0.429641 318.671 -0.571929C316.964 -1.14108 315.256 -1.56794 313.549 -2.13709C312.98 -2.27938 312.695 -2.42167 312.126 -2.56396C311.842 -2.70625 311.557 -2.70625 310.988 -2.84853C310.988 -2.84853 310.703 -2.84854 310.703 -2.99083C310.419 -3.13311 310.134 -3.13311 309.565 -3.2754C309.565 -3.2754 309.28 -3.2754 309.28 -3.41769L307.857 -3.84455C307.857 -3.84455 307.573 -3.84455 307.573 -3.98684C304.158 -4.98285 300.743 -5.97887 297.613 -6.97489C297.613 -6.97489 297.328 -6.97489 297.328 -7.11717C296.19 -7.40175 295.621 -7.82862 294.198 -8.11319C292.49 -8.68234 290.214 -9.10921 289.075 -9.82065V-9.53607Z" fill="#FDBF12"/>
<path d="M323.794 1.27783C326.355 1.98927 328.916 2.70071 331.477 3.41215C331.477 3.41215 331.193 3.41216 331.193 3.55444C329.485 3.41216 329.485 2.70071 327.493 2.55843L323.794 1.27783Z" fill="#008F61"/>
<path d="M339.161 0.993246C347.413 -1.56794 355.951 -3.98684 364.203 -6.40573L339.161 0.993246Z" fill="#FCDF09"/>
<path d="M318.387 -0.429626C319.525 -0.14505 320.663 0.281809 321.802 0.566385C320.379 0.424097 318.671 -0.0027625 318.387 -0.429626Z" fill="#008F61"/>
<path d="M323.509 1.13551C322.655 1.13551 322.655 0.850937 322.086 0.708649C322.655 0.850937 322.94 0.993224 323.509 1.13551Z" fill="#008F61"/>
<path d="M465.797 16.3603L464.659 16.0758V-8.96692C464.659 -9.25149 466.366 -8.68234 466.651 -8.54006C466.936 -8.54006 466.936 -8.68235 466.936 -8.68235C467.505 -8.68235 467.505 -8.54006 467.505 -8.54006H467.22C468.074 -8.39777 468.643 -7.97091 469.781 -7.97091C469.781 -7.97091 470.066 -7.9709 470.066 -7.82862C470.066 -7.68633 470.635 -7.54404 470.92 -7.40175C473.481 -6.54802 476.327 -5.83658 478.888 -4.98286L480.595 -4.69828C489.986 -1.99481 499.377 0.708664 508.484 3.55442L508.199 3.839C508.199 3.839 507.914 3.839 507.914 3.98129C507.345 4.12357 507.345 4.12358 506.776 4.26586L506.492 4.40815C505.353 4.40815 505.638 4.69273 505.353 4.69273C504.784 4.83501 504.5 4.9773 503.93 5.11959C502.223 5.40417 500.516 5.97332 499.377 6.40018C499.377 6.40018 499.093 6.40018 499.093 6.54247C498.239 6.54247 498.239 6.82704 497.67 6.96933C497.385 6.96933 497.101 7.11162 497.101 7.11162L492.832 8.24993L491.694 8.67679C491.409 8.67679 491.125 8.81908 491.125 8.81908C491.125 8.81908 490.84 8.81908 490.84 8.96137C490.555 9.10365 490.271 9.10365 489.702 9.24594C489.702 9.24594 489.417 9.24594 489.417 9.38823C489.132 9.38823 488.848 9.53052 488.848 9.53052C488.563 9.53052 488.279 9.67281 488.279 9.67281C488.279 9.67281 487.994 9.6728 487.994 9.81509C487.14 9.81509 487.14 9.95738 486.856 10.0997C486.856 10.0997 486.571 10.0997 486.571 10.242C486.571 10.242 486.287 10.242 486.287 10.3842C486.287 10.3842 486.002 10.3842 486.002 10.5265C482.303 11.5225 478.603 12.5186 475.188 13.6569C474.619 13.7992 473.765 14.226 473.196 14.3683C472.912 14.5106 472.342 14.5106 472.058 14.6529C472.058 14.6529 471.773 14.6529 471.773 14.7952C471.489 14.9375 470.92 15.0798 470.635 15.0798C470.635 15.0798 470.35 15.0798 470.35 15.222C470.066 15.3643 469.497 15.3643 469.212 15.5066C468.074 15.6489 467.505 15.9335 466.651 16.2181C466.082 16.3603 466.082 16.3603 465.797 16.3603Z" fill="#FDBF12"/>
<path d="M464.659 16.218C464.659 7.68076 464.659 -0.85652 464.659 -9.3938C465.513 -9.25151 466.366 -8.82465 467.22 -8.68236C467.22 -8.68236 467.22 -8.54007 466.935 -8.54007C466.651 -8.54007 465.228 -9.10922 464.943 -8.96693V16.0758L466.082 16.3603V16.5026L464.659 16.6449C464.374 16.5026 464.659 16.3603 464.659 16.218Z" fill="#FDD508"/>
<path d="M464.09 -9.39377V16.0758C461.244 16.0758 463.236 16.3604 463.52 16.3604C463.52 16.5026 463.52 16.5027 463.52 16.6449C463.236 16.5027 462.382 16.5026 462.098 16.3604C459.252 15.5066 456.406 14.5106 453.276 13.5146C446.73 11.3803 439.901 9.53054 433.071 7.5385C432.786 7.5385 432.502 7.39622 432.502 7.39622C432.502 7.11164 431.648 7.11164 431.079 6.82706C421.403 3.69673 410.874 0.850965 400.914 -1.99479C395.507 -3.70225 390.1 -5.40971 384.124 -6.97487C381.847 -7.54403 377.863 -8.54004 376.156 -9.25148C376.725 -9.39377 377.294 -9.39377 378.148 -9.39377C406.605 -9.67835 435.632 -9.1092 464.09 -9.39377Z" fill="#009061"/>
<path d="M400.914 -1.99481C410.874 0.850947 421.403 3.69671 431.079 6.82704H430.794C420.55 3.839 410.589 0.993235 400.914 -1.99481Z" fill="#16A36C"/>
<path d="M464.089 16.0758V-9.3938H464.374C464.374 -0.85652 464.374 7.68076 464.374 16.218C464.374 16.218 464.089 16.218 464.089 16.0758Z" fill="#008F61"/>
</g>
</svg>
