<?xml version="1.0" encoding="UTF-8"?>
<svg id="Layer_1" xmlns="http://www.w3.org/2000/svg" version="1.1" viewBox="0 0 841.89 595.28">
  <!-- Generator: Adobe Illustrator 29.7.1, SVG Export Plug-In . SVG Version: 2.1.1 Build 8)  -->
  <defs>
    <style>
      .st0 {
        fill: #fff;
      }

      .st1 {
        fill: #fdbf12;
      }

      .st2 {
        fill: #e12127;
      }

      .st3 {
        fill: #009061;
      }

      .st4 {
        fill: #08090b;
      }
    </style>
  </defs>
  <path d="M596.65,394.02c.36-.43.31-2.01,1.33-1.6,1.44.58,4.88,5.24,5.39,6.92,1.06,3.52,1.23,13.66.79,17.43-.17,1.5-.93,2.49-1.12,4.23-.43,4.1.89,8.15.54,12.24l3.77.89v-73.55l1.34-.8,45.22,3.74v81.31l23.27,4.81c1.27-.77.28-1.14.28-1.34v-95.48c-7.96,1.33-16.43-2.26-24.41-3.14-9.65-1.07-20.19-.59-29.92-1.11-23.33-1.25-46.76-2.77-70.08-3.76-8.28-.35-16.61-.31-24.88-1.08v71.41l-.8.79-.8-.79v-71.41c-1.67-.04-3.35.12-5.01-.07-1.14-.13-4.23-.39-4.54-1.34l-.34-49.94c.5-.89,1.21-.97,2.12-1.09,8.82-1.14,22.47.2,31.6.55,2.22.09,4.46-.05,6.68,0v-9.63c-1.76-.2-4.08.66-5.35-.8v-9.36h196.92s-.08,8.22-.08,8.22l-.8.81-3.59.15-.88.72v21.13l67.19,6.92.16,8.52-9.59,2.52-.04,83.33-18.99,8.31-.75-1.28,18.21-8.02v-82.11c-2.61,1.22-10.83,2.03-12.69,3.37-1.23.88-2.22,5.09-3.64,6.26l2.41-5.88c-5.61-.25-5.48,3.92-8.3,7.48l2.41-5.88c-5.26-.39-5.43,2.93-7.76,6.41l1.87-5.35c-4.48.6-4.96,2.52-7.22,5.88-.91-.93,2.23-3.98,1.87-4.27-1.53.59-4.88.8-6.06,1.56-.85.54-3.36,6.23-4.11,7.53-1.03.08-.47-1.06-.24-1.58.78-1.7,2.25-3.32,2.93-5.1-4.48-.83-6.57,6.11-8.04,9.35-1.12.04-.21-1.98-.02-2.43.92-2.18,2.56-4.11,3.77-6.12-1.49.56-4.73.59-5.86,1.35-1.15.77-1.62,4.07-2.97,5.06l1.33-4.81c-6.27.59-5.65,7.34-9.9,10.7l5.09-9.09c-5.69-.37-6.66,3.38-8.03,8.01-.98.13-.44-1.11-.3-1.63.48-1.72,1.62-3.07,1.91-4.78-6.33-.21-6.52,7.92-9.9,11.76-.8-.42.15-1.29.36-1.78,1.3-3.06,3.02-6.06,4.73-8.91l-5.23,1.19-3.34,7.9c-.99.12-.47-1.12-.28-1.62.68-1.87,2.31-3.7,2.43-5.86-.17-.17-4.36,1.01-4.66,1.22-1.25.89-3.94,7.64-4.44,9.47-1.06.1-.32-1.55-.16-2.04.41-1.25,3.69-7.2,3.37-7.59-5.53.77-6.46,4.56-9.36,8.56-.98-1.6,4.08-6.32,3.48-6.95l-5.75,1.74-3.89,8.42c-.98.13-.49-1.14-.29-1.63.37-.9,3.44-5.94,2.97-6.39-6.32-.28-6.47,5.87-9.9,9.62-.8-.42.12-1.29.38-1.76,1.16-2.1,2.68-4.04,3.63-6.26-7.69-.23-10.24,9.05-12.31,14.97-1.07.07-.43-1.61-.27-2.14,1.21-4.02,3.87-7.48,5.62-11.22-2.31.58-4.97.86-6.69,2.67l-.49-1.05c-1.16.78-2.93.57-4.02,1.35-.47.34-4.85,7.01-4.85,7.45v90.67l51.3-19.86c.39-1.84-.33-4.22.18-5.97.42-1.44,2.44-1.82,2.86-2.52.32-.54-.28-1.7-.1-2.69.27-1.43,1.43-2.04,1.8-3.07.47-1.29.34-3.3,1.19-4.55,1.6-2.35,4.16-.64,4.75-.98.17-.1.33-1.15.85-1.55,2.17-1.67,3.57-1.77,6.18-1.06.29-6.27,6.3-8.08,11.23-4.82.54-3.9,4.69-4.72,7.64-2.69.53.36.8,1.54,1.18,1.58.54.05,2.78-2.09,4.54-1.31,2.61,1.15,2.17,4.23,2.98,5.62.44.75,2.39,1.2,3.06,2.83.64,1.55.19,2.87.52,4.3.53,2.31,2.86,2.61,1.8,6.32-.29,1.02-1.15.91-1.25,1.28-.37,1.36.45,4.1.3,5.73-.37,3.98-7.72,12.53-12.19,8.99.31,2.92-6.31,4.39-6.42,2.4-.06-1.08,2.19-.22,2.8-.34,2.39-.44,4.02-4.63,5.49-6.35l-.81,3.74c.93-.02,1.92.16,2.83-.1s7.87-6.32,6.8-7.38l-2.14-.27c3.35-2.15.78-2.78,1.12-4.17.14-.59,1.84-1.74,1.56-1.97l-2.14.27c3.07-2.45,3.72-2.7,2.08-6.63l-2.08-.06c1.02-3.09,1.1-4.05-.54-6.95l-2.13,1.06c1.13-2.44-.11-7.16-3.44-6.94-1.96.13-2.62,2.46-4.58,2.14.44-5.62-5.29-4.17-6.75-.03-6.21-3.09-10.25-1.06-10.92,5.91-6.71-3.48-7.09,1.62-6.42,6.95-1.41-.94-.83-3.23-2.11-4.57-.65-.68-1.23-1.09-2.18-.54-2.25,2.21-1.55,4.2-.53,6.71-4.88-1.78-1.45,4.18-2.13,4.81-1.68-.09-2.91-.26-3.51,1.58-1.19,3.65.01,3.35,2.43,5.11l-2.57,1.05c.37,2.12,1.54,4.02,3.63,4.84,1.5.59,5.14.3,5.38.48.47.34.56,1.59,1.04,2.2,1.43,1.83,6.26,1.74,8,.48.25-.18,3.84-4.22,4.03-4.53.84-1.37.3-3.38,1.89-3.19-1.27,6.04-6.31,11.46-13,9.51-1.48-.43-2.24-2.76-2.63-2.98-.6-.34-2.14-.07-3.13-.35-3.92-1.14-5.42-1.73-6.12-6.18l-52.97,20.86c-7.84-1.27-15.51-3.65-23.3-5.12-2.97-.56-6.67.83-7.88-2.91l-42.41-7.49c.07,4.45,1.42,8.62,2.66,12.82-3.07.4-5.37,3.1-8.55,2.69,0-2.62,1.43-3.35,2.66-5.03l-2.65-9.94-2.25,15.67c-.3.76-.75,1.31-1.64,1.31-.96,0-7.76-.81-7.9-1.21-1-2.89,3.52-2.16,3.79-3.28l.48-16.2c-.72-.75-17.68-2.43-20.54-3.27-.91-.27-1.54-.41-1.36-1.57l21.94,3.21,1.11-14.71-1.12-7.75c-.53-.62-6.58,4.37-6.95,5.62-.2.69.13,1.07.79.79,1.41-.61,3.57-5.27,5.08-4.27.72,2.04.75,3.84,0,5.88l-.53-4.81c-1.35,1.6-3.66,3.2-3.75,5.35l-2.15-1.43-1.03-2.5,8.27-6.23c.66-4.71-1.08-13.36,6.16-12.83-.76.92-2.09.94-3.21,2.41-2.92,3.83-1.68,14.06-.18,18.48l5.06-.33c1.5-3.86-.41-7.42-.62-11.17-.04-.62-.38-2.97.55-2.96,1.33,6.26,1.81,12.05,1.64,18.47-.04,1.63-1.56,3.91,1.04,3.99-.67-1.89.86-2.01,1.16-2.87,1.48-4.33,1.17-14.63.42-19.3-.36-2.23-3.54-6.55-5.86-6.72ZM673.71,273.66l-120.41.53v5.89l120.41.53v-6.96ZM747.01,273.66h-72.24v6.96c24.09-.13,48.22-.39,72.24-1.07v-5.89ZM742.2,281.69l-67.42,1.07v29.95l67.42-9.09v-21.93ZM673.71,282.76l-115.58-.53.55,1.85-.42,6.99,1.21.78,105.15,1.07.53,21.4,8.56-1.07v-30.49ZM657.65,295.06l-139.67-1.61c.82,15.99.49,32.09.54,48.15l139.13,6.42v-52.96ZM663.01,295.06h-4.29l.54,52.96,3.76-.78.52-1.09-.54-51.09ZM665.14,316.19v7.76c9.68-1.03,19.37-2.81,29.01-4.43,21.91-3.7,49.04-10.59,70.64-11.77.7-.04,1.68-1.07,1.5.42l-101.14,16.86v9.63l119.33-24.07-119.3,25.16-.03,6.93,6.09.52,134.11-32.35-62.37-6.17c-25.11,4.68-51.47,6.17-76.49,10.73-.61.11-1,.25-1.34.8ZM673.71,344.54v7.76c44.75-12.8,90.18-23.47,135.15-35.27l.23-4.85-134.46,31.68-.92.69ZM672.63,344.27l-7.49-.54-.03,4.79-5.86.83,13.38,2.94v-8.02ZM682.8,351.23l-3.5,1.04-.24,3.77,3.74-4.81ZM652.3,365.13l-43.34-3.74v73.82l4.28.53.27-71.16,34.48,3.26.02,74.6c.33,1.76,2.81,1.81,4.29,1.87v-79.17ZM617.52,365.67h-3.21v70.07l2.65.52c-.09-.49.56-1.14.56-1.32v-69.27ZM622.33,368.34c.14-.47.69-1.99.53-2.14h-4.28s0,7.49,0,7.49c.78.03.93-1.56,1.51-2.5.77-1.26,1.2-1.81,2.24-2.85-1.11,3.82-4.54,6.37-3.74,10.7l1.07.26c-2.04.57-.76,3.25-1.07,5.08,1.01-.7,1.87-1.76,2.67-2.67-.5.95-2.61,4.27-2.66,4.56-.29,1.51.16,3.48,0,5.07l1.6-1.33c-1.22,2.33-2.08,3.88-1.6,6.68l3.21-3.47c-1.5,3.53-4.24,4.97-3.21,9.36l1.07-.27-1.07,4.01c2.56-1.69,5.25-7.21,7.49-8.56-1.76,4.4-5.29,6.45-7.48,10.44v24.86s8.54-12.04,8.54-12.04l-.52-2.93c-1.41,3.83-4.4,7.48-6.96,10.69.42-3.41,6.97-9.43,7.47-12.05.11-.55.43-3.38-.52-3.46l-3.76,5.61c.55-2.39,3.86-5.28,4.26-7.51.28-1.54-.43-3.33.51-4.84l-.99-.45.49-4.59-7.48,10.7c.37-3.14,9.2-12.44,7.48-14.98-.35.06-.73.34-1.06.53,1.6-3.98.81-7.5,1.07-11.77l-1.07.27c2.08-3.49.69-8.05,1.07-12.03-2.18,2.34-3.76,5.09-5.88,7.49.28-.52.35-1.28.83-2.1,2.12-3.55,6.03-6.18,5.05-10.75l-1.07.27,1.07-2.4c-3.09-.31-3-.22-4.81,1.6ZM646.95,368.88l-17.64-1.92-1.09.58v54.83l18.73,3.21v-56.7ZM598.79,415.95l-5-.02c-.53.12-.67,1.04-.75,1.48-1.37,7.71-1.33,19.48-1.77,27.67-.05.98-.17,2.88.1,3.69.42,1.28,3.05,1.36,3.57-.03,2.39-6.43,1.46-16.74,4.24-23.54-1.63-3.03.07-5.92-.39-9.26ZM604.14,444.82l-2.4-21.38c-4.4,6.86-1.51,14.21-.01,21.42l2.41-.04ZM646.95,427.18l-19.96-3.68c-1.05.29-8.59,11.46-8.42,12.47l28.38,5.64v-14.44ZM605.21,447.5l-.8-2.12c-.37.67-5.42,3.4-4.54,4.27l5.34-2.15Z"/>
  <path d="M729.36,242.1c-3.02,0-.88-5.07-1.68-6.34l-42.2-4.89v11.77c.68-.29,1.59.53,1.87.53h9.1c.25,0,3.07.36,2.94,1.06l-13.91-.53c-.12,2.19.19,4.45-.05,6.64-.06.52-.23,2.01-1.02,1.92v-7.76l-73.84,1.87c.2-.97,1.05-1,1.85-1.08,6.86-.75,14.05-.24,20.91-.49,16.35-.6,32.81-1.6,49.24-1.6l1.85-.83v-11.5l-83.48,3.47,83.48-4.54v-11.23l-84.55,4.81v14.18l-1.61.8V68.52l86.88-26.35,44.22,33.3v166.62ZM599.86,70.13v10.97l84.55-23.27v-11.77c0-.19-.63-.84-.57-1.32l-83.98,25.39ZM727.75,87.51v-10.97l-42.27-31.83v13.11l42.27,29.69ZM599.86,93.4l84.55-22.2v-11.23l-84.55,22.2v11.23ZM727.75,99.28v-10.43l-42.27-29.15v12.04l42.27,27.55ZM684.41,73.07l-84.55,21.4v11.23l84.55-20.33v-12.3ZM727.75,100.35l-42.27-27.28v12.04l42.27,25.41v-10.16ZM684.41,86.44l-84.55,19.79v11.23l84.55-18.72v-12.3ZM727.75,122.82v-10.43l-5.4-3.7-36.88-21.71v12.3l42.27,23.54ZM684.41,99.82l-84.55,18.99v10.43l84.55-17.92v-11.5ZM727.75,134.05v-9.9l-42.27-23.8v12.3l42.27,21.4ZM684.41,113.19l-84.55,16.58v12.84l3.21-.54-.32-2.69,2.34-.9c24.15-3.28,48.04-9.01,72.15-12.39,2.31-.32,4.79.17,7.16-.6v-12.3ZM727.75,135.12l-42.27-21.4v12.3l42.27,19.26v-10.16ZM684.41,127.1c-2.19.05-3.46-.69-3.77,1.85-.13,1.08.2,10.05.57,10.46l3.21-.54v-11.77ZM727.75,146.35l-42.27-19.26v11.5l42.27,17.92v-10.16ZM679.06,128.17l-74.38,12.3v41.72l74.38-7.49v-46.54ZM684.41,139.93l-3.75.54c-.02.37.54.66.54.79v10.97l3.21-.53v-11.77ZM727.75,157.59l-42.27-17.65v12.04l42.27,15.78v-10.16ZM602.54,143.14l-1.8.07-.87.73v7.76l2.68-.53v-8.02ZM599.86,153.04v10.43h2.68v-10.43c0-.11.8-.61.53-.8l-3.21.8ZM684.41,165.08v-11.5l-.78-.67-2.43.41v12.3l3.21-.53ZM727.75,168.82l-42.27-15.51v12.3l42.27,13.37v-10.16ZM599.86,164.54v11.23l2.6-.88.61-10.35h-3.21ZM684.41,166.68h-3.21s-.77,9.13-.77,9.13l-77.31,8.47-.3-7.44h-2.96v10.17l84.55-9.09v-11.23ZM727.75,180.05l-42.27-13.37v10.97l42.27,13.11v-10.7ZM684.41,178.98l-84.55,9.09v10.7l84.55-7.49v-12.3ZM727.75,201.45v-9.36l-42.27-13.11v12.3l42.27,10.16ZM684.41,192.36l-84.55,7.49v11.23l84.55-7.22v-11.5ZM727.75,212.68v-9.9l-42.27-10.43v12.3l42.27,8.02ZM684.41,217.5v-11.5l-84.55,5.62v10.7l84.55-4.81ZM727.75,213.22l-42.27-8.02v12.3l42.27,6.42v-10.7ZM727.75,224.98l-42.27-6.42v11.23l42.27,4.81v-9.63Z"/>
  <path d="M229.56,116.93c2.19-.32,4.78-2.3,6.83-2.58,1.26-.17,2.35.43,3.01.32.23-.04,2.85-2,3.88-2.47,15.47-7.11,30.98-15.07,47.01-20.45l129.38,22.63c2.07,1.04,4,2.42,5.91,3.72.71.48,7.16,4.95,6.25,5.78l-49.99-.03c-.27,3.46-2.35,2.93-4.51,4.65l.45,31.92c2.91,1.34.87,4.15,2.03,6.64l13.22,24.23,7.23,1.06c-1.69,5.04,1.06,10.06-.61,14.9-7.22,1.03-13.74,1.83-21.09,1.7-1.14-.02-2.17-.52-3.19-.55-7.51-.24-14.97-.44-22.47-1.07l-1.34-.8v-16.31l9.36-1.07,14.61-23.71c-3.04-4.08,1.18-4.84,1.18-5.17v-32.63l-2.2-.31.06-3.43-70.1.53-.23,6.99-9.4,2.64v109.66c-.35.04-1.07-.71-1.07-.8v-22.2l-6.42,2.95c-.3,1.27,6.17,4.98,5.93,7.46l-6.46,5.09c2.72-.37,4.56,1.92,5.34,4.28-2.13-1.4-3.42-4.24-6.41-3.75v3.75c-.35.04-1.07-.71-1.07-.8v-106.18c0-.09-1.07-.07-1.62-.76-.64-.82-3.22-5.6-3.55-5.68l-22.12-1.58v8.02l-20.82-1.65-.65-3.63-2.07-.08,2.14-2.13-6.42,1.6v-10.7ZM282.54,115.87c1.01-7.66,3.05-15.13,5.35-22.47l-46.55,20.87,4.02,1.06c10.71.34,21.4,1.7,32.1,2.17,3.64.16,2.08-1.22,3.48-1.94l1.6.31ZM338.73,114.25l-48.69-20.85c.56,7.08,4.27,13.59,3.74,20.86h44.95ZM341.13,113.72h63.95l-105.68-18.73c-.85.55.41.66.8.8,13.28,4.98,26,11.2,39.09,16.56.71.29,1.64,1.31,1.84,1.37ZM290.03,101.42l-1.6-5.88-1.61,6.41,3.21-.53ZM292.17,113.73c.25-4-.59-7.94-1.61-11.78l-3.77.78-1.57,7.25,5.88-3.2-4.28,2.93,1.67,3.95,3.68.07ZM286.76,110.58h-2.02s-.59,5.82-.59,5.82l3.23-1.98-.62-3.84ZM288.43,115.33v14.44h3.21c.26-4.85-.29-9.62-.54-14.45h-2.68ZM303.41,130.31v-12.57c0-2.94-8.43-1.57-10.7-2.41v14.44l10.7.53ZM333.38,121.75c.17-1.63,2.43-4.09,3.2-5.63.14-1.63-.58-.26-.8-.26h-7.76l3.75,6.95c.13.1,1.28-.82,1.6-1.07-.04.35.02.72,0,1.07h9.1s-3.22-7.48-3.22-7.48c-2.84,1.01-3.33,4.42-5.88,6.42ZM348.36,115.33h-8.56l4.01,7.5,1.34-.38,3.21-7.12ZM345.69,122.81c1.19-.07,8.57.36,8.55-.8l-4.01-6.69c-1.27-.31-4.87,7.19-4.54,7.48ZM359.6,115.33h-8.03l3.48,6.96,1.34-.38,3.21-6.58ZM364.95,122.28c-1.39-.92-2.51-7.33-4.01-6.95l-4.02,6.95h8.03ZM371.9,115.33h-9.1c.68,1.95,2.36,9.17,5,6.3,1.33-1.45,2.78-4.61,4.1-6.3ZM376.72,122.28l-3.48-6.94-5.08,6.94h8.56ZM382.61,115.33h-8.03l2.68,5.88c.51.36,4.83-5.17,5.34-5.88ZM378.32,122.28h8.56c-.8-1.89-1.63-4.52-2.55-6.27-.25-.48.13-.87-.92-.69l-5.09,6.96ZM393.31,115.33h-8.56l2.73,6.9c.79.08,2.17.39,2.68-.27,1.07-1.38,1.91-5.02,3.16-6.62ZM398.66,122.28c-.85-1.77-2.04-4.11-3.11-5.72-.37-.56-.56-1.37-1.44-1.24l-3.48,6.96h8.03ZM404.01,115.33h-8.03l3.21,6.59,1.34.38,3.48-6.96ZM401.33,122.28h9.63c-.88-2.84-4.36-4.2-5.62-6.96-1.05-.21-.67.25-.93.69-1.15,1.89-1.57,4.48-3.08,6.27ZM415.78,115.33h-9.1l4.57,5.35c.95.23,4.9-5.03,4.53-5.35ZM419.53,122.28h9.1l-8.26-5.92-3.51-1.03c-.41.49,3.53,5.36,2.67,6.95ZM237.06,115.86c-1.29.29-5.16,1.58-5.89,2.4-1.64,1.86.83,5.63-.53,7.76l6.42-1.6v-8.56ZM244.54,116.4l-5.88-.54-.54,7.48c1.53,1.16,7.01-6.4,6.42-6.95ZM311.97,115.86h-7.49c-.36,2.99.03,4.37,2.14,6.41l-2.13-1.06v2.14s2.88.04,2.88.04l4.61-7.52ZM318.39,122.82l-4.56-6.96c-1.22-.29-4.97,5.55-5.07,6.96h9.63ZM324.28,115.86h-9.1c.6,1.75,2.39,5.02,3.56,6.3.73.79,1.39,1.16,2.38.33l3.15-6.63ZM331.24,122.82c-1.55-1.05-3.7-7-5.09-6.99-1.6,0-3.7,5.63-4.55,6.99h9.63ZM248.29,123.35c-.89-2.05-2.18-4.11-2.15-6.42l-5.35,6.42h7.49ZM255.76,117.49l-9.07-.56c1.05,1.6,1.49,6.57,3.47,6.96.76.15,8.01.26,8.58.05l6.14-5.68-8.56-.8,1.34,5.88-1.9-5.86ZM416.85,116.93c-.93-.68-4.33,4.31-4.81,5.34h6.95s-2.15-5.34-2.15-5.34ZM270.23,125.49h8.29c.32,0,.78-.38,1.29-.03l.58-6.92h-13.38l1.6,4.81c-1.67-1.21-2.44-3.43-2.4-5.35l-6.16,6.41,9.25.43,5.19-5.24-4.28,5.88ZM255.79,125.49l-16.23-.55c-2.35,2.34,1.16,3.36.73,5.88l15.5,1.1v-6.42ZM293.78,133.52l-6.97-.28c-1.64,1.04,1.37,2.45,1.62,3.49l-2.68-1.6v7.49l5.88-1.6-5.35,2.4,6.42,7.49-6.96-6.15v8.56l2.67-.53-2.13,1.33,7.49,6.69v-27.28ZM285.75,154.91v10.7c2.74-.07,4.78-2.59,6.96-4.02.24-.94-6.1-5.29-6.96-6.68ZM292.71,181.66l1.06.53v-20.33s-6.42,4.29-6.42,4.29c1.12,2.2,5.89,4.86,5.94,7.22.03,1.33-5.33,3.3-6.48,3.74l5.88,4.55-6.96-3.74v9.09c2.7-.22,6.14-2.82,6.96-5.35ZM392.24,191.82l-14.73-25.71-1.6.57-14.17,22.74,30.5,2.4ZM285.75,176.31c1.32.31,6.95-2.65,6.95-3.48-2.29-1.88-4.16-5.11-6.95-6.15v9.63ZM293.78,195.56v-12.3l-6.93,5.14c-.19,1.07,6.06,5.67,6.93,7.16ZM291.3,194.84c-.54-.63-4.76-6.04-5.54-5.16l.54,10.7c1.55-1.01,5.34-2.12,6.17-3.73.69-1.35-.63-1.18-1.16-1.81ZM359,191.34c-4.1-1.02-6.6-1.61-5.82,3.69l5.89-.53-.06-3.16ZM368.43,195.56c-2.75-.15-5.55.11-8.29,0l.06,3.15,7.44,1.39-7.5-.27.03,3.19,38.5,2.17v-3.22s-12.57-.54-12.57-.54l-5.09-1.06,17.66.53v-3.22s-12.04-.54-12.04-.54l-7.76-1.06c6.61-.12,13.25.13,19.79,1.06v-3.75s-37.65-2.63-37.65-2.63c-1.26.36-.84,2.68-.87,3.71l10.17.53c.31,2.13-1.29.56-1.88.53ZM359.06,195.56c-1.95,0-4-.26-5.81.61l-.07,3.14,5.38-.77.51-2.97ZM292.71,207.33c-.75.76-5.82-5.31-6.69-5.88-.88.4.27,1.24.27,1.33v8.83c1.81-.47,4.11-1.61,5.57-2.75.8-.62.67-1.3.85-1.53.05-.06.93.25,1.08-.35.65-2.48-.5-7.53-.02-10.35l-6.42,4.56c-.34,1.47,6.51,4.98,5.35,6.14ZM359.06,199.84l-5.83.59-.05,3.69c1.85-.8,3.86-1.2,5.88-1.07v-3.21ZM358.53,204.66h-5.36v1.6h5.36v-1.6ZM393.84,206.27l-34.25-1.61c-.65,2.01,1.69,2.04,3.46,2.16,8.15.56,16.98.18,25.19.53l5.59-1.09ZM293.78,219.64v-11.23l-6.42,4.02c-.16.68,5.19,6.64,6.42,7.21ZM286.29,223.38l6.41-3.48c-.88-.62-6.2-6.91-6.94-6.15.5,3.12.36,6.37.54,9.62ZM286.29,224.45v9.9s-1.29,1.26.26.79c.98-.3,5.66-3.6,5.66-4.53l-5.92-6.16Z"/>
  <path d="M252.57,208.14c-.78,2.77-11.4.65-13.92.8l-.53,4.28,22.21,1.07,1.34.8v21.13c3,.26,5.04-.6,7.69,1.16,1.1.73,4.87,3.3,6.02,3.53.65.13,1.58-.55,2.34-.41-.55,2.01,2.68,3.54,2.16,6.14-.03,1.59-.65.58-.96-.12-.5-1.1-1.14-3.65-2.27-4.18-.61-.28-1.33.24-1.79.13-.92-.22-1.23-1.39-1.95-1.71-1.05-.48-2.49-.02-3.24-.52-.5-.34-.27-2.17-2.14-2.68s-1.98.6-3,.7c-.78.08-1.72-1.37-2.85-.98v67.93l-108.09,4.82.05-42.57-1.12-1.02c1.74-1.36.93-3.68,1.06-5.62l-3.21,2.4c-.14-1.42,3.1-2.8,3.23-3.31.29-1.2-.21-3.1-.01-4.44l-13.91,12.56c1.71-3.35,12.97-11.19,13.81-14.01.35-1.19.02-2.66.1-3.9l-2.68,1.87c1.33-2.4,3.85-3.33,2.42-6.68l-10.98,11.49,10.75-12.79.49-4.05-11.77,12.03,11.67-13.48.16-9.03-1.12-1.02c1.97-3,.6-8.15,1.12-11.81l-1.12-1.02,1.07-1.87c-2.28.05-4.61.52-5.62,2.67-.86-.38,1.23-1.75-.52-1.6-.99.09-7.88,1.74-8.47,2.1l-7.6,8.05c-.87-.53.18-1.18.53-1.61,1.72-2.05,4.11-3.63,5.62-5.87l-11.8,2.38-1.55,6.68c3.35.14,5.69,3.65,5.83,6.79.04.92-.7,3.16-.5,3.38.08.08,1.33-.02,2.16.79,2.38,2.29.72,7.32-1.59,9.2-.14.79,3.04,2.27,1.99,6.77-.28,1.19-1.57,2.1-1.75,2.98-.2.99.49,2.4.15,3.97-.5,2.33-3.64,3.64-5.71,4.19-1.97,2.8,4.22,4.69,6.08,5.02,2.61.46,4.17-1.5,6.6,2.23,2.16,3.31.09,3.68.26,5.27.05.48,1.06.94,1.32,1.71.29.84,1.58,6.22,1.8,6.49.72.88,4.14.21,2.05,4.89,1.42.17,3.75,1.04,4.18,2.53.49,1.68-.52,2.81-.46,3.58.02.28,1.95.32,1.65,4.35-.35,4.75-2.45,3.39-5.14,5.03-4.43,2.7-6.12,6.21-12.54,4.84l2.41-3.74c1.69-.71.05,2.48.26,2.67,2.21-.06,6.6-.9,5.34-3.73,1.98.6,3.72-2.41,4.61-2.57.78-.14,1.95.86,2.89.18,1.27-.76,1.22-4.2.99-5.57l-2.6-.62c-.18-.17,2.45-2.62,1.04-4.48s-4.01-.09-4.58-2.44c-.16-.66,4.43-4.98-2.35-3.23l1.06-3.44-2.66-1.64c2.95-2.15-1.08-4.05-1.12-4.33-.17-1.12,1.47-1.91,1.02-4.1-1.1-5.38-5.8-1.72-7.07-1.95-.48-.09-.46-1.13-.85-1.38-.86-.53-1.95-.1-2.85-.39s-1.42-1.7-2.24-1.5c-2.17,3.83-7.76,6.15-11.25,2.69-1.55,1.76-1.67,3.94-3.83,5.26-3.39,2.06-6.56.4-9.44,1.26-1.19.35-2.32,2.65-3.72,3.23s-2.9.13-4.14.68-2.21,2.84-4.68,3.35c-5.27,1.08-5.85-2.51-6.38-2.59-1.23-.2-4.27,1.88-6.07,1.11l6.14-2.7c1.72.15,1.3,2.17,2.28,2.71,3.87,2.14,9.04-2,8.17-6.42,1.92-.43.81,2.1,1.07,3.21,1.8,1.76,8-4.41,8.03-6.42,1.38.14-.81,2.08.87,2.59,3.09.93,7.48-.69,9.2-3.49,1.11-1.82.83-3.41,1.96-4.98,1.42,4.88,7.35,4.4,9.9.79,1.76-2.49,1.07-3.08,0-5.61,4.26,1.99,11.27-4.57,4.82-6.69.54-1.16,3.59-.02,4.17-3.89.39-2.6-1.58-5.28-4.17-4.94-.25-1.8,1.7-1.35,2.65-1.9,2.72-1.56,3.43-9.61-1.57-7.2.53-3.32,1.91-5.39-.29-8.53-2.15-3.08-6.96-3.29-9.86-1.34-1.45.97-.42,2.65-2.16,2.39l.53-2.67-2.14.27c.88-.99,2.82-1.3,2.67-2.94l-4.27,1.07,4.3-2.5-.04-2.82-2.64-.83c-.4-1.05.94-.63,1.07-1.14.2-.85.13-3.69-.26-4.47-2.6-2.93-4.53-.16-7.23.54,3.26-6.22.52-10.02-6.42-8.02l.46-3.36c-.49-1.24-1.96-1.96-3.17-1.2-.56.36-.09,1.83-1.57,1.35,2.38-7.1.4-9.22-6.96-7.49-.07-.64,1.74-1.26,2.13-1.34,4.87-1,8.12,1.01,6.43,6.15,3.18-1.15,4.82,1.11,4.28,4.29,5.67-.81,8.15,1.12,7.5,6.95,8.09-3.15,5.04,6.4,5.39,6.88.13.18,1.12.32,1.57.85,1.99,2.3.39,4.11.52,6.72l5.86-1.09.03-6.93c9.79-.82,20.05-5.62,29.7-6.41,11.23-.93,25.9,1.2,37.43,1.62,21.44.78,42.82,1.33,64.26,2.1,1.69.06,3.33.84,5.06.55v-1.6c-5.41-.91-10.89-.26-16.35-.51-21.95-1.02-43.81-2.5-65.77-3.25-6.76-.23-15.48-1.04-21.98-.53-10.44.81-21.88,5.81-32.36,7.25-1.17-.95-.02-.9.98-1.18,9.48-2.64,19.36-4.58,28.99-6.6l-.54-3.74c-4.31.3-8.88-.93-13.1-1.08-1.23-.04-3.86,1.52-4.47-.34l.46-59.83c5.97-3.34,12.56-.88,19-.27,29.51,2.81,59.44,4.76,88.82,8.57,2.87.37,6.46.51,8.83,1.87v52.42ZM250.97,207.87v-51.08l-109.16-11.5v58.31l109.16,4.28ZM140.2,145.82l-3.21,1.07v58.31l3.21-1.07v-58.31ZM234.38,208.93c-17.41-1.05-34.76-1.16-52.2-1.58-1.27-.03-2.44-.55-3.7-.58-2.49-.05-18.08-.32-18.9.15-.16.09-2.26,2.5-2.27,2.8l76.75,3.49.31-4.29ZM260.07,217.5l-104.88-3.74v94.68l104.88-4.28v-86.66Z"/>
  <path d="M831.02,459.28l-3.92,2.23-46.38,18.9,45.92,10.82,1.16,1.21-46.42-11.09-3.02-.1-66.68,26.97-.53.8,55.89,14.44c17-7.65,33.65-16.27,50.77-23.62.89-.38,4.74-2.57,4.11-.45l-52.43,23.82-.54.79,17.65,5.35-20.46-4.71-61.13,28.79,60.19-28.9-.93-.93-55.45-14.43-66.15,27.67c-.16.72.56.6,1.07.78,11.79,4.16,25.33,6.76,36.81,11.38.81.33,1.45-.31,1.17,1.2l-40.4-12.32-37.72,16.07,35.85-16.57-94-28.22-38.16,13.24c-.26-1.4.26-.94,1.06-1.32,9.99-4.65,23.45-6.91,33.47-11.5.53-.24,1.26-.33,1.32-1.08l-73.14-21.79-31.73,9.47c.4-.95,2.39-1.42,3.33-1.75,8.24-2.9,16.88-4.94,25.27-7.37l1.37-1.04-58.33-17.13.26-1.05,133.84,40.08,2.91-.21c21.29-7.78,42.77-15.06,64.19-22.49.7-.24,1.41-.3,2.14-.27l-60.73-17.13,156.77,40.17,121.74-48.71ZM707.41,508.49l-92.26-23.51-68.27,23.77,94.43,28.06,66.11-28.32Z"/>
  <path d="M537.79,479.07v14.98l3.74-.53c1.4,1.22-3.91,2.54-4.6,2.61-3.72.38-7.57-1.31-10.91-2.88,1.45-1.32,3.13-.22,4.81-.26v-14.18c0-.16.74-.75.53-1.33l-63.14-13.38v8.83l4.28,1.07c-5,2.7-9.34,1.69-14.44.26.47-2.14,4.1-.33,4.28-.53l-.02-11.21-8.59-2.38-.52-49.2c.09-.34,5.93-2.35,6.64-2.31,1.1.06,2.68,1.07,3.98,1.3,18.52,3.25,37.16,6.09,55.66,9.09,7.2,1.16,16.44,1.8,23.24,3.51,1.02.26,2.66.71,3.39,1.42,2.03,1.98.04,46.98.78,53.26-.42,2.21-7.13,2.87-9.1,1.87ZM543.14,478v-51.08c0-.12-.52-1.07-.68-1.2l-86.32-14.56c-2.58.05-.78,7.36-.73,9.31.3,11.2.19,23.06,0,34.28-.03,1.57-1.28,3.43.2,4.57l87.53,18.67ZM545.28,425.58h-1.07v51.35h1.07v-51.35ZM463.94,463.02v11.23l3.18-.56c.03-3.35.1-6.74-.03-10.07l-3.15-.6ZM536.18,494.58v-15.24l-4.01-1.35c-.83.29.26,1.21.26,1.35v14.71l3.75.53Z"/>
  <path d="M483.2,390.81c-.15.72-1.67,1.37-2.32,1.69-13.18,6.59-24.7,11.89-37.23,20.02-14.26,9.24-45.85,33.17-53.45,47.66-6.47,12.33,4.04,20.1,13.64,25.74,49.58,19.29,99.88,36.87,149.6,55.86,9.02,3.45,18.94,6.91,27.67,10.86.91.41,2.51.46,2.16,1.84l-177.31-66.4c-9.58-4.27-22.4-13.64-18.01-25.6-3.89,4.28-5.61,7.7-3.46,13.36,3.8,10.03,17.62,15.46,26.88,19.13,45.8,18.13,95.04,33.09,139.78,53.38.55.25,5.32,1.95,4.29,2.92-27.87-11.18-55.81-22.32-83.87-33.03-21.97-8.39-46.72-15.6-67.92-25.18-7.72-3.49-17.38-8.54-19.98-17.21-1.11.42-.49,3.42-.29,4.31,2.8,12.52,32.59,22.91,43.66,27.5,32.05,13.29,64.78,25.01,96.84,38.27v1.06s-110.59-43.77-110.59-43.77c-14.13-6.73-37.61-14.76-30.27-35.26,3.23-9.01,22.92-27.4,30.62-34.12,15.56-13.56,34.05-26.41,52.44-35.84,5.3-2.72,11.39-5.81,17.13-7.21Z"/>
  <path d="M573.64,359.78v45.47c-.46.6-4.97-1.33-4.28.26.14.31,4.39,4.53,4.85,4.78,2.11,1.17,5.57.17,5.3,3.52l-2.13-1.07c-.15.14-.1,3.29-1.64,2.99l-9.34-4.58c-.58,1.87-2.57,4.95-2.45,6.67.08,1.25,1.96,4.88,2.46,6.69.7,2.58,1.56,5.73,1.8,8.36.48,5.25-.35,10.52-.23,15.75.3,3.66,5.08,2.37,5.65,5.31-2.01.54-9.8,2.27-10.98,1.09-1.46-1.46-.61-11.87-1.39-14.66l-1.54-6.21c-1,5.62-3.11,10.49-3.04,16.35.19,1.12,4.42,1.95,3.57,3.98h-8.29c-.48,0-2.16-2.1-.81-2.96.86-.54,3.74,1.28,4.28-.25-6.31-.51-3.66-1.96-3.72-5.65-.16-10.06.17-19.18-.67-29.27-.1-1.26-1.24-2.93-1.45-4.45-.32-2.37.21-4.97-.12-7.37l-.81-.8c-2.67-.37-6.17-.05-8.22-1.95v-44.4c0-.27.88-.88,1.33-.82l31.84,3.23ZM572.03,360.85l-29.97-2.67v43.33l7.49,1.07-.58-3.69-4.23-.58v-36.91l24.08,2.14v32.09c-.35.04-1.07-.71-1.07-.8v-30.22c-2.98-.08-6.18-1.97-8.02,1.07l.53-2.14-13.34-.86-1.08.58-.05,33.65,3.78.87c-.27-5,1.08-6.58,5.66-8.02,0-2.15-.82-5.02-.2-7.12.35-1.2,2.55-1.96,2.57-3.58h.52c.15,1.95,3.33,1.6,4.8,2.96,2.8,2.6-.13,7.32-2.63,9.07,1.38,1.89,3.6,2.19,5.04,4.04,1.88,2.43,1.79,5.51,3.21,8.06l3.51.46v-42.79ZM558.13,389.2c4.82,1.98,6.94-6.92,1.28-7.49-5.83-.59-2.1,7.02-2.32,8.24-.02.12-2.52,1.19-.02,1.16.38,0,1.01-.47,1.59-.31l-.53-1.6ZM575.77,414.88l.32-2.71c-7.78-2.18-8.31-9.79-11.16-15.6-1.62-3.29-6.79-5.32-10.32-5.15-3.68.17-3.76,3.67-3.98,6.62-.25,3.35-.08,15.99,2.14,18.18.83.82,9.69,1.76,10.14,1.32-.59-2.33,2.57-4.86,2.49-6.67-.07-1.67-3.69-3.77-4.32-5.63-.48-1.43-.3-2.79-.29-4.25l2.01,4.67c3.2,4.37,8.01,7.29,12.97,9.23ZM562.94,441.89c.26,2.82-.19,5.97,0,8.83l4.29-.28c-1.49-10.55,1.26-21.44-4.12-31.3l-10.87-1.06,1.56,9.94-1.25,21.68,2.9.48c-.59-6.15,4.12-14.07,2.98-19.83-.52-2.6-2.66-5.25-2.97-7.99,2.21,1.54,3.18,4.88,4.14,7.35,1.37,3.54,2.99,8.42,3.34,12.17ZM571.5,452.86c-3.04-1.27-5.41-.81-8.56-.54.52,1.86,1.08,1.79,2.94,1.6l-.27-1.07c1.38.15,2.58.5,4,.56.59.02,2.03.33,1.89-.55Z"/>
  <path d="M753.44,68.26h2.14v18.45c0,.31,1.6.91,1.87,1.34,1.39,2.26-.47,20.27.24,24.28l3.74,1.73-.35,29.28,4.14,1.94v47.07h12.58c.46,0,4.32,2.18,5.08,2.67v-20.86h16.86l9.36,8.29v40.39c-2.07-1.06-.46-3.78-.51-5.11-.05-1.29-.55-2.42-.58-3.7-.26-10.48.32-21-.08-31.48l-8.46-6.79v51.35h-1.07v-51.89h-14.45v42.79c-.94.12-.51-1.21-.54-1.87-.27-6.56-.32-13.14-.64-19.69-.47-1.55-4.05-2.58-5.51-3.05-1.02-.01.31,7.84.31,8.83-.01,1.25-.59,2.44-.6,3.72-.03,3.39.16,6.81.02,10.19-.03.66.41,1.99-.54,1.87v-24.61h-11.24l.2,11.3-.74,4.75v-61.78c0-.42-1.19-1.76-1.75-2l-11.09-4.69v77.03h-.54v-20.86h-7.49v-.53h7.49v-4.82c-2.33-.32-4.48.22-6.74.5-1.06.13-.77-.13-.76-1.03h7.49v-50.28l-9.63,1.07v75.15c0,.4-.87,1.57-.54,2.4h-.53s0-78.63,0-78.63h3.21v-30.49h4.28v-26.21h3.75c.52-.52-.34-12.51-.03-14.74.18-1.25.95-1.9,1.13-3.15.96-6.86-.77-15.92-.03-23.03l.54-1.87v26.75ZM752.37,69.33v15.24c0,.22,1.71,1.8,2.14,1.33.96-5.46.39-11.06.54-16.58h-2.68ZM756.65,112.12v-23.27c-2.23-1.5-4.65-3.81-7.49-3.48v25.68l7.49,1.07ZM752.9,112.12l-8.03-.53v28.89l8.03-.53v-27.82ZM760.39,114.26l-6.42-2.14c-.16,7.21.19,14.47.02,21.69-.05,2.01-1.21,4.07-.28,6.12.72,1.58,4.9,3.02,6.68,3.22v-28.89Z"/>
  <path d="M334.98,326.08v8.56l5.35.26c-.7,1.19-2.34.48-3.09.94-.29.18-.3,1.15-.99,1.39-3.01,1.06-7.21-1.37-10.37-.99l4.28-1.07c.26-.21-.54-.68-.54-.8v-7.76l-44.41,3.21v11.77l2.14.53c-4.38.83-8.31,2.52-12.84,1.07l5.35-.53c.26-.19-.53-.68-.53-.8v-11.5c-3.32-.58-7.39,1.49-10.17-.8v-45.47c0-.09.83-.94,1.08-1.06,16.26-.83,32.65-.59,48.98-.79,1.26-.02,2.44-.56,3.7-.58,2.85-.05,17.05-.41,18.49.29.79.38,1.09,1.28,1.09,2.12-.93,11.97,1.19,25.63-.09,37.4-.08.77-.52,3.55-.96,3.85l-6.46.76ZM340.87,283.29l-67.96,1.6c-.37,14.67.56,29.24.54,43.87l67.43-4.82v-40.65ZM271.84,329.29v-44.13c0-.09-.72-.84-1.07-.8v44.13c0,.09.72.84,1.07.8ZM333.38,326.08h-2.14v8.56h2.14v-8.56ZM283.08,329.83c-.62-.22-2.14.24-2.14.8v11.5h2.14v-12.3Z"/>
  <path d="M42.81,262.96c-.36-.81-1.8-5.27-2-6.29-.11-.58-.65-2.81.39-2.8.38,1.53,1.08,2.98,1.78,4.39,2.46,4.96,5.36,10.72,8.81,15.79,3.44,5.06,7.06,9.68,11.89,13.52v-19.52c0-4.54-3.43-8.83-5.03-12.63-1.76-4.17-6.55-19.53-11.38-20.22l-.73.18c-1.25,2.83-3.48,3.31-5.87,1.37-.09,4.67-3.72,4.63-6.71,6.4-2.95,1.76-5.97,3.6-8.55,5.9-.4.08-.36-.56-.26-.79.31-.72,4.72-3.84,5.71-4.46,2.87-1.79,8.13-2.96,8.64-6.39.22-1.46-.82-2.44.36-3.32,3.07,4.85,6.98,2.72,5.09-2.68l2.14.31,1.6-4.59,4.28,2.14-.27-3.2c.94,2.88,2.87,5.85,6.41,5.38,2.44-.32.21-2.17.28-3.78,1.55-.13,2.11,1.44,2.18,2.62,3.11.52,4.34-2.64,6.37-4.23-.65,5.26-8.03,6.92-12.3,5.89l1.08,3.74,1.59-1.07c-.73,1.86-1.18,2.37-1.07,4.53.31,5.6,2.28,12.71,4.29,17.93l.8-1.07,1.07,2.14.79-1.07.53,4.27c.65-4.44.78-9.01,1.39-13.43.23-1.65,1.34-3.89,1.3-5.57-.06-2.99-4.31-6.94-3.75-10.41l3.73,6.95v-5.88s1.6,1.06,1.6,1.06l1.62-8.02.53,3.74,7.49-3.2-2.13,2.94,2.13,1.87c-1.44.11-2.64-1.58-4.01-1.56-4.49.06-4.54,5.11-5.37,8.5l.28,5.36c2.87-8.5,11.07-12.31,17.13-18.18l-.53,2.14,3.74-.53-1.6,1.59,2.62.6c-1.17,5.7,5.48,10.99,5.41,2.62h1.6c-1.31,9.61-8.83,5.7-8.07-2.09l-4.77-1.42c-2.59,2.91-5.87,4.66-8.57,7.51-.76.8-4.5,5.26-4.8,5.91-.11.23-.14.88.26.79,2.08-1.96,3.67-4.66,5.61-6.7.41-.43,1.23-1.5,1.08,0l-9.1,11.82-1.59-.31c.21,4.35-1.76,8.97-2.14,13.11-.41,4.45.31,9.39-.01,13.9-.28,3.86-1.69,7.6-1.59,11.51.83-.13,1.01-1,1.32-1.61,7.4-14.49,11.19-31.13,24.72-41.62,2.88-2.23,7.35-4.89,10.88-5.44-3.77,4.19-10.64,5.08-13.91,10.15,2.73-.49,5.28-2.02,8.02-2.46,1.34-.22,2.45.59,3.75-.21l-3.19,4.01c3.72,5.02,8.44.67,11.76-2.41.25,2.2-3.26,3.64-1.89,5.89,1.53,2.5,6.34-.3,6.71,0-2.08,3.31-8.19,2.9-8.29-1.61-2.04,1.34-3.51,1.73-5.08,3.74l1.06-2.13c-1.44.22-4.86-1.08-5.28-2.52-.57-1.57.89-2.22,1.54-3.36-1.83.82-4.21.76-5.9,1.32-6.25,2.08-11.66,12.53-14.54,18.09-2.83,5.48-5.5,10.97-7.11,16.96-2.23,1.55,1.57-3.91-.27-3.75-.48,1.43-3.3,9.91-4.06,10.15-1.73.54-5.49-4.89-6.65-6.14-3.95-4.23-12.78-15.08-14.98-20.06-.04.98.37,1.04-.68.96-2.28-.18-4.61-1.28-6.82-1.78-1.38,1-5.93,6.73-7.22,6.74s-4.29-5.06-.26-3.78l.27,3.21,7.23-6.42-6.95-8.01c5.37,2.2,7.8,9.19,14.45,9.09ZM57.79,249.59c-.86-3.98-1.5-16.57-4.29-18.97-.48-.41-2.92-1.41-3.41-1.29l-3,4.74c4.13.95,6.32,4.8,7.5,8.56l1.06-2.13.13,3.88,2.01,5.2Z"/>
  <path d="M6.96,416.48c.49-1.13,2.01-1.59,3.06-2.01,18.27-7.44,37.81-11.5,56.53-19.99,13.75-6.24,46.07-21.89,40.22-41.12l-2.41-4.27c3.32,20.56-22.78,33.35-38.34,40.58-16.27,7.56-40.59,16.51-57.95,20.7-.9.22-1.79.31-2.71.23.49-1.1,2.18-1.43,3.24-1.84,26.23-10.14,71.65-19.71,89.86-42.3,7.19-8.92,7.35-22.57-4.26-27.54,6.26,14.47-10.97,24.9-21.83,30.34-15.33,7.67-33.45,13.24-50.41,15.66l27.71-7.87c11.84-3.97,42.91-15.67,44.53-29.84.35-3.08.19-6.89-1.91-9.33-2.54-2.96-11.92-6.86-15.78-8.3-1.93-.72-4.74-.51-5.86-2.42.94-.05,1.88-.05,2.81.12,6.49,1.19,23.78,10.79,28.2,15.67,23.87,26.34-20.81,46.84-40.13,55.06-17.66,7.52-36.08,13.28-54.56,18.47Z"/>
  <path d="M192.79,338.24c.37.3,1.29.13,1.71.67.9,1.16,1.24,9.63.48,10.23-8.19,2.52-17.57,3.42-26.18,3.18-1.96-.05-4.2-1.72-3.99,1.58,2.99-.16,5.84,1.02,8.8,1.1,6.26.17,12.36-1.92,18.48-2.7.26,1.48-.31.9-1.17,1.2-5.22,1.84-14.97,3.05-20.43,2.47-2.13-.23-5.9-1.95-7.12-1.96-.99,0-1.38,1.22-3.51.85-3.39-.59-3.5-3.98-4.66-6.6-3.13.29-10.72-3.94-12.99-3.36-.4.1-2.76,1.47-3.08,2.04,3.63.05,7.79.42,11.34,1.24,1.04.24,2.69.24,3.11,1.44l-22.47-3.75c-.11-.93,1.85-.58,2.4-.52,1.74.2,3.33.98,5.09,1.06-.82-1.1-2.17-1.07-3.22-2.39-1.18-1.48-.98-2.83-1.6-4.15-.29-.61-1.27-.59-1.51-1.28-.45-1.29-.23-8.85.51-10.04,6.49-3.93,12.94-9.48,21.1-7.79,8.28-.88,17.5.37,24.28,5.64,1.96,1.52,3.78,4.28,5.74,5.49,1.82,1.12,4.72,1.62,6.58,3.05,1.5,1.15,1.79,2.87,2.32,3.3ZM168.56,323.41c-6.08-1.31-13.31-2.32-19.53-1.61-1.68.19-15.03,6.69-15.53,7.47-.35.55-.28,1.02-.25,1.62l4.27-.8-4.23,1.39c.25,2.59-1.21,6.63,1.55,7.97,1.53-10.33,8.94-2.28,8.09,4.23l12.25,3.27c-.16-4.55.73-6.67,5.51-4.7,3.76,1.55,2.95,5.96,4.67,7.64,3,2.92,19.67.48,24.21-.4,2.72-.53,5.43-.72,4.68-4.14-.49-.55-3.3,2.2-3.74.54l3.68-1.14-.48-5.29c-2.73-.38-2.84,3.32-2.67,5.35l-.54-3.74c-2.54,1.51-1.44,4.58-1.07,6.95l-1.07-2.14-8.78,2.07-.77-.82-.61-5.53c2.93,1.33,13.37.54,13.4-3.48.01-1.67-6.78-4.95-8.34-5.06-3.29-.23-11.77,2.4-16.03,2.64-7.62.44-8.85-3.05-10.95-9.59l12.29-2.69ZM181.94,332.5c.28-1.05-.44-1.03-.9-1.5-1.22-1.24-6.59-5.55-8.04-5.87-4.49-1-11.07,1.08-15.67,1.5-.55.62,4.11,7.59,5.18,7.92,4.1,1.26,14.47-3.03,19.43-2.04ZM141.27,342.13c-1.35-14.23-10.55-.77-1.88,3.21,1.79-.37.54-7.74-2.39-6.96.45-1.38,1.8-1.43,2.7-.28l1.58,4.03ZM188.36,342.13c-3.02.94-5.9,1.3-9.09,1.07l.53,3.74c3.74-.59,8.67.17,8.56-4.82ZM163.2,352.29c1.15-4.02-.88-9.99-5.91-9.4l-1.03,5.13c1.9-1.92,1-5.05,4.78-2.91l2.16,7.19ZM160.5,345.35c-4.32.15-3.57,9.14,1.1,8.54.04-3.04.33-5.77-1.1-8.54Z"/>
  <path d="M524.94,132.71l6.93-1.9c.43-1.72-.88-7.24.93-7.9,2.37-.87,14.61-3.35,17.02-3.35,3.06,0,19.86,4.53,20.6,3.79l.27-6.42c1.73,1.14.22,6.15.86,6.9l5.78,1.18.12,6.83,9.56,2.21v82.91h-1.07v-81.57l-34.25-7.22v100.3c0,.32-.75,1.21-.54,1.87h-.53s0-102.7,0-102.7l-24.64,5.7.05,81.78-1.09,6.66v-89.06ZM549.02,120.68l-15.98,3.28-.07,6.35,16-3.79.05-5.83ZM576.32,125.49l-26.76-4.81.63,5.79,25.86,5.44.26-6.41Z"/>
  <path d="M450.98,335.84c.82.8,1.41,9.78,1.08,11.26-.59,2.63-2.83,1.84-3.51,2.64-.57.67-.91,4.24-2.79,5.22,1.87-.03,3.27-1.24,5.13-1.55.54-.09,1.97-.43,1.82.48-3.26.35-9.66,4.28-10.17-1.07-4.01,1.41-8.19,2.77-12.31,4.01-1.12.34-4.6.68-4.77.85-.53.51-.01,5.51-4.58,5.6-2.78.05-2.19-2.53-3.29-2.93-.71-.25-4.78.55-6.37.51-4.46-.11-11.94-1.02-16.43-1.76-6.32-1.04-10.05-1.54-7.61-8.94,2.61-7.92,5.27-5.88,10.55-9.64,2.37-1.68,4.7-5.18,7.18-6.87,7.82-5.31,26.04-5.7,34.71-2.78,3.1,1.04,4.95,2.84,7.36,3.88,1.16.5,3.31.41,4,1.08ZM450.56,348.01v-9.9c-12.02-9.43-28.56-9.89-42.41-4.41-.57.22-1.59.16-1.47.93,5.75-.22,11.45.25,17.12,1.08.14.12-.29.71-.53.81-.75.33-6.78-.79-8.28-.84-6.77-.23-11.81-1.03-15.81,5.37l19.65,3.63c1.75,0,3.99-6.19,5.54-7.6.93-.84,7.02-4.34,8.4-4.98.67-.31,2.18-1.07,2.8-.41-2.31,1.88-5.86,2.93-8.2,4.64-3.38,2.46-6.27,7.68-8.48,11.31-1.9,3.12-2.59,7.76-7.17,8.34-5.63.72-6.19-3.89-1.83-6.11,3.17-1.61,8.12-.52,9.1-4.54l-20.61-3.23-7.21,2.7,1.63,4.27c2.38-1.02,4.22.61,6.72,1.02,2.15.35,5.02.34,7.17.06l-3.58,5.24c-5.17.13-10.44-1.17-15.41-2.58-.97,2.54.21,3.31,2.39,4.03,3.78,1.26,18.62,3.03,22.72,2.94,4.91-.11,3.69-1.04,5.17-3.97,3.22-6.4,7.21-7.6,8.27.77l15.98-4.77c.65-3.67,1.13-10.37,6.5-8.13l1.83,4.32ZM444.73,345.93c-.8,2.38-2.16,5.78-.32,7.95,3.16-1.38,3.44-4.41,2.71-7.51l-2.39-.45ZM391.16,346.41c-1.25-.27-.86.17-1.19.69s-2.06,4.07-1.99,4.36c.8,1.08,3.83,1.85,4.83,1.14l.49-2.44-2.67,1.6c2.24-2.05,1.24-2.8.53-5.34ZM417.39,349.09c-2.12.42-11.57,1.55-8.86,5.38.62.88,3.97.6,4.78.01.54-.39.54-1.88,1.15-2.72.76-1.04,2.46-1.35,2.94-2.67ZM404.54,351.23c-2.55,1.26-12.31-3.81-10.73,1.82,3.81.95,9.93,3.88,10.73-1.82ZM423.81,352.3c-3.76-.31-5.56,4.29-5.34,7.48l2.43-5.32,2.92-2.16ZM423.13,361.24c1.35-1.23,1.83-7.35.41-7.33-.51,0-1.7.66-.93,1.49-2.22.88-1.79,3.84-2.42,5.74.18,1.17,2.21.76,2.94.1Z"/>
  <path d="M514.24,312.17c-70.02,8-139.47,19.86-208.06,35.67-17.23,3.97-34.21,10.45-52.26,9.26-19.64-2.6-38.55-9.06-57.53-14.44-.02-1.03,2.24-.52,2.81-.4,16.53,3.4,33.94,11.35,50.97,13.24,20.06,2.22,36.77-4.54,55.8-8.93,68.15-15.71,136.82-27.56,206.39-35.5l1.87,1.11Z"/>
  <path d="M485.88,155.45c6.52-1.12,13.23,1.89,19.74,2.73l-.48,8.5,5.89,1.34v42.53c3.18-.21,6.71-.94,9.91-.54.98.12.86-.18.79,1.07h-10.7v12.57c0,.32-.75,1.21-.54,1.87h-.53s0-57.23,0-57.23l-20.33-2.14v80.77h-1.07v-80.77l-21.94,3.21v87.46c0,.32-.75,1.21-.54,1.87h-.53s0-89.86,0-89.86l5.81-1.14.07-9.56,13.92-2.14v-15.51h.54v14.98ZM503.01,164.01c.54-.02,1.07.02,1.61,0l-.51-5.11-14.47-2.92.52,5.63c3.95,1.4,8.56,1.05,12.52,1.86.49.1.31.53.33.54-4.6.15-8.89-.78-13.37-1.6l.03,2.65,14.95,1.63-.07-2.09c-1.14.31-1.45-.55-1.53-.58ZM488.56,156.51l-16,2.73-.05,4.76,16.05-2.14v-5.35ZM488.55,162.4l-16.05,2.14v3.21s16-2.73,16-2.73l.05-2.62Z"/>
  <path d="M469.83,364.06c.24,1.36-.21.96-1.07,1.31-4.94,1.99-10.96,3.28-16.18,5.24-80.24,30.16-149.7,86.07-192.6,160.51-2.82,4.89-4.91,10.51-8.46,14.8,4.31-10.34,10.32-20.42,16.36-29.91,41.56-65.21,104.23-114.26,175.76-143.12,8.53-3.44,17.2-6.79,26.2-8.84Z"/>
  <path d="M110.77,298.79c3.3.78,3.21,5.54,3.2,8.26l1.35.32,5.36-7.5.52,2.66c2.17-1,5.42-3.42,5.47-6.05.03-1.43-1.99-2.51-1.44-3.03.72-.68,3.16,2.11,2.68,3.21l3.2-2.14c-.26,2.31-2.8,2.63-3.57,3.38-1.2,1.16-2.1,2.93-3.67,4.09-2.03,1.48-3.98,1.41-5.36,2.66-2.44,2.21-2.81,5.59-3.45,8.58,18.04,1.76,36.26,2.1,54.31,3.75,27.95,2.56,57.82,6.39,85.53,10.78.88.14,3.22.2,3.56.98-9.14.14-18.09-2.02-27.09-3.14-52.78-6.51-105.62-11.29-158.84-12.93l-1.36-1.04,42.81,1.6c-.57-1.03.3-2.94-.1-3.63-.12-.2-1.01-.36-1.42-.97-.96-1.44-1.43-2.85-2.74-4.24-.89-.94-5.02-3.58-5.37-4.27-.43-.85.31-.95,1.12-.58,2.48,1.13,4.68,4.11,6.9,5.67.33-2.74-.66-5.96-3.74-5.61l6.95-8.29-4.81,7.48Z"/>
  <path d="M470.36,371.02c.27,1.38-.3.93-1.04,1.34-5.49,2.97-13.62,5.4-19.65,8.19-65.98,30.59-125.51,82.93-159.3,147.79-2.59,4.97-4.8,11.32-7.55,15.99-.34.59-.54,1.47-1.34,1.59,5.22-14.53,13.1-28.43,21.5-41.35,27.88-42.9,65.1-78.07,108.57-104.9,18.4-11.36,38.37-21.53,58.81-28.66Z"/>
  <path d="M471.48,284.84c.5.72,3.36,1.13,3.16,4.03-.03.5-4.05,8.14-4.58,8.83-3.19,4.17-7.34.41-10.69,2.68-2.17,1.47-1.23,4.6-1.99,5.78-.2.31-1.15.32-1.39.99-.34.97.02,2.36-.08,3.42.61.62,5.28-1.99,4.81.53l-11.23,1.07c.42-1.58,5.14-1.41,5.34-1.6.24-2.56-.25-5.16-1.34-7.48-2.03-4.37-3.01-2.55-6.68-4.02-1.46-.58-2.87-1.85-4.02-2.91-.81,1.52-2.68,1.44-3.63,2.08-1.23.83-3.09,4.3-5.47,4.84-1.09-.84-.02-.89.41-1.22.37-.29,5.22-3.23,4.14-4.12l-4.3-.28c-.15,1.52-4.12,3.99-4.25,4.41-1.19,3.91.05,8.47,0,12.45,1.69.05,3.4-.07,5.09,0,.65.03,1.99-.4,1.86.53l-7.43.48c-.78-.66-.29-7.14-2.19-7.97l.02,7.77-10.19,1.31c.22-1.06,1.09-.92,1.88-1.06.96-.18,7.18-1.01,7.24-1.38-.49-6.01,1.26-12.48-1.67-17.99-3.04-5.71-6.34-6.69-10.83-10.15-.8-.61-3.29-3.49-1.17-2.58,1.05.46,1.84,2.91,4.02,2.14l.8-3.21c1.77,1.04-.02,3.42.51,4.27.38.62,2.53,1.34,2.96,2.42l4.82,7.21-1.3-16.61-5.64-8.53,5.7,5.52c1.43,3.77,1.88,7.87,2.31,11.87.38,3.51.27,7.36.54,10.69.22,2.7.92,5.43.54,8.29.93.13.51-1.21.53-1.86.19-5.04.25-12.45,2.28-16.99.76-1.69,2.91-3.29,3.07-5,.15-1.62-1.01-3.73-.53-5.57l2.4,4.8,3.22-2.66c.81,1.91-2.7,2.68-3.72,3.77-.48.51-3.1,4.86-3.44,5.65-1.45,3.37-1.71,7.82-1.66,11.44,3.03-1.83,3.72-5.26,3.75-8.56l1.56,4.05c2.2.27,4.26,1,6.19-.3,3.84-2.59-.19-4.52.81-5.89,3.08,3.08,5.43.23,7.77-2.13l-3.5-4.82c1.98.23,1.75,1.49,3.7.24s4.11-4.92,2.76-6.96c-.99-1.5-3.3-1.16-3.25-2.91,5.2.4,6.11,4.55,3.44,8.52-.63.93-2.63,2.28-2.78,3.04-.21,1.08,1.29,3,.71,3.94-.21.33-3.7,2.71-4.4,3.14-1.39.86-3.1.29-2.64,3.05.17,1.04,6.51,4.63,6.21,1.85l5.34,5.34-4.27-12.3,1.89,1.58,2.38,6.98c.43-3.05,1.94-6.38,3.65-8.93.47-.69.6-1.46,1.71-1.23-1.49.87-5.92,13.36-4.01,13.37-.24-1.62,4.49-4.6,5.45-4.75s1.34,1.45,2.55,1.52c2.39.14,5.59-3.05,6.09-5.2.2-.86-.47-2-.22-2.3.61-.76,2.91-.03,2.46-3.41-.37-2.78-3-1.44-4.83-1.37.81-1.47,3.32-2.79,2.42-4.79-.18-.4-1.84-1.97-2.27-2.09-1.77-.46-2.08,2.07-3.92-.34l1.64-2.67c-.27-1.66-1.76-2-3.23-1.88.06-3.09,2.25-5.2.01-8.15-2.67-3.54-5.97.29-6.69.14-1.29-2.98-1.92-4.82-5.37-2.69-1.09-.58-.61-1.47.28-1.85,4.41-1.86,5.57,2.89,6.14,2.91,2.93-3.33,7.95.59,8.29,4.08.15,1.53-1.01,3.3-.95,3.72.08.52,1.5.91,1.98,1.64.61.94.4,2.27,1.09,3.19.79,1.05,2.8,1.1,3.72,2.7,1.26,2.21-.02,4.24.11,4.43Z"/>
  <path d="M819.25,441.09c-.64.85-.98,0-1.07-.79-.31-2.54-.09-5.66-.53-8.3-1.18-.07-.99-.2-1.09.81-.21,2.13.91,4.8.55,7.49-.13.96.19.87-1.07.79l-.54-8.56c-2.68,1.26-4.13-2.57-4.66-2.69-.89-.2-2.09.19-3.1,0-.67-.12-4.17-3.06-4.79-3.77-3.25-3.7-2.52-7.94,1.72-10.38-.91-1.93-1.28-4.29-.92-6.41.23-1.38,1.22-1.95,1.45-2.82.37-1.43-.13-2.99.35-4.46.43-1.31,1.85-1.47,1.95-1.94.21-1.05-.83-3.66-.54-5.75.31-2.22,2.12-2.97,2.3-4.14.36-2.21-1.59-2.81.23-6.71,1.89-4.05,1.1-3.08,1.84-7.25.36-2.03,2.07-2.59,2.32-3.54.47-1.8-.05-3.82.87-5.57.61-1.16,1.67-1.15,2.01-1.86,1.2-2.5-.43-10.02,4.15-10.73,4.99-.77,4.4,8.6,4.98,11.31.15.7,2.26,5.33,2.55,6.64.55,2.4-.17,7.94.19,9.41.22.89,2.15,2.26,2.48,4.52.37,2.59-.98,3.81-.92,5.23.06,1.37,2.39,2.8,2.11,5.29-.11.96-1.07,1.8-.96,2.62.12.89,1.74,3.14,1.98,4.96.26,1.98-.55,5.4-.37,6.31.13.62,1.15,1.04,1.38,1.77.39,1.27-.12,2.84.12,4.15.28,1.53,3.63,5.82,1.59,7.5-.18.14-.85-.24-.98-.13-.25.22-1.46,2.95-2.25,3.87-1.09,1.28-3.47,3.89-5.12,4.03-1.1.09-2.05-.59-3.04-.42-3.96.68-1.8,6.78-3.08,9.51-3.14-1.82,1.38-8.14-2.13-8.56v8.56ZM826.81,382.71c-.39-.55.78-1.68.86-2.4.65-5.69-2.04-9.43-3.49-13.96-.58-1.81-.34-10.52-3.04-10.75-3.57-.3-2.54,8.78-3.04,10.24-.33.96-2.34,1.38-2.85,2.5-.71,1.56.08,3.4-.38,4.97-.31,1.06-2.07,1.74-2.45,3.43-.47,2.03.21,3.75.47,5.7-.12.56-3.04.18-2.77,4.36.12,1.84,2.24,2.48,1.62,4.21-.3.85-1.94.57-2.92,2.45-1.9,3.66.5,6.02.21,7.18s-3.33.67-2.5,4.75c.18.88,1.11,1.51.97,2.52-5.22.67-2,5.68-1.03,8.78-.1.64-6.16,1.15-3.92,6.6.92,2.23,2.16,3.26,4.41,2.28-1.53,4.28,3.06,3.27,5.89,2.68-.95,4.6,2.74,3.61,5.37,1.33.43-.37.43-1.24.52-1.33,1.53-1.39.95,2.58,0,2.66l3.47.56.55-1.64c5.63,3.26,9.45-2.68,11.38-7.35l-.41-4.41c-.67,2.23-2.42,4.05-4.28,5.34.31-1.88,2.13-2.45,2.94-4.28.61-1.36,1.52-5.25.29-6.17l-2.16-.52c2.13-1.92,2.17-8.32.77-10.42-.55-.81-1.83-1.01-1.9-1.42-.3-1.84,3.19-3.81.6-6.92-.45-.54-1.59-.64-1.67-1.1-.41-2.55,3.81-3.87-.03-8.97-.47-.63-1.37-.8-1.47-.93Z"/>
  <path d="M38.65,289.05c.82.49,2.79.03,4.43,1.19,2.36,1.66,1.37,3.84,1.95,4.74.35.55,5.59,1.19,7.35,4.69s-.14,4.62.18,6.3c.15.8,2.37,2.41,2.55,4.4.15,1.61-.96,2.69-.92,3.16.02.33,1.39,1.53,1.76,2.37,1.04,2.36,2.81,7.65-.29,8.6v1.05c2.52.56,3.08,4.34,2.55,6.59-.33,1.4-1.76,2.12-1.94,2.89-.43,1.86,1.16,3.36-1.42,6.05-2.13,2.22-5.83,2-6.08,2.22-.17.15-.15,1.26-.58,1.8-2.14,2.67-4.1,1.65-6.99,1.33.68,1.95,1.78,1,3.21,1.33-2.06.62-2.53,2.21-3.76,3.2s-5.8,2.28-7.32,2.27c-1.07,0-1.54-1.01-2.67-.54-2.55,1.05-4.91,6.62-8.72,7.11l7.19-8.05c1.84-5.33-1.81-10.71-5.57-14.17-3.01-2.76-7.12-2.41-8.58-6.4l-4.28-4.54c2.06.25,4.22,2.32,4.82,4.27l1.06-2.67,1.04,5.14c5.8,1.25,8.62,5.43,12.08,9.83l-.26-7.75,1.06-4.01.55,9.09c.86.08.65-1.18,1.28-1.65.77-.57,1.57-.53,2.46-.48-.09,1.37-1.92,1.16-2.02,1.24-1.26,1-1.33,3.67-1.19,5.17,1.1,1.14,5.42-3.39,6.12-4.31.76-1.01.88-2.68,1.9-3.17-.39,3.83-4.24,7.51-7.79,8.52l-.25,5.03c2.76,2.22,6.26-.54,9.09-1.29l.11-4.16c1.31-.84,4.94,1.54,6.38-.43l-.04-4.45c1.55-.46.93,1.22,1.93,1.55,2.24.73,6.76-2.86,6.3-5.31-.54-2.89-3.66-.39-3.41-2.66,2.07.35,5.56-.16,5.08-2.67l-2.41,1.6c.82-2.49,3.72-3.24,1.07-6.15l-4.82-.26c-.36-2.03,3.41-1.18,4.19-1.69,2.01-1.33.84-11.9-3.66-10.61-.32-1.89,2.47-.6,2.69-2.96.24-2.48-3.05-4.63-3.17-5.4-.15-.9,2.36-2.58.19-6.05-1.66-2.66-3.02-2.03-5.19-2.73-.46-.15-1.65-2.37-3.61-1.58l1.42-2.4c-.31-3.71-5.41-2.38-5.72-2.62-.83-.66-.25-2.54-2.4-2.98-3.42-.69-6.87,2.05-8.55,4.8-2.02-3.82-8.56-3.72-9.91.54-4.97-5.78-6.03,1.95-9.1,3.47-.48.24-2.2.81-2.13-.25,2.96-.54,4.83-6.11,7.43-6.7,1.35-.31,3,1.41,3.98,1.24.68-.12,1.91-1.47,3.02-1.78,2.84-.78,4.71-.16,6.71,1.88,1.87-3.03,6.66-5.69,10.11-3.68.99.58,1.2,1.77,1.51,1.96Z"/>
  <path d="M697.25,367.81l17.12-4.81c-.45,14.33.76,28.88-.33,43.15-.08,1.03.89,2.27-.19,3.13l-16.6,6.68v-48.14ZM710.63,368.34v37.71l-11.99,5.02-.31,2.73,14.47-5.7-.03-43.51-13.38,4-.52,2.95,11.77-3.21ZM709.56,369.95c-1.79.21-10.2,1.72-10.63,3.02-.31,9.07.15,18.16-.05,27.23-.04,1.67-1.86,10.05.68,9.8l10.28-4.73-.28-14.45-4.36,9.81-1.53,2.21c.72-2.81,2.02-5.44,3.12-8.11.42-1.03,2.77-4.96,2.77-5.25v-19.52Z"/>
  <path d="M171.33,89.58c.6.35,2-.48,2.88-.49,4.13-.02,5.87,3.4,6.91,3.55,1.48.22,4.85-.55,6.99-.32,5.69.62,9.42,4.67,2.17,6.99-8.69,2.78-19.03.7-27.88,1.02-3.15.11-6.97.97-10.12,1.11-4.53.2-9.13-.19-13.66-.03-.13-.93,1.21-.5,1.86-.53,3.2-.13,6.44.17,9.63,0,2.98-.17,6.65-.99,9.62-1.09,6.79-.23,27.66,1.28,32.38-2.4.64-.5,1.77-1.68.76-2.44-2.4-1.82-7.71-1.7-10.65-1.56-.66.03-2.19.68-2.38.53-.09-.07-.28-1.47-.84-2.12-1.79-2.05-6.13-2.19-8.27-.55-1.22-5.25-6.45-5.07-10.71-3.75.08-3.66-4.84-7.82-8.42-8.43-7.1-1.21-11.18,2.43-14.29,8.26-1.1-.89-4.22.15-4.61-.08-.47-.28-.95-1.99-1.57-2.7-4.82-5.49-10.89-3.86-16.22-.17-1.71,1.19-3.89,2.41-4.12,4.71-1.85.17-.41-1.55-2.66-2.42-5.75-2.23-13.31-.41-15.83,5.56-3.06-.78-12.58-1.31-11.47,3.27-2.57-.89-16.32-2.62-16.04,1.34,2.36,1.63,5.99,1.97,8.88,2.34,14.57,1.86,29.21,1.1,43.82,1.67.65.03,1.99-.4,1.86.53-5.42.78-11.36.72-16.87.56-8.9-.25-27.04-.57-35.04-2.96-1.23-.37-3.02-.69-3.24-2.16-.5-5.56,12.33-2.59,14.76-2.87,1.13-.13.9-1.12,1.64-1.59,2.52-1.61,8.2-1.93,11.11-1.19,3.57-6.88,12.38-7.63,18.74-4.28,5.76-6.45,17.64-10.81,22.39-1.12l4.71.65c2.92-11.4,19.8-11.45,23.53-.22.75.53,5.18-2.3,9.15,1.53.53.51,1.03,1.77,1.12,1.83Z"/>
  <path d="M327.49,200.91l1.09,7.2-.55,10.45,13.91.54.03,4.25,11.24.8.5,7.79c.48.48,11.71-.85,13.56-.87,4.25-.06,9.3.84,13.45.89,13.16.15,26.24-.02,39.35.51v10.7h-.54v-9.63l-51.91-1.07v21.93h-1.07v-21.93l-12.84.53v28.89h-.53c.21-.67-.54-1.55-.54-1.87v-35.04l-23.01-.53v37.98h-.54v-37.98c-3.5.6-8.82-.06-12.04.54-.6.11-1,.27-1.34.8v29.15h-.54v-31.02h8.03v-5.35s4.28,0,4.28,0v-17.65ZM340.87,219.64h-16.32l-.72.89-.09,3.4c5.68-.58,11.39-.63,17.13-.53v-3.75Z"/>
  <path d="M537.82,236.72c.16.16,2.3-.05,3.34.54,2.02,1.15,3.15,7.87,1.17,8.04-1.21.11-.13-3.6-.55-4.77-.94-2.61-3.05-3.06-5.6-2.71,1.38-4.96-3.41-5.42-5.88-1.6-.37-5.73-7.93-6.68-8.57-.53-3.5-1.8-6.17-1.19-5.88,3.21-1.28.06-1.8-1.21-3.06-1.5-2.1-.48-3.61.29-4.66,2.09-1.84,3.14,1.98,5.21,1.3,5.83-1.67.21-4.23-.69-5.31.84-2.08,2.96,1.24,5.36,1.03,6.37-.26,1.25-2.21.21-3.22.49-3.26.89-.63,5.78-1.06,6.21-3-.95-4.87-1.3-8.02-.54l.53-1.6c-.58,0-1.2-.09-1.76.11-.45.15-6.99,5.7-7.27,6.11-1.49,2.13-.85,3.41-.07,5.55-5.27-.68-.89,4.64-1.6,5.35l-3.09.66c-1.71,2.91-.1,7.13,3.62,6.83.56.52-2.62,3.27-1.13,5.11,1.33,1.65,3.57-.05,3.8.23l.5,2.98,3.18.3c.76,2.32,1.11,6.91,4.57,6.36.92-.15,1.57-1.2,2.68-1.11.3.03.32.95.97,1.26,4,1.92,6.16,1.84,8.18-2.3l3.84,3.68c1.7.5,2.14-.84,3.37-1.54-.04,5.51-4.53,2.85-6.68,0l-2.89,2.21,1.02,7.95c.73-.38,2.99-.6,3.2.53l-9.63,1.07c.35-1.71,5.15-1.4,5.35-1.6l-1.33-7.5c-1.58-.14-4.29-1.33-5.48-1.49-1.09-.14-2.05.59-3.49.34-3.13-.54-4.56-3.95-4.16-6.86-3.87,1.95-4.02-1.94-4.93-2.56-.4-.27-1.38-.07-1.98-.4-3.11-1.73-.86-5.11-1.16-5.52-.12-.16-1.3-.46-1.86-1.1-1.82-2.08-1.8-5.52,0-7.57.57-.64,1.74-.96,1.85-1.11.17-.24-.68-2.27-.5-3.38s1.2-1.43,1.5-2.28c.42-1.19.11-2.27.89-3.92.39-.82,5.43-5.63,6.43-6.4,3.61-2.79,5.89.3,9.92.55-1.26-2.95.39-6.12,3.75-5.89-.27-2.08-1.04-3.64-.13-5.74.94-2.2,3.09-1.48,3.65-2.24.38-.51-.2-3.21.48-4.84,1.25-3,4.92-4.24,7.5-2.19.83-.06.97-3.73,4.27-3.72.73,0,2.05.72,2.34.51.15-.11.37-1.19,1.15-1.81,4.86-3.88,6.36.74,8.39,1.24,1.27.31,3.04-1.14,5.39-.05,2.1.97,1.51,3.59,1.77,3.84Z"/>
  <path d="M399.19,335.18l-7.26,2.63c-48.66,11.23-98.77,24.95-143.83,46.65-6.03,2.91-11.76,6.79-18,9.01,2.82-2.72,7.13-4.82,10.69-6.69,19.5-10.25,42.03-18.72,62.88-25.94,31.14-10.79,63.2-19.15,95.52-25.66Z"/>
  <path d="M593.97,236.75c3.57-.03,2.62,3.27,2.69,5.89,2.65-1.11,8.38-.46,8.61,2.95.05.78-.49,1.76-.42,2.18.1.62,1.37.77,1.71,1.3.7,1.1.32,3.58-.27,4.81h3.75s-.54,2.67-.54,2.67c4.31-1.92,10-2.42,10.17,3.75,3.42-2.6,6.95,1.44,10.16,2.67-.34-3.92.56-8.3,5.38-7.19,1.04-6.23,5.87-9.55,11.41-5.16,2.69-2.9,4.99-4.57,8.39-1.31.92.88,1.52,2.8,1.66,2.89,1.28.78,3.9-.95,6.34,2.49,1.52,2.14,1.39,3.44,0,5.61,2.65.02,7.35.64,8.04,3.74,1.41-.01,2.03-1.5,3.5-1.6,1.62-.1,2.65,1.36,3.79,1.47,2.62.26,8.22-3.84,7.67,3.34-1.69-.81-.92-2.84-3.06-3.11-2.82-.36-3.44,2.06-4.69,2.05-2.01-3.23-4.51-3.39-6.43-.02-1.54-1.79-4.35-4.08-6.67-4.57-.94-.2-4.59,1.09-4.06-.79.18-.67,1.16-1.34,1.36-2.42.81-4.46-3.43-5.66-6.93-4.51-.05-5.69-6.55-7.14-8.04-1.08h-.79c-3.61-5.66-10.89-2.97-9.91,3.75l-.96-.41c-.57,2.01-2.21,1.07-3.8.98-1.72,2.82-.8,4.98-.59,7.99l-5.08-2.67-1.07,1.59c-.72.03-2.2-7.1-6.68-.52-.12-2.09.63-4.93-1.41-6.35-4.11-2.86-8.17,2.42-9.3,1.53l1.07-3.74-4.28,1.06c-.7-.72,3.68-7.07-1.61-6.96-.45-.47,2.02-2.22.57-4.45-1.07-1.04-3.17-1.07-4.6-.91-1.28.14-4.87,2.74-4.31.54.44-1.74,1.47-3.31.76-5.53l-3.14-1.42c1.96-3.68,1.15-8-3.74-6.41-.17-2,2.64-1.88,3.91-1.5,2.34.71,2.47,5.49,1.43,7.38Z"/>
  <path d="M746.48,354.97v41.19l-20.71,7.41c-.43.23-1.23-.56-1.23-.72v-42.26l21.94-5.62ZM726.15,360.85v41.19l18.64-7.57c.38-10.57-.2-21.19.07-31.76.03-1.21,1.5-6.28-.23-6.58l-18.48,4.72Z"/>
  <path d="M108.09,256.55l-10.66,4.57-8.33,8.25.53-1.61,5.35-5.88c-9.21,4.11-16.47,9.28-21.14,18.45-6.32,12.39-7.64,46.83-4.68,60.33.95,4.33,3.15,7.18,7.9,5.75-3.05,2.95-7.16.32-8.4-3.11-2.63-7.27-2.3-28.98-1.79-37.31.68-11.07,4.46-22.23,7.24-32.88l1.07.54,1.87-2.14v1.88c3.47-5.01,7.08-10,11.51-14.18.25,1.7-2.37,3.28-3.47,4.56-.58.68-2.33,2.52-1.89,3.46,4.4-2.86,7.69-5.23,10.71-9.62.47,1.39-1.82,2.87-2.41,4.01-.08.4.52.34.79.26,4.85-1.54,10.23-6.09,15.79-5.33Z"/>
  <path d="M405.08,262.42l-2.67.54-.29-1.64c-2.09-.61-4.58,1.16-5.25,1.03-.76-.14-1.33-1.65-2.32-1.95-4.49-1.36-7.3,2.71-6.59,6.84l-1.37-.49c-.34-.02.03,1.63-1.3,1.02.11-3.63-3.65-2.24-4.22-2.75-.27-.24.12-1.62-.93-2-1.64-.6-4.06-.13-2.88,2.07h-2.13c1.08-4.17-4.42-5.22-6.12-2.1-1.16,2.12.1,4.22-3.69,3.22-2.61,1.84-.78,3.51-.37,5.83-2.67-1.08-4.13,1.82-5.74,2.06-1.31.2-1.89-.82-2.65-.91-2.61-.31-3.24,8.43-4.18,8.47-3.47-1.12-4.07-6.12-8.29-4.27l-.35-3.79-5.54.04c.76-2.49.97-4.25-1.05-6.17-2.5-2.37-2.51-.38-4-.3-1.23.07-2.04-.73-4.08-.26s-2.74,2.29-4.22,2.75c-2.51.77-6.24-.98-4.31,3.44-1.96-.02-1.94-1.63-1.1-2.97,1.19-1.89,2.89-.96,4.47-1.41.98-.28,3.09-2.88,5.18-3.4s4.81.51,7.11-.16c2.22,1.77,4.63,3.68,4.13,6.87l4.19.09,1.16,4.19c3.02-1.35,4.12,2.31,6.41,3.2-.51-4.09,2.94-8.03,6.71-9.08,1.35-.38.65,1.5.79,2.13.53-.96,3.01-1.54,3.13-1.68.51-.57-.85-4.05,2.02-5.75.66-.39,2.17-.53,2.28-.66.25-.31-.09-1.74.33-2.61,1.34-2.83,8.08-2.98,8.86.54,3.22-2.47,3.82-.16,5.9.78,1.37.62,3.01.09,3.99,1.9,2.02-5.34,3.49-7.35,9.36-5.61.74.22,1.36,1.09,1.95,1.19,1.96.33,5.81-1.59,7.68,1.75Z"/>
  <path d="M103.81,441.09c.99.83-4.92,4-5.52,4.37-15.79,9.63-32.59,17.67-48.68,26.78l-13.22-2.27c-.29-1.28.23-.87.7-1.19.79-.55,2.13-1.26,3.04-1.76,17.58-9.75,36.1-18.8,54.3-27.02l9.39,1.1ZM101.14,442.16l-8.02-.85c-17.05,8.87-34.55,16.97-51.38,26.25-.78.43-2.37,1.06-2.66,1.87l10.71,1.36,51.35-28.63Z"/>
  <path d="M767.99,221.13c1.49.85,5.9-1.02,6.35,3.83,3.21-1.13,5.7.49,6.39,3.77.35.27,5.29-3.36,8.02.8.76,1.16.74,2.57,1.37,3.45.42.59,1.37.8,1.85,1.36,1.73,2.01,1.12,4.89.52,7.23,6.05-1.28,10.79,3.5,7.49,9.09,4.2.13,2.54,4.41,3.32,5.78.27.48,2.17.58,2.55,2.53.33,1.7.03,3.88-1.33,5.06-1.8.16.13-2,.26-2.97.53-4.03-2.59-2.68-3.16-3.48-.54-.75,1.82-4.4-1.12-5.59-.88-.36-1.94.77-2.66-.53-.17-.8,1.8-1.97,2.06-3.33.35-1.79-1.37-4.7-3.1-5.25-1.74-.55-5.65.5-5.91-.53.17-2.38,1.55-3.08.94-5.75-.61-2.65-3.19-2.05-3.56-2.59-.51-.74.84-4.32-2.05-5.17-3.74-1.1-3.75,1.64-6.57,2.56.36-2.85-.16-6.31-3.9-5.26-1.15.32-1.59,2.25-3.06,2.05.15-1.82,1.13-3.17-.29-4.79-1.82-2.08-3.65-.4-4.75-.64-1.32-.29-3.62-7.38-8.12.05-4.9-2.98-8.61,2.19-7.71,6.99l-4.64-1.48c-4.51,1.11-3.38,4.53-2.32,7.9-5.27-.71-6.37,2.47-5.35,6.95-2.15-.78-4.16-.13-5.86,1.36-1.78,1.56-1.17,3.74-3.76,4.52.17-3.26,3-6.07,5.89-7.23.62-.25,2.02-.18,2.11-.28.11-.12-.03-2.31.26-3.22.6-1.91,3.08-3.74,5.12-3.18-1.64-5.59,1.79-9.82,7.49-6.95-.86-3.1,2.59-7.45,5.63-7.53.86-.02,2.63.7,2.86.53.81-.6.99-2.54,3.69-3.06,3.85-.74,3.96,2.37,5.06,3Z"/>
  <path d="M784.47,381.45c-.06.35-.55,1.14-.94,1.34l-18.69,6.88-1.24-.72v-39.85l19.76-5.15,1.1.6v36.91ZM765.21,350.42v37.18l17.41-6.4c.17-11.99.88-23.88.78-35.86l-18.19,5.08Z"/>
  <path d="M165.35,468.38l-.76,2.17-42.21,35.95-15.35-2.83,2.42-3.19,43.62-33.96c2.7-1.1,9.22,1.49,12.29,1.85ZM163.74,468.91l-10.15-1.35-44.97,35.58,13.89,1.9,37.49-32.11,3.74-4.02Z"/>
  <path d="M80.12,188.23c.8.8,1.28,2.98,1.22,4.13,3.88-1.47,8.86.15,6.15,4.81-.71-6.68-4.68-3.81-8.82-2.14l1.54-4.47c-2.45-3.65-6.29-3.12-8.77.18-3.43-6.72-15.98-5.45-15.79,2.68-.4.47-2.68-2.73-5.64.52-1.53,1.68-1.43,3.2-1.31,5.37-4.72-.94-4.33,2.84-4.29,6.41-1.67.24-.79-1.36-2.14-2.4-4.49-3.45-6.39,3.23-7.27,3.44-2.89-1.11-3.96-2.61-6.9-.5-4.55,3.26.37,7.49-3.49,11.51l3.75,5.07c-6.18-4.79-9.19,1.78-8.56,7.49-3.41-2.24-8.21,2.85-5.2,5.74.63.6,2.27.53,2.53,1.74-2.38-.87-3.16-.38-4.38,1.77-1.91,3.35.29,4.03.63,7.33-3.85-2.65-3.38-7.58.54-9.9-2.98-1.62-.7-6.03,1.63-7.46,1.18-.73,3.04-.75,3.15-.86.41-.43.97-10.8,5.92-8.52.16-1.26-1.34-2.05-1-3.37.25-.97,1.99-1.48,2.1-2.81.1-1.18-1.21-1.86-1.09-3.64.18-2.71,2.87-5.97,5.66-6.22,1.48-.13,3.18.92,4.65.55.48-.12.81-1.39,1.41-1.92,2.99-2.63,6.16-.3,7.02-.99.68-1.09.43-2.38,1.52-3.32,1.04-.89,2.57-.66,2.69-.78.2-.21-.32-3.19,2.15-5.07,1.92-1.45,4-.93,4.74-1.41.17-.11,1.04-2.37,2.22-3.4,3.78-3.28,8.43-3.01,12.7-.9.77.38,1.58,1.53,2.11,1.63,1.08.21,5.39-3.52,8.6-.3Z"/>
  <path d="M512.79,334.49c.57.51,2.34.41,2.52,2.28-.98.29-1.27-.79-1.99-.97-.89-.21-3.07.68-4.43-.1l1.03-3.69c-1-.17-1.96-1.03-2.93-1.1-1.75-.13-3.57,1.65-4.18,1.53-.54-.1-1.03-1.22-1.79-1.46-2.29-.72-3.68.89-3.37,3.12-4-4.03-6.68,1.21-5.88,5.35l-3.4-.49-.88,2.1-2.1-.86c-3.47,1.39-1.41,5.11-1.1,7.81-2.11-.88-4.48-.51-5.48,1.74-1.27,2.87,1.17,3.39,1.19,3.87.09,2.12-3.25-1.8-4.16,1.18-1.32,4.34,2.73,6.44,2.54,7.32-8.14,4.27-1.22,13.54,5.91,11.03-2.49,3.74-4.43,12.87,2.67,10.7l-1.11,2.92.29.83c.42.67,3.31,1.63,4.18,1.5,1.98-.3,1.37-2.23,3.06-2.04-1.45,3.99,1.15,5.08,4.82,4.82-1.61,2.59-4.84-.18-6.96-.55l.54-1.59c-2.6,1.08-5.23.28-6.67-2.18-.35-.6-.12-1.69-.38-2-.24-.29-2.34-.26-3.15-1.4-1.16-1.61-.34-6.76-.19-8.88-4.82-.76-8.88-5.19-7.68-10.3.34-1.44,1.95-2.22,2-3.29.1-2.01-1.86-4.12-.81-7.83.48-1.7,2.05-1.17,2.36-1.64.27-.42,0-1.78.32-2.61.76-2,2.97-3.44,5.12-3.19-2.14-6.48,2.59-8.15,8.02-8.56-.26-1.83.4-5.18,2.27-6.02,1.44-.66,2.66-.11,3.78-.39.51-.12.54-1.02.95-1.29,2.37-1.56,3.57.1,5.63.16,2.85.09,3.59-1.94,6.91.58,1.56,1.18,1.88,2.99,2.56,3.6Z"/>
  <path d="M526.82,90.72c1.45-.22,4.13-1.32,2.41-2.95-2.08-1.97-6.06-.81-8.19-1.44-1.11-.33-2.41-2.59-4.52-2.99-2.41-.45-4.84.44-6.55,2.03,1.07-5.13-7.53-4.4-8.44-5.48-.29-.35-.87-3.09-1.44-4.17-5-9.5-16.94-9.82-23.21-1.23-1.33,1.83-1.82,3.74-3.1,5.48-2.96-1.81-7.06.87-9,.59-1.01-.15-3.86-2.81-5.66-3.49-4.76-1.8-9.7-.01-11.77,4.54h-.77c-4.01-4.57-14.7-2.57-15.84,3.74-2.76-1.43-18.09.18-18.69,2.96-.07,1.11,1.25,1.42,2.1,1.63,9.75,2.41,23.5,1.4,33.55,1.38,7.42-.02,14.98-.37,22.41-.07.65.03,1.99-.4,1.86.53-2.39.91-4.54-.12-6.68-.04-14.42.55-31.12,1.64-45.42-.02-2.57-.3-10.73-.63-8.38-4.37,2.15-3.42,15.2-3.24,18.96-3.02,1.14-6.21,12.22-8.02,16.11-3.79,3.57-4.18,7.39-6.51,12.96-4.38,1.61.61,4.28,3.23,5.25,3.34,1.93.2,5.93-2.42,8.78-.55,5.18-15.18,24.74-15.68,28.99.48,2.53-.03,5.16.64,7.19,2.19.54.42.63,1.58,1.12,1.66,1.09.16,4.03-.9,6.31-.54s3.3,2.21,4.42,2.53c1.91.54,4.22-.09,6.58.91,2.8,1.18,3.94,3.47.54,4.82-5.19,2.06-14.97.26-20.58.23-9.83-.05-19.61.93-29.45.56l2.67-1.07c13.87-1.5,32.15,2.01,45.48,0Z"/>
  <path d="M382.07,271.52l-2.35-1.04c-2.8,1.33-.57,4.6-.94,6.02-.22.86-1.54,1.07-1.57,2.76-.03,1.9,1.84,2.7,1.65,4.56l-2.13-.54c-1.25,2.98-1.4,5.18,1.33,7.39l2.41-.96c-2.32,2.79.1,5.85,3.15,6.37l1.66-2.1c-.28,2.02.13,4.99,2.68,4.01.41-2.18-1.36-3.91-1.59-5.91-.12-1.06.13-.8,1.04-.77l4.83,13.9c1.33-.42.15-3.11.24-4.03s.75-1.72.85-3.16c.19-2.95-.48-5-1.09-7.78,1.17-.07.45,2.58,1.86,2.14.57-.18.13-2.06,1.34-2.14l-1.06,8.02c3.21-2.17,1.05-7.74,5.88-6.95l-2.09,1.12c.24,3.18-3.02,5.42-3.85,7.69-.65,1.78.46,3.68-.48,5.63l2.68-5.35c2.24,2.42,5.56,2.07,8.06.16.96-.74-1.33-2.53.24-2.83,2.65-.5,1.22,4.39-2.81,5.22-1.55.32-4.58-.43-4.97-.18-.27.17-3,4.95-3.1,5.52-.31,1.66.57,2.9-.11,4.41h2.94s5.62,1.07,5.62,1.07l-18.72,1.07,9.1-2.14c.6-.56-2.73-12.14-4.03-13.39-.43-.42-2.04-.05-3.22-.46-.77-.27-5.38-2.77-5.88-3.24-1.76-1.66-.9-3.38-1.42-4.2-.38-.59-2.69-.19-3.42-3.27-.88-3.72,1.24-3.85,1.42-6.18.11-1.39-.69-2.74-.59-3.74.11-1.09,1.26-1.44,1.51-2.25.43-1.4-.2-3.15.22-4.6.48-1.67,3.27-1.91,4.16-3.59l.54,3.74Z"/>
  <path d="M43.88,544.32c-.3-1.24.25-.88.68-1.22,13.05-10.3,27.95-19.26,41.21-29.38,1.78-1.08,14.86,1.29,14.82,2.52l-38.53,31.57-18.18-3.49ZM98.46,515.98c-3.22.51-9.51-2.35-12.16-1.21l-39.74,29.02c3.42-.26,12.95,3.59,15.51,2.4l36.4-30.21Z"/>
  <path d="M461.27,234.08l-1.09-7.73.02-32.92-11.78-1.6v52.69c0,.4-.87,1.57-.54,2.4h-.53s0-55.09,0-55.09l-11.21,1.63-.05,14.7c.95,2.94.02,5.59,0,8.51-.02,7.6.33,15.49.02,23.04-.03.66.41,1.99-.54,1.87v-49.21c4.27.18,8.94-1.74,13.11-1.64,3.67.08,7.87,1.84,11.68,1.73l.89.71v40.92Z"/>
  <path d="M438.26,257.61c2.31-4.88-1.24-9.56-6.16-6.01-1.06-.09-1.76-3.03-2.62-3.66-2.86-2.08-6.94,1.88-6.2,4.85-1.5.06-2.05-1.81-3.54-1.99-2.87-.34-6.4,3.75-6.94,6.27-.32,1.51.93,1.87.84,3.21-2.71-1.33-2.49.33-3.06.51-1.47.46-3.37-.38-3.34,2.36.01,1.32,2.31,5.12-.23,5.12-1.06,0-3.08-1.21-4.11.39-1.78,2.76,1.1,4.93,1.1,5.26,0,1.16-2.17.32-2.83.38-3.77.34-2.84,9.55.68,8.2.82-.31,1.06-2.18,2.15-.56-2.99,4.17.75,6.54,4.83,5.09.35,1.86-1.65,2.86-1.66,4.55,0,2.93,5.03,5.04,6.74,1.88,1.34.76.22,1.66.49,2.69.91,3.42,8.19,2.26,10.47,4.53-2.36.1-6.21-.36-8.33-1.31-1.66-.75-2.49-2.55-3.45-2.97-1.09-.48-2.26-.12-3.36-.39-3.07-.74-4.92-4.96-2.52-7.37-1.21.14-3.87-.34-4.68-1.21-.93-1-.42-3.14-.75-3.54-.16-.2-1.86-.14-2.85-1.17-2.63-2.71-1.89-9.91,2.92-9.61-1.69-4.54.11-6.52,4.81-5.88-.47-3.35-2.16-4.26.55-7.21,1.85-2.02,3.68-1.55,4.18-1.97.15-.13.75-2.87,1.26-3.83,2.29-4.34,5.49-5.81,10.06-3.57-.02-2.23,2.53-4.23,4.57-4.32,3.64-.16,3.79,2.87,4.89,3.19.78.23,2.64-.76,4.18-.48,2.87.52,6.77,7.96,1.9,8.56Z"/>
  <path d="M587.54,228.19c-2.28.13.22-2.57-2.65-3.51-2.44-.8-3.59.88-5.12.81-.95-.04-1.7-1.2-2.77-1.46-4.19-1.02-5.64,2.21-6.05,5.78-5.35-2.99-10.05-1.44-9.09,5.35-1.38.17-1.61-1.48-2.96-1.62-4.11-.42-3.77,5.48-3.18,8.04-.84,1.36-4.51-1.48-5.02.34-.74,2.63.95,2.95,1.53,5.01-7.17-.81-6.35,1.96-4.82,7.49-6.68-1.68-9.53,1.59-6.95,8.02-1.07.16-1.4-.88-2.43-1.07-3.44-.62-5.77,3.67-5.62,6.68.11,2.24,2.87,4.09.75,6.19l-3.48-.28c-3.58,1.63.14,5.43.41,7.46.04.32-.19,1.55-.85,1.35-1.87-3.79-4.56-10.37,2.13-10.16-.4-6.11-.5-12.81,7.49-12.31-1.95-5.25,1.89-8.3,6.96-7.49-1.87-3.42-.66-7.43,3.75-6.95-1.27-4.16.21-6.58,4.82-5.89-.6-3.11.35-6.46,3.72-7.25.7-.16,1.71.41,2.18.08.74-.52.75-2.79,1.57-3.81,1.75-2.18,6.37-2.51,8.58-.78-.27-2.97,2.32-5.6,5.23-5.76,1.89-.1,2.95,1.19,4.21,1.32,3.18.31,9.25-2.07,7.68,4.44Z"/>
  <path d="M505.15,376.63c-.04-.67-1.27-2.49-.27-3.47l1.34,3.74c-.08-2.07.07-5.78-.63-7.65-.42-1.12-7.12-5.52-6.86-8.65.87-1.15.92.04,1.24.4.79.9,1.42,2.15,2.24,3.07,3.59,3.98,4.59,3.2,5.08,9.36.92,11.55-1.14,26.17-1.6,37.98-.03.65.4,1.99-.53,1.86-1.47-6.38.73-13.19-1.05-19.55-1.01-3.6-5.63-10.34-8.31-13.06-.56-.57-1.86-.97-2.14-1.59-.15-.33.43-3.73.22-5.08-.58-3.81-6.2-6.94-6.39-7.53-.33-1.07.38-.9,1.08-.53,1.48.78,2.81,2.33,4.01,3.48l-.26-2.67c1.31-1.69,3.39,14.58,5.09,14.44l.29-1.55c2.32-.39,2.41-3.23,4.24-4.32l-3.05,6.69,6.27,10.97c-.25-5.36.34-10.99,0-16.31Z"/>
  <path d="M221.92,429.43c1.29-.38,9.77.64,9.77,1.76l-35.87,28.34c-1.33.53-12.28-1.33-12.27-2.13l38.37-27.97ZM229.56,430.93l-6.18-.47-37.69,26.67,9.61,1.35c10.35-8.61,21.44-16.37,31.84-24.9.84-.69,2.57-1.51,2.43-2.65Z"/>
  <path d="M159.2,401.51c.63.6,1.03.67.54,1.61-.6,1.15-7.82,7.91-9.37,9.36-4.09,3.84-17.98,16.13-22.8,16.79-2.33.32-6.84.22-9.07-.47s.46-1.33,1.32-1.92c11.24-7.59,21.53-15.36,30.81-25.38h8.56ZM157.86,402.58l-6.94.27c-9.2,9.61-19.49,17.97-30.51,25.39,2.49-.4,5.84-.18,8.18-.65,4.56-.92,25.17-19.1,28.48-23.41.41-.54,1.04-.68.8-1.61Z"/>
  <path d="M721.87,251.73c1.93-.55,6.56-.52,8.21.49,1.2.73.6,3.28.96,3.72.09.11,1.77.35,2.58.89,1.29.86,1.92,2.3,2.95,3.38,1.71-.97,3.18-1.86,5.05-.7.61.38,4.22,4.65,3.79,5.05-3.83-.37-2.54-5.47-6.98-4.04-1.28.41-1.78,1.97-3.18,1.9.11-3.53-2.43-5.86-5.89-4.81-.24-.22,1.3-3.46-.54-4.58-.9-.55-6.79,0-8.02.84.11-2.85-.9-6.33-4.44-5.24-1.2.37-1.79,2.54-3.59,2.03l1.03-2.35c-1.84-2.32-4.96-2.09-6.31.55-.99,1.93-.03,3.69-1.42,5.02-2.93-1.85-5.25-1.59-7.12,1.42-1.47,2.36-.25,3.94-3.78,3.45-.1.95-.6,1.94-.58,2.88.01,1.04,1.72,5.64.26,5.61-.47-.36-.84-1.09-1.35-1.33-3.2-1.5-5.61,3.21-6.41,2.4.62-2.62,3.89-4.2,6.42-3.74.15-1.92-.55-4.88.81-6.41.91-1.02,2.42-.82,2.81-1.21.29-.29.34-1.71.94-2.53,1.72-2.34,4.3-4.27,7.2-2.69.52-3.33,3.28-7.72,7.11-5.77.92.47,1.7,1.77,2.32,1.89s2.09-.51,3.16-.47c2.58.09,3.87,1.86,4.01,4.34Z"/>
  <path d="M292.18,249.06c6.45-2.56,13.87-2.61,10.17,6.41,4.81-1.94,7.39,2.02,4.28,5.88,4.45-1.07,8.61-.08,9.1,5.09.19,2-.66,4.1-.53,5.33.19,1.83,1.84,1.44.47,4.78-.98,2.39-5.76,4.98-6.37,2.19-.32-1.48,3.21.58,3.96-.86,2.31-2.4,2.29-4.53-.75-6.1,3.86-1.41,2.12-8.68-1.35-9.35-2.51-.48-4.92.19-7.21,1.05-.43-1.93,1.74-2.01,2.38-3.77.42-1.15.59-2.37-.47-3.23-2.37-1.93-5,2.41-5.66,1.65-.24-3.03,2.98-4.21,1.91-7.51-1.84-5.67-10.9,2.62-11.57-.33.76-4.78-2.77-6.21-6.57-3.83-.85.53-4.56,4.85-5.17,4.19,1.51-6.28,12.06-10.01,13.38-1.6Z"/>
  <path d="M283.07,398.84l-30.5,18.49-9.1-1.91.89-1.51,29.48-16.58,9.22,1.52ZM280.4,399.37l-6.26-.67-28.52,16.17,6.79,1.22,27.99-16.72Z"/>
  <path d="M514.24,316.46c-.5,1.22-2.43,1.33-3.55,1.53-13.22,2.35-28.07,3-41.59,4.96-11.19,1.62-22.3,4.21-33.52,5.27.19-1.03,1.12-.88,1.85-1.09,6.67-1.92,16.08-3.06,23.12-4.16,17.79-2.79,35.78-4.73,53.69-6.5Z"/>
  <path d="M54.05,348.55v-1.6c5.55-.01,6.53-5.73,7.34-10.05,2.12-11.29,1.26-23.23.66-34.6-.14-2.56.43-4.77-.04-7.45-.7-4-2.8-7.08-5.82-9.7,1.8-.42,4.63,3.03,5.46,4.71,3.05,6.21,2.49,30.76,2.05,38.64-.17,3.01-.67,7.01-1.25,9.98-.97,4.95-2.52,9.76-8.4,10.05Z"/>
  <path d="M12.84,254.41c.18,1.03-.79,1.62-.98,2.53-.67,3.19,4.32,12.26,9.01,10.31l-2.67,1.07c-.35,1.54,1.03.7,1.37,2.07.7,2.78-.3,4.34,4.24,4.39,2.19.02,3.64-1.25,5.62-1.65-3.01,4.25,4.06,7.3,7.48,4.81,1.56,4.41,6.6,4.34,6.96-.71l1.61-.36c-1.45,4.52,1.97,3.64,5.32,3.96.75.07,1.28-.75,1.1.57-1.4,1.41-4.5,1.02-6.08.21-.55-.28-1.52-1.53-1.67-1.53-.29,0-1.35,1.74-2.25,2.02-3.98,1.21-5.48-2.56-5.83-2.58-.51-.03-1.44.62-2.55.53-3.8-.31-4.5-1.96-6.54-4.7-2.34.61-5.39.89-7.45-.62-1.9-1.39-.99-2.89-1.73-4.69-.54-1.33-3.37-3.8-4.33-5.3-1.66-2.59-5.57-9.26-.62-10.34Z"/>
  <path d="M796.34,280.52c1.28.78,3.49-1.94,5.8.89,1.58,1.95.79,4.64,1.12,5.03.15.18,2.38.21,3.2,1.35,1,1.41.12,3.23.58,3.97.09.14,2.08.69,2.9,1.65,1.1,1.29.85,2.74,1.46,3.62,1.02,1.46,4.1,1.47,2.51,4.97-1.05-.14-.42-2.02-1.02-2.86-.4-.57-1.7-.29-2.44-1.42-1.45-2.2-.33-4.9-5.1-4.27-.35-1.53,1.07-3.38.06-4.59-1.15-1.37-3.29-.11-4.33-1.56,3.57-3.56-2.28-8.37-4.56-4.02-1.46-1.21-.91-3.45-2.93-4.06-1.84-.55-6.29.8-5.37,3.54l-3.67-.46-1.68,5.8c-.35.41-3.87-2.11-6.19-.57-.94.62-.88,2-1.83,2.18-.49-3.89,4.11-4.49,6.94-3.2-.08-1.88,2.16-5.66,4-5.83.4-.04,1.14.52,1.3.42.1-.06.29-1.11.83-1.56,2.06-1.73,5.37-2.39,7.55-.53.48.41.66,1.4.87,1.52Z"/>
  <path d="M573.1,214.82v-74.35h.53c-.46,1,.54,2.47.54,2.94v70.61c0,.09-.72.84-1.07.8Z"/>
  <path d="M580.6,212.41c-.07.45-.6,1.55-1.07,1.34v-71.14h.53c-.21.67.54,1.55.54,1.87v67.93Z"/>
  <path d="M326.42,378.51c.97.84-2.41,2.02-2.85,2.23-7.47,3.47-15.8,5.91-23.34,9.31l-6.45-1.38c-.25-1.23.13-.86.69-1.2,6.39-4.02,17.51-5.86,24.32-9.91l7.64.96ZM323.74,379.05l-4.41-.43-22.87,9.51c1.73.56,3.49.87,5.25.17l22.03-9.25Z"/>
  <path d="M475.71,246.92c-1.2-.31-1.02-1.44-1.1-2.38-1.74-21.64,1.44-45.77,0-67.45l1.09-1.85v71.68Z"/>
  <path d="M131.1,330.9l-1.61.85c-9.66-2.66-19.47-5.18-29.31-7.12-8.37-1.65-17.95-2.21-25.95-4.02-.75-.17-1.78-.66-1.99-1.48,19.88,2.37,39.63,6.24,58.86,11.77Z"/>
  <path d="M158.93,389.2c2.2-5.91,3.48-15.1.96-21.01-.63-1.49-1.79-2.13-2.03-3.58,5.14-.76,7.59-2.07,9.73,3.37,2.37,6.02,2.33,14.86-1.16,20.43l-7.5.79ZM165.28,365.2l-5.81-.07c4.28,6.95,3.59,15.52,1.08,23l5.26-.62c3.55-7.21,2.62-15.13-.52-22.31Z"/>
  <path d="M560.8,216.96l-1.07-.79c.14-14.81-.18-29.62-.02-44.43.03-2.9-.02-5.64-.03-8.54,0-1.52.58-2.83.61-4.26.11-6.41-.29-12.88-.02-19.28.03-.66-.41-1.99.54-1.87v79.17Z"/>
  <path d="M368.69,361.93c-.4,1.05-1.75,1.44-2.69,1.86-6.82,3-14.66,4.81-21.5,7.94l-6.84-2.04c3.41-1.65,7.02-3.07,10.56-4.41,3.4-1.29,10.3-4.23,13.5-4.73,2.4-.38,4.63,1.3,6.96,1.39ZM365.48,362.99c-.44-1.24-2.3-1.26-3.4-1.44l-21.74,8.39,2.42.57,22.72-7.52Z"/>
  <path d="M494.98,170.96c.2-.25.7-.43.91.5.42,1.89-.45,3.48-.4,5.09.04,1.15.55,2.33.58,3.74.35,16.93-.31,33.91-.02,50.85l-1.07.79v-60.98Z"/>
  <path d="M215.12,401.51l-47.09,28.34c-.32-1.45.44-.91,1.06-1.32,12.58-8.28,29.73-19.45,42.99-26.05.97-.48,1.86-1.13,3.04-.97Z"/>
  <path d="M760.93,204.39c-.07.82-1.03,2.21-.54,3.47h-.53s0-56.97,0-56.97c0-.09.72-.84,1.07-.8v54.29Z"/>
  <path d="M390.09,307.37l-13.12,2.18c-8.58-1.51-17.03-.73-25.62-1.06-1.81-.07-4.43,1.79-5.68-1.12,7.93.11,15.9-.16,23.83-.03,1.99.03,4.43.94,6.4.98,4.39.09,9.55-1.71,14.18-.95Z"/>
  <path d="M480,257.61c-1.2-.31-1.02-1.44-1.1-2.38-.38-4.71.51-9.44.59-13.91.36-21.42-.91-43.44-.02-64.75.03-.66-.41-1.99.54-1.87v82.91Z"/>
  <path d="M470.9,262.43v-87.19h.54v84.25c0,.62,1.54,2.24-.54,2.94Z"/>
  <path d="M485.88,333.57c-6.03.16-12.8,3.72-18.52,4.24-2.14.19-3.11-.36-5.02-1.03-.25-1.22.89-1.48,1.7-1.77,3.12-1.13,14.76-3.97,17.86-4.12,1.97-.1,3.67.46,3.98,2.68ZM483.74,331.97c-5.8.71-12.4,1.96-18.01,3.68-.87.27-1.51-.43-1.24,1.13,5.68-.66,12.51-1.98,18.01-3.68.87-.27,1.51.44,1.25-1.13Z"/>
  <path d="M448.96,451.26l-1.49.9-50.41,13.53c.17-.98,1.1-.9,1.8-1.14,5.73-1.94,12.49-3.46,18.42-5.12,10.48-2.94,21.05-6.08,31.68-8.17Z"/>
  <path d="M496.58,305.23l-36.38,1.06c-.88-.67.05-.97.79-1.07,5.5-.7,12.06.14,17.65-1.09l17.95,1.1Z"/>
  <rect x="566.15" y="139.4" width=".54" height="77.56"/>
  <path d="M773.23,289.71c-3.91-4.76-9.12-2.13-8.55,3.75-1.26.37-3.54-.89-4.31.2-1.46,2.09.81,3.62-.78,5.13l-2.74-4.24-3.41,2.65c-1.01-1.28,4.35-6.44,4.82-2.68h.52c.08-3.28,4.31-2.34,4.77-2.72.13-.1.39-2.24.9-3.12,2.04-3.55,8.86-4.12,8.78,1.03Z"/>
  <path d="M154.11,104.64l-6.66,1.09-37.21-.03c.2-.97,1.05-.99,1.85-1.08,3.67-.41,7.26.53,10.7.58,10.44.14,20.84-1.08,31.33-.55Z"/>
  <path d="M91.51,294.52l2.66-3.21-1.41,4.02c1.42,2.12,2.72,3.68,4.88,5.09,2.81,1.83,3.49.54,4.15,5.21l5.76,1.72c-2.07,1.04-6.65-.29-7.38-2.52-.22-.68.04-2.06-.14-2.25-.09-.09-1.71-.07-2.49-.45-2.69-1.28-7.82-7.33-8.6-10.14-.14-.5-.53-1.89.41-1.75l2.15,4.27Z"/>
  <path d="M417.38,361.92c.22,1.29-.14,1.01-1.06,1.31-6.69,2.22-20.97-.08-27.94-2.02-.55-.15-1.62-.13-1.49-.9,10.29.49,20.12,4.65,30.5,1.6Z"/>
  <path d="M598.79,391.34l.46-3.66c-1.45-.85-2.69-.53-4.2-.08-.47-2.18,3.57-.55,4.28-1.07-2.63-8.84-9.32.26-5.39,4.59,1.16,1.27,3-.02,2.71,1.83-7.33-.22-6.12-13.32,1.23-11.12,1.31.39,2.86,3.2,3.03,4.48.2,1.46,0,5.04-2.12,5.03Z"/>
  <rect x="484.28" y="172.03" width=".54" height="64.19"/>
  <path d="M509.96,411.67c-1.34.1-.92.13-1.05-.8-1.3-8.81-2.25-18.68,1.33-27.02,1.22.03-1.55,9.97-1.38,10.97l1.11,16.84Z"/>
  <path d="M524.94,388.14c-.78,2.22-2.9,2.18-4.24,2.98-2.12,1.26-1.64,2.44-5.13,2.41-.99,0-2.08-.62-2.63-.6-.15,0-1.11,2.2-2.44,1.08-.39-.33,4.3-5.99,4.38-7.12l2.05-7.32c.88-.15.59,1.32.55,1.89-.26,3.41-2.22,7.42-4.29,10.15,3.44,3.79,7.27-2.88,7.75-2.89.2,0,.67.96,1.36.8.95-.21,1.46-1.61,2.65-1.38Z"/>
  <path d="M494.18,97.68c1.06-.04,3.59-1.7,4.55.53-14.02.78-27.95,0-42.01,0l-1.87-.53c13.08-.34,26.25.46,39.33,0Z"/>
  <path d="M517.46,362.46l1.34-1.07c1,1.28-2.88,6.89-2.41,7.49,1.56-1.25,3.49-1.74,5.31-2.44.66-.26,1.53-.5,1.1.56-.61,1.49-6.24,2.97-7.99,4.32l-3.77,3.98c1.43-5.02,6.55-8.09,5.89-13.9l.53,1.07Z"/>
  <rect x="499.79" y="174.17" width=".54" height="59.91"/>
  <path d="M450.56,446.43c-10.51-2.97-22.6-4.97-32.78-8.69-.56-.2-1.59-.18-1.46-.93,10.59,2.75,22.12,4.99,32.44,8.48.7.24,1.63.16,1.8,1.14Z"/>
  <path d="M414.71,237.29c-.31,1.2-1.44,1.02-2.38,1.1-4.88.39-9.81-.51-14.45-.59-8.01-.13-16.11.35-24.11.02-.66-.03-1.99.41-1.87-.53h42.81Z"/>
  <path d="M410.16,242.64c.22.03,1.53.53,1.34,1.06-4.9-.1-9.83.14-14.74.03-1.52-.04-2.83-.55-4.23-.58-5.88-.12-11.81.27-17.69.02-.66-.03-1.99.41-1.87-.53h37.19Z"/>
  <rect x="755.58" y="151.17" width=".54" height="53.49"/>
  <rect x="505.15" y="173.63" width=".54" height="51.35"/>
  <path d="M422.74,307.37l-6.7,1.05-18.98.02c-.87-.66.01-.97.79-1.07,4.3-.55,10.45.07,15.01.02,3.18-.03,6.39-.93,9.87-.02Z"/>
  <path d="M445.75,265.11c5.84-.81,6.38,3.19,5.89,8.02-1.35,1.77-1.07-3.93-1.18-4.43-1.05-4.58-6.53-1.15-6.84-1.45,1.9-3.68.92-6.59-1.61-9.62,1.94-1.71,4.54,6.15,3.74,7.49Z"/>
  <path d="M758.61,438.77c-2.22,1.8-4.92,2.36-7.3.45,0-.79,6.66-1.65,6.42-4.01l.79,1.6c1.33-1.84,3.88-2.22,5.37-3.19.37-.24,5.68-6.05,5.86-6.44.45-1-.17-2.6.8-2.66.07.77.67,1.47.46,2.29-.11.42-5.1,5.91-5.79,6.55-1.69,1.58-4.74,3.89-6.62,5.41Z"/>
  <path d="M372.44,249.06c-.87-.65,0-.97.79-1.07,3.04-.39,5.79.49,8.55.56,8.37.22,16.81-.37,25.18-.02.66.03,1.99-.41,1.87.53h-36.39Z"/>
  <path d="M430.77,308.43c-.87-.66,0-.97.79-1.07,2.13-.27,4.72.15,6.96,0,3.32-.23,6.82-.91,10.15-1.09.63-.03,2.97-.37,2.97.55-2.55-.24-6.64,1.61-8.83,1.61h-12.04Z"/>
  <path d="M804.27,215.62c-.03.22-.53,1.53-1.06,1.33.76-7.56-.47-15.31,0-23,.57-.22,1.06,1.76,1.06,1.87,0,5.75.74,14.47,0,19.79Z"/>
  <path d="M508.88,367.8l-1.06-.27.54-7.75,1.06,5.34c.26-3.19,2.93-6.04,4.82-8.56l-5.36,11.23Z"/>
  <path d="M261.67,315.39l-17.39,2.66-8.82.53,4.08-.99c7.44-.32,14.68-2.55,22.13-2.21Z"/>
  <path d="M383.67,507.96c.07.75-1.19.87-1.79,1.14-7.29,3.27-15.07,5.54-22.29,9.01.93-1.35,3-2.09,4.46-2.76,6.25-2.88,13.15-5.02,19.62-7.39Z"/>
  <path d="M790.36,184.33h1.07c.25.22-.53.68-.53.8v32.36h-.54v-33.16Z"/>
  <path d="M137,237.29c-.23-1,.56-1.27,1.06-1.87,4.35-5.16,10.19-10.4,14.98-15.24.23,1-.56,1.27-1.06,1.87-1.87,2.22-4.62,5.07-6.68,7.23-2.65,2.77-5.41,5.5-8.3,8.02Z"/>
  <path d="M388.49,513.31l-32.64,14.97,1.59-1.34c10.3-4.59,20.15-10.6,31.04-13.62Z"/>
  <path d="M27.1,315.04c.47.5.69,1.24,1.26,1.69-1.37.69-2.39-1.86-3.89-2.53-1.4-.63-3.65-.78-5.21-.94l2.13,2.14c.16.83-.79.64-1.24.44-1.68-.76-2.52-2.97-2.5-4.72,3.28,1.17,7.03,1.38,9.44,3.93Z"/>
  <rect x="794.1" y="188.08" width=".54" height="29.95"/>
  <path d="M545.81,195.04c.13.77-.94.74-1.5.9-4.42,1.26-9.96.71-14.55,1.77.22-1.07,1.1-.91,1.88-1.06,4.51-.87,9.57-1.21,14.17-1.61Z"/>
  <rect x="805.88" y="185.94" width=".54" height="26.21"/>
  <path d="M546.35,156.52c-.21,1.07-1.13.88-1.87,1.06-4.79,1.22-9.91,1.49-14.71,2.67-.26-1.61.39-.86,1.3-1.08,4.99-1.23,10.23-1.8,15.29-2.65Z"/>
  <path d="M223.68,311.11l-5.15,1-16.26,1.66c.21-1.01,1.06-.97,1.86-1.08,6.3-.86,13.2-1.19,19.54-1.59Z"/>
  <path d="M546.35,185.41c0,.86-1.83.86-2.49.98-4.54.84-9.48,1.31-14.09,1.68-.13-.8,1-.66,1.6-.8,4.7-1.08,10.16-1.39,14.99-1.87Z"/>
  <path d="M546.35,138.34c.13.77-.94.75-1.49.9-4.75,1.34-10.18,2.14-15.09,2.83-.13-.77.94-.75,1.49-.9,4.7-1.31,10.25-1.95,15.09-2.83Z"/>
  <rect x="801.06" y="193.96" width=".54" height="24.61"/>
  <path d="M236.52,312.18l-18.73,2.66c1.66-1.61,5.49-1.77,7.83-2.06,3.61-.45,7.24-.79,10.89-.61Z"/>
  <path d="M545.81,147.43c.26,1.61-.39.86-1.3,1.08-4.68,1.16-9.58,1.29-14.21,2.66-.26-1.54.33-.88,1.24-1.14,4.61-1.31,9.63-1.38,14.27-2.6Z"/>
  <path d="M545.81,166.15c.13.76-.95.77-1.49.91-4.42,1.1-9.57,1.01-14.03,2.29-.26-1.61.39-.86,1.3-1.08,4.52-1.1,9.59-1.52,14.22-2.12Z"/>
  <path d="M545.81,175.78c.01.83-1.85.89-2.48.99-4.47.75-9.12.77-13.57,1.67-.24-1.59.35-.91,1.34-1.05,4.86-.7,9.8-1.28,14.71-1.62Z"/>
  <path d="M416.85,530.42c-4.57,3.32-10.3,5.71-15.52,8.01,4.57-3.32,10.3-5.71,15.52-8.01Z"/>
  <path d="M671.03,461.42l-4.12,1.49c-3.7,1.89-4.04,6.87-6.58,9.73,1.24-5.37,4.18-11.7,10.69-11.23Z"/>
  <path d="M421.13,535.77l-14.98,8.01c4.22-3.52,9.78-6.4,14.98-8.01Z"/>
  <path d="M546.35,204.66c-.34.78-2.69.84-3.56.98-4.14.65-8.38.83-12.48,1.69-.25-1.63.4-.87,1.35-1.04,4.78-.85,9.85-1.37,14.7-1.62Z"/>
  <polygon points="546.35 214.29 541.8 215.35 530.3 215.89 535.38 214.82 546.35 214.29"/>
  <path d="M35.32,240.49c-1.52.01-2.97-.67-4.3-1.31-.78-.38-2.94-1.24-2.65-2.43l5.88,2.13-.8-3.2c1.29,1.38,2.2,2.84,1.87,4.81Z"/>
  <path d="M14.98,247.45l-2.1,3.01,1.56,2.07-2.11.79-1.57-3.47c.63-.51,3.44-3.09,4.22-2.39Z"/>
  <path d="M347.82,230.87l-6.69,1.06c-2.13-.36-5.81,1.02-7.22-1.06h13.91Z"/>
  <path d="M37.99,357.65l-12.3,5.34c-.9-.86,1.99-1.95,2.4-2.14,2.84-1.3,6.89-2.91,9.9-3.2Z"/>
  <path d="M753.43,293.46l-.63,2.05c-2.61-.17-3.52.95-4.72,3.04l-1.08-.55c.63-2.97,3.71-4.2,6.42-4.53Z"/>
  <path d="M333.38,242.64c-1.68-1.26,2.94-1.12,3.5-1.1,1.36.06,2.57.51,3.73.55,2.14.08,4.29-.08,6.42,0,.66.03,1.99-.41,1.87.53h-15.52Z"/>
  <path d="M374.04,501l-14.45,5.87c3.86-3.22,9.48-5.04,14.45-5.87Z"/>
  <rect x="787.15" y="187.01" width=".54" height="20.33"/>
  <path d="M348.89,246.92c-.83,2.21-3.15.53-4.01.53h-12.58v-.53h16.59Z"/>
  <path d="M349.43,301.48c.34-1.36,1.77-2.89,2.68-4,2.02-2.46,4.23-4.9,6.4-7.23-.61,2.03-2.42,3.96-3.75,5.6-1.53,1.88-3.48,4.08-5.33,5.63Z"/>
  <path d="M441.46,315.39c.13.75-.95.78-1.48.91-4.43,1.07-9.49,1.68-14.03,2.29l15.51-3.2Z"/>
  <polygon points="378.32 504.75 364.95 510.09 374.97 505.4 378.32 504.75"/>
  <path d="M77.06,245.31c.75-2.44,2.39-4.05,4.26-5.63l2.68-4.53c-.3,4.21-4.25,7.3-6.95,10.16Z"/>
  <path d="M653.9,471.57l-.77-5.91-2.43-3.72c3.57,2.14,4.6,5.73,3.2,9.62Z"/>
  <path d="M740.06,428.79c3.61,1.41,6.02,1.55,9.09-1.07.85.86-4.2,3.47-4.54,3.51-1.29.15-4.07-1.03-4.56-2.43Z"/>
  <path d="M358.26,313.78c-.21-.05-.96-.94-.8-1.06,3.48,1.15,6.5.15,9.87-.03.72-.04,3.35-.39,3.5.56-1.28-.57-3.29.54-4.01.54-2.08,0-6.97.41-8.56,0Z"/>
  <path d="M126.82,307.9c.55,1.72-2.44,1.15-3.38.94-1.41-.31-1.68-1.13-2.37-2.29l1.2-1.32c1.27,2.47,1.43,3.08,4.55,2.67Z"/>
  <path d="M816.57,532.02c-.9.15-.6-1.32-.53-1.87.32-2.73,2.35-7.36,4.28-9.36l-3.75,11.23Z"/>
  <path d="M131.64,229.26c-.23-1,.56-1.27,1.06-1.87,2.03-2.41,4.63-4.56,6.95-6.68.23,1-.56,1.27-1.06,1.87-2.03,2.41-4.63,4.56-6.95,6.68Z"/>
  <path d="M266.49,274.73c-.23-1,.56-1.27,1.06-1.87,2.03-2.41,4.63-4.56,6.95-6.68.23,1-.56,1.27-1.06,1.87-2.03,2.41-4.63,4.56-6.95,6.68Z"/>
  <path d="M648.01,472.11l-4.45-3.31-5.18-2.04c3.53-.03,8.4,1.73,9.62,5.34Z"/>
  <path d="M141.81,240.5c-.23-1,.56-1.27,1.06-1.87,1.89-2.24,4.21-4.76,6.42-6.68-.6,1.56-2.33,3.58-3.47,4.82-1.2,1.32-2.58,2.67-4.02,3.74Z"/>
  <path d="M727.21,454.46l-.41-1.75,3.62-8.95c-.11,3.79-2.5,7.03-3.21,10.69Z"/>
  <rect x="333.38" y="236.22" width="15.52" height=".53"/>
  <path d="M650.15,471.04l-2.92-4.3c-1-1.04-2.32-1.63-3.5-2.4-.63-.41-1.38.13-1.06-1.32,3.41,1.51,7.11,3.98,7.48,8.02Z"/>
  <path d="M96.86,267.24c.49-.8,7.09-8.44,7.49-8.02l-5.07,6.43-2.41,1.59Z"/>
  <path d="M815.51,532.02c-1.4.26-.94-.26-1.31-1.06-1.45-3.14-.49-5.4.25-8.56,1.01-.11.43,1.12.38,1.71-.26,2.7-1.12,5.49.69,7.91Z"/>
  <rect x="747.01" y="200.38" width=".54" height="14.44"/>
  <path d="M669.96,466.77c-2.07,2.2-4.21,3.83-5.88,6.41l2.67-5.62.8.81,2.41-1.6Z"/>
  <path d="M489.1,283.82l5.34-9.63c-.86,3.4-2.76,7.3-5.34,9.63Z"/>
  <path d="M694.03,476.92c-1.06.08-.41-1.62-.29-2.16.31-1.37,1.09-3.44,1.64-4.78.36-.89,1.02-2.78,1.86-3.22l-3.21,10.16Z"/>
  <path d="M254.71,318.06l-4.69,1.45-6.54.68c-.02-.8,1.91-.78,2.57-.9,2.85-.5,5.78-.95,8.66-1.23Z"/>
  <path d="M50.3,358.18c.13.77-.9.7-1.47.93-2.89,1.14-6.18,2.17-9.23,2.81-.13-.77.9-.7,1.47-.93,2.89-1.14,6.18-2.17,9.23-2.81Z"/>
  <path d="M152.51,225.53c-1.76,2.93-4.34,5.31-6.95,7.48l1.06-1.87,5.89-5.61Z"/>
  <path d="M251.5,337.32c.05.79-1.92.94-2.47,1-2.56.27-5.13-.16-7.69.6-.22-1.49.25-1,1.33-1.07,2.95-.18,5.9-.14,8.84-.53Z"/>
  <path d="M64.22,342.67c-.77,2.41-1.91,5.02-4.82,5.34.87-.44,4.03-6.13,4.82-5.34Z"/>
  <path class="st1" d="M340.87,283.29v40.65l-67.43,4.82c.03-14.63-.9-29.2-.54-43.87l67.96-1.6Z"/>
  <path d="M521.73,337.85v-39.85l130.76,1.41.64.43.54,42.86-.64.43-48.6-2.09-82.7-3.19ZM651.77,300.94l-128.97-2.14.53,37.45,128.97,5.35-.54-40.66Z"/>
  <path d="M164.28,250.66l36.05.5c.23.06.87,1.76.87,1.9v15.51c-.34.53-.74.69-1.34.8-3.42.63-9.54-.15-13.4-.02-1.27.04-2.44.55-3.7.58-6.05.12-12.57.28-18.48-.56v-18.72ZM177.66,267.78v-14.71c-.34-.5-1.34-.8-1.87-.8h-9.9v15.51h11.77ZM187.83,252.8h-9.1v14.98h9.1v-14.98ZM199.6,252.8h-10.7v14.98h10.7v-14.98Z"/>
  <path d="M164.28,280.88l1.85-.83,34.46-.43c-.05.58.61,1.51.61,1.79v15.51c-.47.76-1.07.74-1.85.83-4.91.58-11.47-.18-16.65-.05s-12.48,1.4-17.09.55c-.6-.11-1-.27-1.34-.8v-16.58ZM199.6,281.15l-10.7.53v14.44h10.7v-14.98ZM177.66,281.69h-11.77v14.98l11.77-.53v-14.44ZM187.83,281.69h-9.1v14.44h9.1v-14.44Z"/>
  <path d="M164.28,222.31l35.59,1.07,1.34.8v16.58c-.47.76-1.07.74-1.85.83-5.76.68-11.96-.43-17.66-.58-4.56-.13-12.05.76-16.08.02-.6-.11-1-.27-1.34-.8v-17.92ZM177.66,223.92h-11.77v15.51h11.77v-15.51ZM187.83,224.45h-9.1v14.98h9.1v-14.98ZM199.6,224.98h-8.83c-.27,0-1.12-.84-1.87-.53v15.51h10.7v-14.98Z"/>
  <path d="M248.29,251.73v17.12l-37.46.53v-18.19l37.46.53ZM223.14,252.8h-11.24c-.2.58.54,1.17.54,1.34v13.64h10.7v-14.98ZM234.38,253.34h-9.36c-.16,0-.41-.68-.8-.53v14.98h10.17v-14.44ZM246.69,253.34h-11.24v14.44h11.24v-14.44Z"/>
  <path d="M248.29,296.13l-36.13,1.09c-.45.06-1.33-.55-1.33-.82v-16.85c10.39-.9,20.88-.18,31.33-.51,2.05-.06,4.55-1.53,6.13.25v16.85ZM234.38,280.62h-10.17v14.44h10.17v-14.44ZM247.22,280.62h-11.77v13.64c.74,1.22,1.15.27,1.34.27h9.9v-13.11c0-.11.8-.61.54-.8ZM223.14,281.15h-11.24c-.2.58.54,1.17.54,1.34v13.11l10.7-.53v-13.91Z"/>
  <path d="M248.29,224.98v17.12l-37.46-.53v-16.31c0-.18-1.07-1.14-.27-1.34l37.72,1.07ZM223.14,226.05l-11.24-.53c.64,4.72,1.01,9.74,0,14.44h11.24v-13.91ZM234.38,226.05h-10.17v13.91l10.17.53v-14.44ZM246.69,226.59c-1.34.68-11.24-1.36-11.24.27v13.64h11.24v-13.91Z"/>
  <path d="M248.29,205.19l-103.28-4.81c-.07-6.69.09-13.39.02-20.08-.08-7.79-.48-15.68-.59-23.49-.02-1.49-.41-7.97.81-8.18l103.03,10.3v46.27ZM246.69,159.73l-100.6-9.1c.45,14.97,1.03,30.19.57,45.23-.03,1.03-.42,1.92-.56,2.91l100.6,4.82v-43.86Z"/>
  <path d="M457.52,415.15l81.55,13.16.99,1.15c.61,14.8.78,29.99-.14,44.8l-2.33-.07c-25.08-6.88-53.2-9.48-77.94-16.77-.79-.23-1.59-.37-2.13-1.08v-41.19ZM539.39,429.32l-80.8-13.37v40.12l80.8,17.12v-43.86Z"/>
  <path d="M167.1,339.31l10.55,3.88c-1.53-.08-1.11,1.8-2.12,2.97-2.32,2.71-7.82,2.25-9.1-1.1-1.01-2.64.26-5.55-1.62-7.74,1.37-.22,1.71,1.16,2.28,1.99ZM174.91,342.74l-7.94-2.75c-.89,5.29,2.94,8.61,7.77,5.91l.17-3.16Z"/>
  <path d="M148.23,333.57c-.01-3.24,2.7-7.02-.34-9.6-1.89-.54-4.9,4.52-5.56,6.11l4.83,2.41-5.93-1.92c.31-2.36,3.73-7.66,6.19-7.66,4.29.76,2.97,5.9,1.95,8.86-.24.7-.15,1.63-1.14,1.8Z"/>
  <path d="M157.33,334.64l-7.49-.54c-.08-1.25-.17-.94.79-1.07,1.97-.26,3.71.52,5.62.54.71-3.82-3.07-5.35-4.81-8.02,3.88.95,6.53,5.16,5.89,9.09Z"/>
  <path d="M441.84,335.34c.49.45,2.46,3.51,2.06,4.13-.86,1.36-6.83,1.57-8.49,2.13-.69.23-.03,1.27-.9,1.06l-1.38-8.02c2.05-1.97,6.81-1.03,8.71.7ZM443.07,339.45c-.83-4.27-5.3-5.28-9.09-4.81l1.07,6.41,8.02-1.6Z"/>
  <path d="M432.78,337.44c.83.83,1.04,4.07.14,4.97-1.1,1.1-5.83,1.13-7.5,1.86-1.65-3.37,4.24-9.95,7.36-6.83ZM426.49,342.66l5.36-.79.29-3.52c-2.71-1.67-5.51,1.63-5.64,4.3Z"/>
  <polygon points="703.66 390.27 703.38 388.64 706.34 379.04 703.66 390.27"/>
  <path d="M728.29,362.99l13.66-3.66c1.84.31.26,7.74.23,9.25-.19,7.91.25,15.85-.05,23.75l-13.84,4.89v-34.23ZM741.66,370.48c.56-1.02-.42-8.33,0-10.16l-12.31,4.01v21.13l8.82-17.67.82-.78c-2.02,5.86-5.01,11.32-7.75,16.86-.44.89-1.89,2.24-1.89,2.39v9.9l12.31-5.08v-20.06l-7.22,14.46-.82.78c2.22-4.95,4.32-10.32,6.8-15.12.46-.88,1.2-.6,1.24-.66Z"/>
  <path d="M781.26,348.55v31.02l-14.44,4.81c-.19-10.64.13-21.29.46-31.85l13.98-3.98ZM780.19,350.15l-11.45,2.62c-1.77,1.21-.43,26.15-.86,30.01l12.3-3.74v-28.89Z"/>
  <path class="st3" d="M246.69,159.73v43.86l-100.6-4.82c.15-.99.53-1.88.56-2.91.47-15.04-.11-30.26-.57-45.23l100.6,9.1Z"/>
  <path d="M774.3,377.97c-1.3-.53.43-3.22.39-4.16l3.89-9.74-4.28,13.9Z"/>
  <polygon points="771.09 376.9 770.79 374.73 775.37 363.53 771.09 376.9"/>
  <polygon class="st2" points="604.68 140.47 604.68 182.19 679.06 174.7 679.06 128.17 604.68 140.47"/>
  <polygon class="st4" points="652.3 341.6 651.77 300.94 522.8 298.8 523.04 315.39 523.04 315.39 523.04 315.39 523.34 336.25 652.3 341.6"/>
  <polygon class="st3" points="458.59 415.95 458.59 456.07 539.39 473.18 539.39 429.32 458.59 415.95"/>
  <g>
    <path class="st0" d="M611.95,160.65l-.09-8.19,3.98-.59c.95-.14,1.67-.05,2.16.27.48.32.72.79.73,1.43,0,.8-.45,1.42-1.38,1.85v.04c.5.06.9.25,1.21.57.31.31.46.72.47,1.22,0,.73-.25,1.33-.76,1.82-.53.52-1.28.85-2.23.99l-4.08.61ZM613.7,155.48l1.95-.29c.4-.06.71-.19.95-.4.24-.21.36-.47.35-.78,0-.3-.12-.53-.35-.66-.23-.13-.55-.17-.94-.11l-1.99.3.02,1.95ZM613.71,156.71l.03,2.29,2.08-.31c.43-.06.77-.22,1.02-.45.25-.24.37-.53.36-.86,0-.37-.14-.64-.42-.81-.27-.17-.62-.22-1.04-.15l-2.03.3Z"/>
    <path class="st0" d="M623.55,159.05c-1.15.17-2.02.06-2.62-.33-.6-.39-.91-1.03-.92-1.92l-.06-5.55,1.8-.27.06,5.55c.01.96.57,1.36,1.68,1.2.56-.08.97-.28,1.25-.59.28-.31.41-.69.41-1.13l-.06-5.53,1.8-.27.06,5.55c0,.89-.28,1.61-.85,2.18-.58.57-1.43.94-2.56,1.11Z"/>
    <path class="st0" d="M628.3,158.21l-.09-8.19,1.8-.27.09,8.19-1.8.27Z"/>
    <path class="st0" d="M631.48,157.73l-.09-8.19,1.8-.27.08,6.8,4.18-.62.02,1.39-5.98.89Z"/>
    <path class="st0" d="M638.43,156.69l-.09-8.19,3.47-.52c1.18-.18,2.13.07,2.85.75.72.68,1.09,1.63,1.1,2.85.02,1.41-.44,2.56-1.38,3.43-.68.63-1.56,1.02-2.63,1.18l-3.32.5ZM640.22,154.99l1.39-.21c.82-.12,1.42-.43,1.78-.92.37-.5.55-1.16.54-2,0-.84-.21-1.48-.61-1.92-.4-.44-.97-.61-1.72-.49l-1.44.22.06,5.34Z"/>
    <path class="st0" d="M646.8,155.44l-.09-8.19,1.81-.27.09,8.19-1.81.27Z"/>
    <path class="st0" d="M649.99,154.97l-.09-8.19,1.83-.27,3.01,4.13c.08.12.18.26.29.44.11.18.19.32.25.45l.1.17h.02c-.04-.57-.06-1.04-.07-1.42l-.05-4.29,1.78-.27.09,8.19-1.74.26-3.09-4.07c-.08-.12-.18-.26-.29-.43-.11-.17-.19-.32-.26-.44l-.1-.17h-.03c.04.57.06,1.05.07,1.43l.05,4.23-1.78.27Z"/>
    <path class="st0" d="M665.04,152.72l-.08-1.09h-.03c-.54.93-1.37,1.48-2.48,1.65-1.3.19-2.35-.05-3.14-.73-.78-.68-1.18-1.64-1.19-2.88-.02-1.41.46-2.59,1.42-3.56.74-.74,1.69-1.19,2.85-1.36,1.09-.16,1.96-.04,2.61.35.66.4,1.07,1.01,1.23,1.81l-1.77.26c-.12-.4-.34-.69-.68-.89-.34-.2-.79-.26-1.34-.17-.8.12-1.42.48-1.85,1.09s-.64,1.34-.63,2.2c0,.85.24,1.51.7,1.98.46.48,1.06.66,1.82.54.66-.1,1.21-.37,1.63-.81.43-.44.64-.9.63-1.39v-.04l-2.14.32v-1.28s3.73-.56,3.73-.56l.05,4.36-1.36.2Z"/>
    <path class="st0" d="M624.05,169.31l-2.68-7.81,1.84-.27,1.2,3.89.41,1.73h.02c.14-.71.27-1.31.39-1.81l.92-4.26,1.74-.26,1.02,3.96.43,1.69h.02c.17-.76.3-1.38.42-1.87l1.07-4.22,1.78-.27-2.44,8.57-1.68.25-1.13-4.23-.33-1.41h-.03c-.09.59-.18,1.09-.27,1.5l-1.04,4.55-1.67.25Z"/>
    <path class="st0" d="M633.48,167.9l-.09-8.19,4.08-.61c.85-.13,1.55-.02,2.08.32.53.34.8.85.81,1.53.01,1.05-.52,1.79-1.61,2.23v.03c.42.05.74.19.96.4.22.22.35.56.42,1.04.02.18.04.39.06.64.02.25.04.44.05.58s.03.28.06.43c.02.14.05.25.09.32.04.08.09.12.15.13v.08s-1.73.26-1.73.26c-.03-.01-.06-.04-.09-.07-.02-.04-.05-.1-.06-.17-.02-.07-.03-.15-.05-.23-.01-.08-.03-.18-.04-.3-.01-.12-.03-.23-.04-.33,0-.1-.02-.22-.04-.37-.01-.15-.02-.28-.04-.37-.09-.92-.67-1.3-1.76-1.14l-1.46.22.04,3.29-1.8.27ZM635.2,160.78l.03,2.28,1.91-.29c.48-.07.84-.23,1.09-.47.25-.25.37-.54.37-.87,0-.34-.13-.6-.37-.78-.25-.18-.6-.23-1.06-.16l-1.97.29Z"/>
    <path class="st0" d="M640.99,166.78l3-8.65,1.87-.28,3.23,7.72-1.88.28-.62-1.65-3.21.48-.56,1.83-1.83.27ZM644.56,160.87l-.77,2.48,2.35-.35-.82-2.24-.38-1.21h-.02c-.14.58-.26,1.02-.36,1.32Z"/>
    <path class="st0" d="M649.84,165.46l-.09-8.19,3.91-.58c1.01-.15,1.79-.01,2.33.42.54.43.81,1.01.82,1.75,0,.78-.25,1.45-.78,2-.53.55-1.25.9-2.17,1.03l-2.19.33.04,2.97-1.87.28ZM651.63,158.43l.03,2.43,1.87-.28c.46-.07.82-.23,1.07-.49.25-.25.37-.57.36-.96,0-.38-.13-.66-.38-.83-.25-.17-.6-.23-1.05-.16l-1.89.28Z"/>
  </g>
  <g>
    <path class="st0" d="M537.13,321.07c-1.24-.04-2.2-.33-2.88-.87-.68-.54-1.04-1.3-1.07-2.27l1.81.05c.06.55.25.94.58,1.19.33.25.82.38,1.48.4.52.01.95-.07,1.28-.25.33-.18.5-.47.5-.87,0-.14-.02-.27-.06-.39-.04-.12-.12-.22-.23-.31s-.22-.17-.31-.22c-.09-.06-.24-.12-.47-.19s-.41-.12-.53-.16-.34-.09-.66-.18c-.39-.11-.71-.19-.97-.27-.25-.08-.53-.19-.83-.34-.3-.15-.54-.32-.71-.5-.18-.18-.32-.41-.44-.7-.12-.29-.18-.62-.18-.98,0-.88.32-1.54.97-1.99.64-.45,1.49-.66,2.54-.63,1.04.03,1.87.3,2.49.81.62.51.97,1.22,1.04,2.13l-1.78-.05c-.05-.44-.24-.79-.56-1.04-.32-.25-.72-.38-1.21-.39-.5-.02-.9.07-1.2.26s-.45.44-.45.76c0,.35.15.61.44.78.3.17.81.35,1.56.53.44.11.81.21,1.09.29.28.09.58.21.91.37s.58.33.77.51c.18.18.34.42.46.72.12.3.19.63.19,1.02,0,.9-.33,1.6-.99,2.09-.66.49-1.51.72-2.57.69Z"/>
    <path class="st0" d="M541.8,321v-9.11s1.85.06,1.85.06v3.57l3.59.11v-3.57l1.85.05v9.11s-1.86-.05-1.86-.05v-4.01s-3.59-.11-3.59-.11v4.01s-1.85-.06-1.85-.06Z"/>
    <path class="st0" d="M557.72,320.35c-.8.86-1.87,1.28-3.2,1.24-1.33-.04-2.4-.52-3.2-1.43-.81-.91-1.21-2.06-1.21-3.44s.4-2.51,1.21-3.38,1.87-1.28,3.2-1.24c1.33.04,2.39.52,3.2,1.43s1.2,2.07,1.2,3.45-.4,2.51-1.2,3.37ZM552.66,319.11c.44.62,1.06.94,1.87.96.81.02,1.43-.26,1.85-.84s.64-1.35.64-2.31-.21-1.74-.64-2.35c-.43-.62-1.05-.94-1.85-.96-.81-.02-1.44.26-1.87.85-.44.59-.66,1.36-.66,2.31s.22,1.72.66,2.34Z"/>
    <path class="st0" d="M559.93,321.55v-9.11s4.02.12,4.02.12c1.04.03,1.84.34,2.39.93.55.58.82,1.28.82,2.1,0,.87-.27,1.55-.82,2.06-.55.51-1.29.75-2.24.72l-2.25-.07v3.3s-1.92-.06-1.92-.06ZM561.85,314.1v2.7l1.92.06c.48.01.84-.1,1.1-.33s.38-.56.38-.99-.13-.76-.38-1c-.26-.24-.61-.37-1.07-.38l-1.94-.06Z"/>
    <path class="st0" d="M568.08,321.79v-9.11s6.55.2,6.55.2v1.57l-4.69-.14v2.19l3.98.12v1.58l-3.98-.12v3.77s-1.86-.06-1.86-.06Z"/>
    <path class="st0" d="M575.67,322.02v-9.11s4.2.13,4.2.13c.88.03,1.59.28,2.13.76.54.48.81,1.1.81,1.86,0,1.16-.56,1.88-1.67,2.15v.04c.43.14.76.35.98.63.22.28.36.7.42,1.24.02.2.04.45.06.72.02.28.04.5.05.66s.03.32.05.49c.02.16.05.29.09.38.04.09.09.15.15.18v.09l-1.78-.05s-.06-.05-.09-.1-.05-.11-.06-.2c-.02-.08-.03-.17-.04-.26-.01-.09-.02-.21-.04-.35-.01-.14-.02-.26-.03-.37,0-.11-.02-.25-.03-.42-.01-.17-.02-.31-.03-.41-.08-1.04-.67-1.57-1.79-1.61l-1.5-.04v3.66s-1.85-.06-1.85-.06ZM577.53,314.45v2.53l1.97.06c.48.01.86-.09,1.12-.31.26-.22.39-.52.39-.89s-.12-.7-.37-.94-.61-.37-1.09-.39l-2.02-.06Z"/>
    <path class="st0" d="M591.21,321.35c-.8.86-1.87,1.28-3.2,1.24-1.33-.04-2.4-.52-3.2-1.43-.81-.91-1.21-2.06-1.21-3.44s.4-2.51,1.21-3.38,1.87-1.28,3.2-1.24c1.33.04,2.39.52,3.2,1.43s1.2,2.07,1.2,3.45-.4,2.51-1.2,3.37ZM586.15,320.11c.44.62,1.06.94,1.87.96.81.02,1.43-.26,1.85-.84s.64-1.35.64-2.31-.21-1.74-.64-2.35c-.43-.62-1.05-.94-1.85-.96-.81-.03-1.44.26-1.87.85-.44.59-.66,1.36-.66,2.31s.22,1.72.66,2.34Z"/>
    <path class="st0" d="M593.42,322.55v-9.11s1.88.06,1.88.06l3.04,5.18c.09.15.18.33.29.54.11.22.19.4.25.54l.1.21h.03c-.04-.63-.05-1.16-.05-1.58v-4.78l1.83.05v9.11s-1.79-.05-1.79-.05l-3.12-5.13c-.09-.15-.18-.33-.29-.54-.11-.21-.2-.39-.26-.54l-.1-.21h-.03c.03.64.05,1.17.05,1.59v4.7s-1.83-.05-1.83-.05Z"/>
    <path class="st0" d="M601.72,315.24v-1.56l7.35.22v1.55l-2.75-.08v7.56s-1.85-.06-1.85-.06v-7.56s-2.75-.08-2.75-.08Z"/>
    <path class="st0" d="M615.7,323.42c-1.24-.04-2.2-.33-2.88-.87-.68-.54-1.04-1.3-1.07-2.27l1.81.05c.06.55.25.94.58,1.19.33.25.82.38,1.48.4.52.02.95-.07,1.28-.25.33-.18.5-.47.5-.87,0-.14-.02-.27-.06-.39-.04-.12-.12-.22-.24-.31-.12-.09-.22-.17-.3-.23-.09-.06-.24-.12-.47-.19-.23-.07-.41-.12-.53-.16s-.34-.09-.66-.18c-.39-.1-.71-.19-.97-.27-.25-.08-.53-.19-.83-.34-.3-.15-.54-.32-.71-.5-.18-.18-.32-.41-.44-.7-.12-.29-.18-.62-.18-.98,0-.88.32-1.54.97-1.99.64-.45,1.49-.66,2.54-.63,1.04.03,1.87.3,2.49.81.62.51.97,1.22,1.04,2.13l-1.78-.05c-.05-.44-.24-.79-.56-1.04s-.72-.38-1.21-.39c-.5-.01-.9.07-1.2.26-.3.19-.45.44-.45.76,0,.35.15.61.44.78.3.17.81.35,1.56.53.44.11.81.21,1.09.29s.58.21.91.37c.33.16.58.33.77.51.18.18.34.42.46.72.12.3.19.64.19,1.02,0,.9-.33,1.6-.99,2.09-.66.49-1.51.72-2.57.69Z"/>
    <path class="st0" d="M620.38,323.35v-9.11s1.85.06,1.85.06v9.11s-1.85-.06-1.85-.06Z"/>
    <path class="st0" d="M630.35,323.65l-.06-1.23h-.03c-.56.93-1.42,1.37-2.57,1.34-1.34-.04-2.41-.51-3.21-1.42-.79-.91-1.19-2.05-1.19-3.43,0-1.56.5-2.79,1.5-3.68.77-.67,1.75-.99,2.94-.96,1.12.03,2.01.34,2.68.91.67.57,1.08,1.32,1.23,2.25l-1.82-.05c-.11-.46-.34-.84-.69-1.12-.35-.29-.81-.44-1.37-.45-.83-.03-1.46.26-1.91.85s-.67,1.36-.67,2.31.23,1.72.7,2.34c.46.62,1.08.94,1.86.96.68.02,1.25-.17,1.69-.58.44-.41.66-.88.66-1.41v-.05l-2.2-.07v-1.43l3.85.12v4.84s-1.4-.04-1.4-.04Z"/>
    <path class="st0" d="M633.04,323.73v-9.11s1.88.06,1.88.06l3.04,5.18c.09.15.18.33.29.54.11.22.19.4.25.54l.1.21h.03c-.04-.63-.05-1.16-.05-1.58v-4.78l1.83.05v9.11s-1.79-.05-1.79-.05l-3.12-5.13c-.09-.15-.18-.33-.29-.54-.11-.21-.2-.39-.26-.54l-.1-.21h-.03c.03.64.05,1.17.05,1.59v4.7s-1.83-.05-1.83-.05Z"/>
  </g>
  <g>
    <path class="st0" d="M281.86,305.87l-.04-7.73,3.44-.17c.72-.04,1.3.13,1.75.51.45.37.67.88.68,1.52,0,.99-.45,1.63-1.36,1.94v.03c.36.09.63.25.81.47.18.23.29.57.35,1.03.01.17.03.38.05.61.02.23.03.42.05.56,0,.14.02.27.04.41.02.14.04.24.08.32s.07.12.12.14v.08l-1.46.07s-.05-.04-.07-.08c-.02-.04-.04-.09-.05-.17-.02-.07-.03-.14-.04-.22s-.02-.17-.03-.29c-.01-.12-.02-.22-.03-.31,0-.09-.02-.21-.03-.36s-.02-.26-.03-.35c-.07-.88-.56-1.29-1.47-1.25l-1.23.06v3.1s-1.5.08-1.5.08ZM283.34,299.32v2.15s1.62-.08,1.62-.08c.4-.02.7-.13.92-.34.21-.21.32-.47.31-.78,0-.32-.1-.58-.3-.77-.2-.19-.5-.28-.89-.26l-1.65.08Z"/>
    <path class="st0" d="M294.58,304.28c-.65.79-1.52,1.2-2.61,1.26-1.09.05-1.97-.28-2.63-1-.66-.72-1-1.67-1-2.84,0-1.18.32-2.16.97-2.95.66-.79,1.53-1.21,2.62-1.27,1.09-.05,1.96.28,2.62,1.01.66.72.99,1.67,1,2.85,0,1.18-.32,2.16-.97,2.94ZM290.43,303.56c.36.49.87.72,1.54.69.66-.03,1.17-.31,1.51-.84.35-.53.52-1.19.51-2,0-.81-.18-1.46-.53-1.95s-.86-.73-1.52-.69c-.66.03-1.18.31-1.53.84-.36.53-.53,1.2-.53,2.01,0,.8.19,1.45.55,1.94Z"/>
    <path class="st0" d="M295.43,305.19l2.57-7.86,1.57-.08,2.68,7.6-1.58.08-.51-1.62-2.7.13-.49,1.67-1.54.08ZM298.46,299.97l-.66,2.26,1.98-.1-.68-2.19-.31-1.18h-.02c-.12.53-.23.93-.31,1.21Z"/>
    <path class="st0" d="M302.88,304.83l-.04-7.73,2.92-.14c.99-.05,1.79.28,2.39.99.61.71.91,1.64.92,2.79,0,1.33-.39,2.37-1.18,3.1-.58.53-1.32.81-2.22.86l-2.8.14ZM304.39,303.4l1.18-.06c.69-.03,1.19-.27,1.5-.7.31-.43.46-1.04.46-1.84,0-.79-.17-1.42-.51-1.87s-.82-.67-1.44-.64l-1.22.06.03,5.04Z"/>
    <path class="st0" d="M312.82,304.51c-1.01.05-1.8-.13-2.36-.55-.56-.42-.86-1.03-.89-1.85l1.49-.07c.05.46.21.78.48.97.27.19.67.27,1.21.24.43-.02.77-.12,1.05-.3.27-.18.4-.43.4-.77,0-.12-.02-.23-.05-.33-.03-.1-.1-.18-.19-.25-.1-.07-.18-.13-.25-.17-.07-.04-.2-.09-.39-.13-.19-.05-.33-.08-.43-.1-.1-.02-.28-.06-.55-.11-.32-.06-.58-.12-.79-.17-.21-.05-.43-.13-.68-.24-.25-.11-.45-.24-.59-.38-.14-.14-.27-.33-.37-.57-.1-.24-.15-.51-.15-.82,0-.74.26-1.33.78-1.75.53-.43,1.22-.66,2.08-.7.85-.04,1.53.13,2.05.53.51.39.8.97.86,1.74l-1.46.07c-.04-.37-.2-.65-.46-.84-.26-.19-.59-.27-.99-.25-.41.02-.74.12-.98.3s-.36.4-.36.68c0,.3.12.5.37.63.24.12.67.24,1.28.35.36.06.66.12.89.18.23.06.48.14.75.26.27.11.48.24.63.39.15.14.28.34.38.58.1.24.15.53.16.85,0,.76-.26,1.38-.8,1.84-.53.46-1.24.71-2.1.75Z"/>
    <path class="st0" d="M316.65,304.14l-.04-7.73,1.52-.08.04,7.73-1.52.08Z"/>
    <path class="st0" d="M319.33,304.01l-.04-7.73,2.92-.14c.99-.05,1.79.28,2.39.99.61.71.91,1.64.92,2.79,0,1.33-.39,2.37-1.18,3.1-.58.53-1.32.81-2.22.86l-2.8.14ZM320.85,302.58l1.17-.06c.69-.03,1.19-.27,1.5-.7s.46-1.04.46-1.84c0-.79-.17-1.42-.51-1.87-.33-.45-.82-.67-1.44-.64l-1.21.06.03,5.04Z"/>
    <path class="st0" d="M326.37,303.66l-.04-7.73,5.51-.27v1.32s-3.98.2-3.98.2v1.73s3.51-.17,3.51-.17v1.29s-3.49.17-3.49.17v2.09s4.03-.2,4.03-.2v1.31s-5.53.27-5.53.27Z"/>
    <path class="st0" d="M279.31,315.86l-.04-7.73,3.35-.17c.8-.04,1.41.12,1.82.47.4.35.6.82.6,1.42,0,.76-.38,1.29-1.17,1.6v.03c.42.11.76.33,1.01.65.26.33.39.72.39,1.19,0,.69-.21,1.23-.65,1.64-.45.43-1.08.67-1.88.71l-3.44.17ZM280.8,311.17l1.64-.08c.33-.02.6-.11.8-.28.2-.17.3-.41.3-.7,0-.29-.1-.51-.29-.66-.19-.15-.46-.22-.79-.2l-1.68.08v1.84ZM280.81,312.33v2.16s1.76-.09,1.76-.09c.36-.02.65-.13.86-.33s.31-.46.31-.78c0-.35-.12-.62-.35-.8-.22-.18-.52-.27-.87-.25l-1.71.08Z"/>
    <path class="st0" d="M286.19,315.52l-.04-7.73,1.52-.08.04,7.73-1.52.08Z"/>
    <path class="st0" d="M288.87,315.39l-.04-7.73,1.52-.08.03,6.43,3.52-.17v1.31s-5.03.25-5.03.25Z"/>
    <path class="st0" d="M294.72,315.1l-.04-7.73,1.52-.08.03,6.43,3.52-.17v1.31s-5.03.25-5.03.25Z"/>
    <path class="st0" d="M300.58,314.81l-.04-7.73,3.35-.17c.8-.04,1.41.12,1.82.47.4.35.6.82.6,1.42,0,.76-.38,1.29-1.17,1.6v.03c.42.11.76.33,1.01.65.26.33.39.72.39,1.19,0,.69-.21,1.23-.65,1.64-.45.43-1.08.67-1.88.71l-3.44.17ZM302.07,310.12l1.64-.08c.33-.02.6-.11.8-.28.2-.17.3-.41.3-.7,0-.29-.1-.51-.29-.66-.19-.15-.46-.22-.79-.2l-1.68.08v1.84ZM302.08,311.27v2.16s1.76-.09,1.76-.09c.36-.02.65-.13.86-.33.21-.2.31-.46.31-.78,0-.35-.12-.62-.35-.8-.23-.18-.52-.27-.87-.25l-1.71.08Z"/>
    <path class="st0" d="M313.35,313.22c-.65.79-1.52,1.21-2.61,1.26s-1.97-.28-2.63-1c-.66-.72-1-1.67-1-2.84,0-1.18.32-2.16.97-2.95.66-.79,1.53-1.21,2.62-1.27,1.09-.05,1.96.28,2.62,1.01.66.72.99,1.67,1,2.85,0,1.18-.32,2.16-.97,2.94ZM309.2,312.5c.36.49.87.73,1.54.69.66-.03,1.17-.31,1.51-.84.35-.53.52-1.19.51-2,0-.81-.18-1.46-.53-1.95-.35-.49-.86-.72-1.52-.69-.66.03-1.18.31-1.53.84-.36.53-.53,1.2-.53,2.01,0,.8.19,1.45.55,1.94Z"/>
    <path class="st0" d="M314.21,314.13l2.57-7.86,1.57-.08,2.68,7.6-1.58.08-.51-1.62-2.7.13-.48,1.67-1.54.08ZM317.24,308.91l-.66,2.26,1.98-.1-.68-2.19-.31-1.18h-.02c-.12.53-.22.93-.31,1.21Z"/>
    <path class="st0" d="M321.65,313.77l-.04-7.73,3.44-.17c.72-.04,1.3.13,1.75.51.44.37.67.88.67,1.53,0,.99-.45,1.63-1.36,1.94v.03c.36.09.63.25.8.47.18.23.29.57.35,1.03.01.17.03.38.05.61.02.23.03.42.04.56s.03.27.04.41c.02.14.04.24.07.32.03.08.07.12.12.14v.08l-1.46.07s-.05-.04-.07-.08c-.02-.04-.04-.09-.05-.17-.01-.07-.03-.14-.04-.22-.01-.07-.02-.17-.03-.29s-.02-.22-.03-.31-.02-.21-.03-.36c-.01-.15-.02-.26-.03-.35-.07-.88-.56-1.29-1.47-1.25l-1.23.06.02,3.1-1.52.08ZM323.14,307.22v2.15s1.62-.08,1.62-.08c.4-.02.7-.13.91-.34.21-.21.32-.47.32-.78,0-.32-.1-.58-.31-.77-.21-.19-.5-.28-.89-.26l-1.65.08Z"/>
    <path class="st0" d="M328.47,313.43l-.04-7.73,2.92-.14c.99-.05,1.79.28,2.39.99.61.71.91,1.64.92,2.79,0,1.33-.38,2.37-1.18,3.1-.58.53-1.32.81-2.22.86l-2.8.14ZM329.98,312l1.18-.06c.69-.03,1.19-.27,1.51-.7.31-.43.46-1.04.46-1.84,0-.79-.17-1.42-.5-1.87-.33-.45-.82-.67-1.44-.64l-1.22.06.03,5.04Z"/>
  </g>
  <g>
    <path class="st0" d="M463.63,443.26l.42-12.17,2.13.34-.17,4.76,4.12.66.17-4.76,2.13.34-.42,12.17-2.13-.34.19-5.36-4.12-.66-.19,5.36-2.13-.34Z"/>
    <path class="st0" d="M481.94,444.7c-.96,1.04-2.2,1.43-3.73,1.19-1.53-.25-2.73-1.03-3.61-2.37-.88-1.33-1.29-2.93-1.23-4.78.06-1.85.58-3.3,1.54-4.34.97-1.04,2.21-1.44,3.74-1.19,1.53.25,2.73,1.04,3.61,2.38s1.28,2.93,1.22,4.78c-.06,1.85-.58,3.29-1.54,4.33ZM476.19,442.31c.48.89,1.18,1.41,2.11,1.55.93.15,1.65-.14,2.17-.86.51-.72.8-1.72.84-2.99.04-1.27-.17-2.35-.63-3.23-.46-.88-1.16-1.4-2.08-1.55-.93-.15-1.66.14-2.19.86-.53.72-.82,1.72-.86,2.99-.04,1.26.17,2.33.65,3.22Z"/>
    <path class="st0" d="M483.08,446.39l4.07-11.58,2.2.36,3.28,12.76-2.21-.36-.61-2.7-3.79-.61-.78,2.47-2.16-.35ZM487.63,439.1l-1.06,3.35,2.77.45-.82-3.66-.36-1.94h-.03c-.2.79-.37,1.38-.5,1.8Z"/>
    <path class="st0" d="M493.5,448.08l.42-12.17,4.81.78c1.01.16,1.81.61,2.41,1.33.6.72.88,1.59.85,2.6-.05,1.55-.73,2.43-2.02,2.63v.05c.49.25.85.58,1.09.99.24.41.37.98.42,1.72,0,.27.02.6.03.97s.02.67.03.89c0,.22.02.44.04.66.02.22.05.39.09.52.04.13.09.21.16.26v.12s-2.04-.33-2.04-.33c-.04-.03-.07-.08-.1-.14s-.05-.16-.06-.28c-.02-.12-.03-.24-.04-.36-.01-.12-.02-.28-.03-.47,0-.19-.01-.36-.02-.5,0-.14-.01-.33-.02-.57,0-.23-.01-.42-.02-.56-.04-1.4-.7-2.2-1.98-2.41l-1.72-.28-.17,4.88-2.13-.34ZM495.98,438.24l-.12,3.39,2.26.36c.56.09.99,0,1.3-.25.31-.26.47-.64.49-1.14.02-.51-.11-.95-.38-1.31-.27-.36-.69-.59-1.23-.68l-2.32-.37Z"/>
    <path class="st0" d="M503.05,449.62l.42-12.17,4.09.66c1.39.22,2.48.98,3.28,2.28s1.17,2.86,1.11,4.67c-.07,2.1-.69,3.6-1.84,4.51-.84.65-1.89.88-3.15.67l-3.91-.63ZM505.25,447.83l1.64.26c.97.16,1.68-.05,2.15-.64.46-.58.71-1.5.76-2.74s-.16-2.28-.59-3.1c-.44-.82-1.1-1.3-1.98-1.44l-1.7-.27-.27,7.93Z"/>
    <path class="st0" d="M512.92,451.21l.42-12.17,2.13.34-.42,12.17-2.13-.34Z"/>
    <path class="st0" d="M516.67,451.81l.42-12.17,2.16.35,3.26,7.35c.09.21.19.46.31.77.11.3.2.56.26.76l.11.29h.03c-.01-.84,0-1.55.01-2.11l.22-6.38,2.1.34-.42,12.17-2.05-.33-3.35-7.3c-.09-.21-.19-.46-.31-.76-.12-.3-.21-.55-.27-.75l-.11-.29h-.03c0,.85,0,1.56-.01,2.13l-.22,6.28-2.1-.34Z"/>
    <path class="st0" d="M534.42,454.68v-1.64s-.04,0-.04,0c-.69,1.15-1.69,1.63-3.01,1.41-1.53-.25-2.74-1.04-3.62-2.36-.87-1.33-1.27-2.91-1.21-4.75.07-2.09.7-3.65,1.89-4.69.91-.79,2.05-1.07,3.42-.85,1.28.21,2.29.74,3.04,1.6.74.86,1.18,1.92,1.31,3.19l-2.08-.34c-.11-.63-.35-1.17-.74-1.6-.39-.43-.91-.7-1.55-.81-.95-.15-1.69.13-2.23.85s-.83,1.72-.88,2.99c-.04,1.26.19,2.34.69,3.23s1.2,1.41,2.09,1.55c.78.13,1.44-.05,1.96-.53.53-.48.8-1.08.83-1.79v-.07s-2.52-.41-2.52-.41l.06-1.91,4.41.71-.22,6.47-1.6-.26Z"/>
  </g>
  <g>
    <path class="st0" d="M154.76,179.42l.15-10.98,5.35.35c1.12.07,2.02.41,2.71,1.02.68.61,1.02,1.37,1,2.28-.02,1.4-.74,2.24-2.18,2.52v.05c.55.19.96.46,1.24.81.27.35.44.86.51,1.52.02.25.04.54.06.87.02.34.04.6.05.8.01.19.03.39.06.59.02.2.06.35.11.46.05.11.11.18.19.22v.11s-2.27-.15-2.27-.15c-.04-.02-.08-.06-.11-.12s-.06-.14-.08-.24c-.02-.1-.04-.21-.05-.32-.01-.11-.03-.25-.04-.42s-.03-.32-.04-.45-.02-.3-.03-.51c-.01-.21-.02-.38-.03-.5-.08-1.26-.83-1.93-2.26-2.02l-1.91-.13-.06,4.41-2.37-.15ZM157.26,170.39l-.04,3.06,2.51.16c.62.04,1.1-.07,1.43-.32.34-.25.51-.61.52-1.06,0-.46-.15-.85-.46-1.15-.31-.31-.77-.48-1.38-.52l-2.58-.17Z"/>
    <path class="st0" d="M174.61,179.36c-1.04,1-2.41,1.45-4.1,1.34s-3.05-.74-4.07-1.87c-1.01-1.14-1.51-2.54-1.49-4.21.02-1.67.56-3.01,1.6-4.02,1.05-1.01,2.42-1.46,4.11-1.35s3.05.74,4.06,1.88c1.01,1.14,1.5,2.55,1.48,4.22-.02,1.67-.55,3.01-1.59,4.01ZM168.17,177.62c.55.76,1.34,1.18,2.38,1.25,1.03.07,1.83-.24,2.38-.93.55-.69.84-1.6.85-2.75.02-1.15-.24-2.1-.77-2.86-.54-.76-1.32-1.18-2.35-1.24-1.03-.07-1.84.24-2.41.93-.57.69-.87,1.61-.88,2.76-.01,1.14.25,2.09.8,2.85Z"/>
    <path class="st0" d="M186.64,180.14c-1.04,1-2.4,1.45-4.1,1.34s-3.05-.74-4.07-1.87c-1.01-1.14-1.51-2.54-1.49-4.21.02-1.67.56-3.01,1.6-4.01,1.05-1.01,2.42-1.46,4.11-1.35s3.05.74,4.05,1.88c1.01,1.14,1.5,2.55,1.48,4.22-.02,1.67-.55,3.01-1.59,4.01ZM180.2,178.41c.55.76,1.34,1.18,2.38,1.25,1.03.07,1.83-.24,2.38-.93.55-.69.84-1.6.85-2.75.02-1.15-.24-2.1-.77-2.86-.53-.76-1.32-1.18-2.35-1.24-1.03-.07-1.84.24-2.41.93-.57.69-.87,1.61-.88,2.76-.01,1.14.25,2.09.8,2.85Z"/>
    <path class="st0" d="M189.44,181.69l.15-10.98,8.35.54-.03,1.89-5.99-.39-.04,2.64,5.08.33-.03,1.9-5.08-.33-.06,4.55-2.37-.15Z"/>
    <path class="st0" d="M206.39,183.04c-1.58-.1-2.8-.5-3.66-1.18-.86-.69-1.31-1.62-1.33-2.79l2.32.15c.07.66.31,1.15.72,1.46.41.31,1.04.5,1.88.55.66.04,1.21-.04,1.64-.24.43-.2.64-.54.65-1.03,0-.17-.02-.33-.06-.47-.05-.14-.15-.27-.3-.39-.15-.12-.28-.21-.39-.29-.11-.07-.31-.16-.6-.25-.29-.1-.51-.17-.66-.21-.15-.05-.43-.13-.85-.25-.5-.14-.91-.27-1.23-.37s-.67-.25-1.06-.45c-.38-.2-.69-.41-.91-.63-.22-.22-.4-.51-.55-.87-.15-.35-.22-.75-.21-1.19.01-1.05.43-1.84,1.26-2.35.83-.51,1.91-.73,3.25-.64,1.33.09,2.38.45,3.17,1.1.79.65,1.22,1.52,1.29,2.62l-2.27-.15c-.06-.54-.29-.96-.69-1.28-.4-.31-.92-.49-1.54-.53-.64-.04-1.16.04-1.54.25-.38.21-.58.51-.58.9,0,.42.18.74.55.96.37.22,1.03.46,1.98.71.56.15,1.02.28,1.38.41.36.12.74.28,1.16.49.42.21.74.42.97.65.23.23.42.53.58.89.15.36.23.78.22,1.24-.01,1.09-.44,1.91-1.29,2.47-.85.56-1.94.8-3.29.71Z"/>
    <path class="st0" d="M212.37,183.18l.15-10.98,2.37.16-.15,10.98-2.37-.16Z"/>
    <path class="st0" d="M225.1,184.01l-.06-1.48h-.03c-.74,1.09-1.84,1.59-3.3,1.49-1.71-.11-3.07-.73-4.07-1.86-1-1.13-1.48-2.53-1.46-4.18.03-1.88.69-3.34,1.97-4.36.99-.78,2.25-1.11,3.77-1.01,1.42.09,2.56.5,3.4,1.22s1.36,1.65,1.54,2.78l-2.32-.15c-.14-.56-.42-1.02-.86-1.39-.44-.36-1.02-.57-1.74-.61-1.06-.07-1.87.24-2.46.93-.58.69-.88,1.61-.89,2.75-.01,1.14.27,2.09.85,2.85.58.77,1.37,1.18,2.36,1.25.87.06,1.59-.15,2.16-.62.58-.47.87-1.03.88-1.67v-.06l-2.81-.18.02-1.72,4.91.32-.08,5.84-1.78-.12Z"/>
    <path class="st0" d="M228.53,184.24l.15-10.98,2.4.16,3.8,6.38c.11.18.23.4.36.67.13.27.24.49.31.67l.13.26h.03c-.03-.76-.05-1.4-.04-1.91l.08-5.76,2.33.15-.15,10.98-2.29-.15-3.9-6.33c-.11-.18-.23-.4-.37-.66s-.25-.48-.32-.66l-.13-.25h-.03c.03.77.05,1.41.04,1.92l-.08,5.67-2.33-.15Z"/>
  </g>
</svg>