<?xml version="1.0" encoding="UTF-8"?>
<svg id="Layer_1" xmlns="http://www.w3.org/2000/svg" version="1.1" xmlns:xlink="http://www.w3.org/1999/xlink" viewBox="0 0 205.99 44.06">
  <!-- Generator: Adobe Illustrator 29.7.1, SVG Export Plug-In . SVG Version: 2.1.1 Build 8)  -->
  <defs>
    <style>
      .st0 {
        fill: #ed262d;
      }

      .st1 {
        fill: #e7cd21;
      }

      .st2 {
        fill: #231f20;
      }

      .st3 {
        fill: #008f61;
      }

      .st4 {
        fill: #fdd508;
      }

      .st5 {
        fill: none;
      }

      .st6 {
        fill: #643b97;
      }

      .st7 {
        fill: #fcdf09;
      }

      .st8 {
        fill: #16a36c;
      }

      .st9 {
        fill: #faa834;
      }

      .st10 {
        fill: #fdbf12;
      }

      .st11 {
        fill: #e12127;
      }

      .st12 {
        fill: #1eb57c;
      }

      .st13 {
        fill: #06a770;
      }

      .st14 {
        fill: #009061;
      }

      .st15 {
        fill: #faec1e;
      }

      .st16 {
        clip-path: url(#clippath);
      }

      .st17 {
        fill: #08090b;
      }
    </style>
    <clipPath id="clippath">
      <path class="st5" d="M52.81,11.84h-29.09c-3.13,0-5.81-1.97-6.85-4.74-.3.8-.47,1.68-.47,2.59h0c0,4.05,3.28,6.68,7.32,6.68h29.09c4.05,0,7.32-2.64,7.32-6.68h0c0-.91-.17-1.78-.47-2.59-1.05,2.77-3.72,4.74-6.85,4.74Z"/>
    </clipPath>
  </defs>
  <g>
    <path class="st9" d="M34.04,27.02c1.43,2.9,2.52,5.84,2.19,9.15h4.24c.23-.88.05-1.8.14-2.66.24-2.37,1.23-4.36,2.18-6.49h3.69c-.93,1.76-2.09,3.49-2.53,5.47-.33,1.49-.15,2.9-.23,4.41l-1.92,2.38-6.45.03c-.59-.11-1.85-2.07-2.36-2.54.68-3.66-.8-6.74-2.63-9.75h3.69Z"/>
    <path class="st6" d="M29.56,23.72h4.54c-1.67-2.31-3.96-3.64-6.83-4.05l2.28,4.05Z"/>
    <path class="st6" d="M48.41,23.72h-4.54c1.67-2.31,3.96-3.64,6.83-4.05l-2.28,4.05Z"/>
    <g class="st16">
      <path class="st7" d="M49.31,45.43h-.09l-.13-.22c.07.07.15.14.22.22Z"/>
      <path class="st7" d="M49.05,45.16l-.13-.13s.09.09.13.13Z"/>
      <g>
        <path class="st17" d="M16.17,14.12c.18-.05.31-.26.43-.39.18-.2.37-.37.56-.56.09-.09.17-.17.26-.26.19-.13.32-.31.48-.48.2-.2.43-.37.6-.6.01-.01.03-.03.04-.04s.03-.03.04-.04c.07-.07.14-.14.22-.22.04-.04.09-.09.13-.13.94-.93,1.88-1.87,2.81-2.81.01-.01.03-.03.04-.04.32-.33.63-.67.95-.99l3.11-3.11s.03-.03.04-.04.03-.03.04-.04c.09-.09.17-.17.26-.26.29-.29.66-.58.91-.91.01-.02.03-.03.04-.04h.04c.08-.02.09-.09.13-.13.05-.05.08-.08.13-.13l.35-.35s.06-.06.09-.09c.26-.26.52-.52.78-.78.17-.17.35-.35.52-.52.19-.19.38-.38.56-.56,1-1,1.98-2.02,2.98-3.02.27-.27.58-.58.86-.86l.35-.35s.03-.03.04-.04c.3-.3.61-.6.91-.91.03-.03.06-.06.09-.09.06-.06.12-.11.17-.17.01-.01.03-.03.04-.04.44-.45.89-.89,1.34-1.34.01-.01.03-.03.04-.04.13-.13.26-.26.39-.39.03-.03.06-.06.09-.09l.09-.09s.03-.03.04-.04.03-.03.04-.04.03-.03.04-.04c.31-.31.62-.63.95-.93l-.26-.02c-3.48,0-6.97,0-10.45,0-.06,0-.12,0-.17,0-.03,0-.06,0-.09,0v-11.06h.13c-.02.16.13.21.22.3.07.07.14.14.22.22.03.03.06.06.09.09s.06.06.09.09c.11.11.23.23.35.35.03.03.06.06.09.09.01.01.03.03.04.04l.43.43c.2.2.4.4.6.6.35.35.69.69,1.04,1.04.03.03.06.06.09.09.01.01.03.03.04.04s.03.03.04.04l.35.35c.16.16.32.32.48.48.03.03.06.06.09.09.07.07.14.14.22.22.03.03.06.06.09.09.19.19.37.37.56.56.04.04.09.09.13.13.01.01.03.03.04.04.04.04.09.09.13.13,1.74,1.74,3.49,3.46,5.2,5.23.15.15.25.14.33.39V3.14h-11.02l-.04.02s0,.1,0,.15v10.89s11.02,0,11.02,0c.1,3.63.02,7.3.04,10.95.03.06.07-.05.09-.06.5-.45.95-.95,1.43-1.43.03-.03.06-.06.09-.09.01-.01.03-.03.04-.04s.03-.03.04-.04c.03-.03.06-.06.09-.09l.39-.39s.03-.03.04-.04.03-.03.04-.04c.06-.06.12-.12.17-.17.09-.09.17-.17.26-.26.03-.03.06-.06.09-.09.04-.04.09-.09.13-.13.84-.84,1.8-1.67,2.59-2.55h.04l2.42,2.42c.06.06.12.12.17.17.18.19.38.37.56.56.01.01.03.03.04.04l.6.6c.55.56,1.08,1.14,1.64,1.68v.04h-11.06c-1.84-1.83-3.64-3.71-5.49-5.53-.1-.09-.18-.19-.3-.26-.03-.04-.06-.06-.09-.09l-.95-.95c-.15-.15-.23-.25-.39-.39-.08-.12-.2-.2-.3-.3-.03-.03-.06-.06-.09-.09-.47-.48-.95-.96-1.43-1.43-.07-.07-.15-.14-.22-.22-.1-.1-.2-.2-.3-.3-.01-.01-.03-.03-.04-.04l-.22-.22c-.09-.09-.17-.21-.26-.3-.06-.06-.12-.12-.17-.17-.01-.01-.03-.03-.04-.04s-.03-.03-.04-.04-.03-.03-.04-.04-.03-.03-.04-.04c-.06-.06-.1-.11-.17-.17-.13-.11-.26-.31-.39-.39-.01,0-.03-.04-.04-.04-.04,0-.09,0-.13,0h-10.89v-.09Z"/>
        <path class="st17" d="M49.35-7.92v-.04h10.99c.06-.03-.05-.07-.06-.09-.29-.32-.6-.6-.91-.91l-.52-.52c-.13-.13-.26-.26-.39-.39-.06-.06-.12-.12-.17-.17-.35-.34-.69-.69-1.04-1.04-.01-.01-.03-.03-.04-.04-.36-.36-.72-.72-1.08-1.08-.07-.07-.14-.14-.22-.22-.12-.11-.23-.23-.35-.35l-.3-.3s-.03-.03-.04-.04c-.08-.13-.2-.21-.3-.32-.03-.04-.03-.1-.04-.11l5.44-5.44h.09V-7.92c-.08.07-.14.14-.22.22-.01.01-.03.03-.04.04-.04.04-.09.09-.13.13-.01.01-.03.03-.04.04-.06.06-.12.12-.17.17-.01.01-.03.03-.04.04-.06.06-.12.12-.17.17s-.12.12-.17.17c-.29.29-.58.58-.86.86-.03.03-.06.06-.09.09-.06.06-.12.12-.17.17-.03.03-.06.06-.09.09-.12.11-.23.23-.35.35-.03.03-.06.06-.09.09s-.06.06-.09.09-.06.06-.09.09-.06.06-.09.09c-.01.01-.03.03-.04.04-.22.22-.43.43-.65.65-.01.01-.03.03-.04.04-.04.04-.09.09-.13.13-.01.01-.03.03-.04.04s-.03.03-.04.04-.03.03-.04.04c-.03.03-.06.06-.09.09-.01.01-.03.03-.04.04-.2.2-.4.4-.6.6-.01.01-.03.03-.04.04-.06.06-.12.12-.17.17-.01.01-.03.03-.04.04-.03.03-.06.06-.09.09-.01.01-.03.03-.04.04-.08.08-.2.14-.26.26-.07.06-.12.12-.17.17-.03.03-.06.06-.09.09-1.88,1.79-3.62,3.73-5.53,5.49,0-3.67,0-7.35,0-11.02Z"/>
        <path class="st14" d="M49.31-7.87l.04,10.97s0,.03,0,.04c-3.67,0-7.35.02-11.02-.02,0-.06.05-.09.09-.13,1.7-2.02,4.07-3.79,5.79-5.83,1.79-1.47,3.29-3.63,5.1-5.03Z"/>
        <path class="st14" d="M49.35,3.14h11.06v22.12h-.04l-5.49-5.49c1.67-1.67,3.33-3.43,5.03-5.1.12-.12.46-.3.41-.47-.03-.11-.03-.07-.09-.13-.08-.08-.18-.17-.26-.26.09-.02-.04-.11-.06-.13-.77-.77-1.58-1.54-2.3-2.33l-.32-.21c-.13-.13-.26-.26-.39-.39l-.15-.22-.37-.3s-.03-.03-.04-.04c-.05-.12-.19-.28-.3-.3-.01-.01-.03-.03-.04-.04-.06-.18-.26-.32-.39-.45-.02-.02-.11-.15-.13-.06-.1-.1-.2-.2-.3-.3l-.19-.26c-.58-.58-1.22-1.15-1.8-1.73-.66-.67-1.39-1.48-2.12-2.16-.32-.3-.64-.59-.95-.91.08-.01,0-.11-.03-.13-.08-.08-.21-.15-.3-.23-.13-.12-.26-.32-.41-.37h-.04s0-.03,0-.04,0-.03,0-.04Z"/>
        <path class="st17" d="M38.47,14.03s0-.03,0-.04c.01-.02.03-.03.04-.04.07-.09.21-.2.3-.3.04-.04.08-.08.13-.13l.04-.04s.09-.08.13-.13l.04-.04s.09-.08.13-.13c.56-.5,1.07-1.06,1.6-1.6.01-.01.03-.03.04-.04l.04-.04s.03-.03.04-.04c.04-.04.09-.09.13-.13.01-.01.03-.03.04-.04l.09-.09s.06-.06.09-.09l.04-.04s.09-.09.13-.13l.04-.04s.06-.06.09-.09c.22-.22.43-.43.65-.65.03-.03.06-.06.09-.09.06-.06.12-.11.17-.17.01-.01.03-.03.04-.04.19-.19.38-.37.56-.56.06-.06.11-.09.17-.17.07-.02.09-.08.13-.13,0,0,.03-.03.04-.04l.13-.13s.03-.03.04-.04c.03-.03.06-.06.09-.09,1.82-1.75,3.55-3.68,5.4-5.38.05-.05.09-.11.17-.11,0,.01,0,.03,0,.04,0,3.66,0,7.32,0,10.97h10.97c.05.17-.29.36-.41.47-1.7,1.67-3.37,3.43-5.03,5.1s-3.69,3.5-5.34,5.31c-.05.05-.11.09-.11.17h-.09v-11.02l-10.97-.04c-.01-.08.05-.11.09-.17Z"/>
        <path class="st17" d="M16.17-7.92v-11.06h.13l5.44,5.44-.48.52s-.03.03-.04.04c-.09.09-.17.17-.26.26-.01.01-.03.03-.04.04-.43.37-.81.8-1.21,1.21-.01.01-.03.03-.04.04-.03.03-.06.06-.09.09-.01.01-.03.03-.04.04-.04.04-.09.09-.13.13-.01.01-.03.03-.04.04l-.65.65s-.03.03-.04.04c-.16.1-.26.26-.39.39-.01.01-.03.03-.04.04-.3.31-.6.61-.91.91-.03.03-.06.06-.09.09-.06.06-.12.12-.17.17-.03.03-.06.06-.09.09-.16.16-.34.29-.48.48-.01.02-.03.03-.04.04l-.17.26c2.92.02,5.85.04,8.77.04.71,0,1.41,0,2.12,0,0,.03-.04.06-.04.09-.09.03-.12.12-.17.17-.01.01-.03.03-.04.04-.45.44-.92.87-1.34,1.34-.07.07-.14.15-.22.22-.14.14-.26.32-.43.43l-3.2,3.2s-.08-.02-.13-.06c-1.82-1.8-3.6-3.65-5.44-5.42Z"/>
        <path class="st11" d="M16.17-7.92c1.84,1.78,3.62,3.63,5.44,5.42.05.05.12.05.13.06.65.64,1.27,1.31,1.94,1.94l1.77,1.77c.47.5.95,1.01,1.43,1.51.1.11.21.23.3.35h-11.02V-7.92Z"/>
        <path class="st14" d="M16.17,25.22l11.02-11.02s.03.04.04.04v.26l-.04,10.76h-11.02v-.04Z"/>
        <path class="st11" d="M32.81-13.58c.1-.1.2-.2.3-.3.87-.9,1.79-1.79,2.68-2.68.13-.13.26-.26.39-.39.53-.53,1.06-1.07,1.6-1.6.14-.14.32-.26.43-.43h.09l5.53,5.49v.04c-.94.91-1.85,1.83-2.76,2.76-.04.04-.09.08-.13.13-.04.04-.09.09-.13.13l-.3.3c-.23.22-.38.37-.6.6l-.17.17s-.06.06-.09.09l-.22.22c-.36.34-.7.61-1.04.99-.01.01-.13.06-.06.09,3.68,0,7.36,0,11.04,0v.04s-.03.03-.04.04c-1.8,1.4-3.31,3.56-5.1,5.03-1.72,2.04-4.09,3.81-5.79,5.83-.03.04-.1.07-.09.13,3.67.04,7.35.02,11.02.02,0,.01,0,.03,0,.04-.08,0-.12.06-.17.11-1.85,1.7-3.58,3.63-5.4,5.38l-.04-.04c-1.14-1.16-2.3-2.31-3.46-3.46-.43-.43-.86-.87-1.3-1.3-.01-.01-.03-.03-.04-.04-.1-.09-.17-.15-.26-.26-.03-.04-.03-.06-.09-.09-.11-.06-.18-.27-.3-.3v-.39c.07-.05.04-.16.04-.24.04-3.43-.04-6.86,0-10.29.02-.07-.04-.11-.05-.15-.08-.25-.18-.24-.33-.39-1.71-1.77-3.46-3.49-5.2-5.23.02-.02.03-.07.04-.09Z"/>
        <path class="st11" d="M54.88-2.39s.06.06.09.09c.01.01.03.03.04.04.03.03.06.06.09.09.09.09.17.17.26.26.06.06.12.12.17.17.03.03.06.06.09.09,1.45,1.42,2.88,3.04,4.36,4.39.05.05.09.11.17.11.08.09.15.2.26.26v.04h-11.06s0-.03,0-.04c1.91-1.76,3.65-3.7,5.53-5.49Z"/>
        <path class="st11" d="M16.17,14.24c3.07,0,6.15,0,9.23,0,.47,0,.94,0,1.42,0,.07,0,.19.03.24-.04.04,0,.09,0,.13,0l-11.02,11.02v-10.97Z"/>
        <path class="st3" d="M16.17,3.14h.22c.15.28.42.46.65.69,0,0-.04.02-.02.04.1.11.28.27.41.35.01.01.03.03.04.04l1.25,1.25s.03.03.04.04c.06.06.12.12.17.17.01.01.03.03.04.04-.02.13,0,.15.13.13.01.01.03.03.04.04,0,.08.05.13.11.17l.02-.04c.06.06.12.12.17.17-.08.03.09.16.11.17.18.16.35.34.54.47.01.01.03.03.04.04.06.18.27.35.43.43.01.01.03.03.04.04.06.07.07.19.17.17.01.01.03.03.04.04l.45.55c.23.07.24.34.46.4-.93.94-1.87,1.87-2.81,2.81l-.02-.04c-.06.05-.11.09-.11.17-.07.07-.14.14-.22.22l-.04.04s-.03.03-.04.04c-.2.2-.41.39-.6.6-.16.16-.32.32-.48.48-.09.09-.17.17-.26.26-.19.08-.35.28-.5.43-.02.02-.15.11-.06.13-.12.13-.25.34-.43.39V3.14Z"/>
        <path class="st11" d="M27.49,24.96c.26-.28.55-.54.82-.82.31-.31.6-.64.91-.95.04-.04.09-.09.13-.13s.09-.09.13-.13c.01-.01.03-.03.04-.04.06-.06.12-.11.17-.17.01-.01.03-.03.04-.04s.03-.03.04-.04c.03-.03.06-.06.09-.09.32-.32.63-.63.95-.95.01-.01.03-.03.04-.04.06-.06.12-.12.17-.17.09-.09.17-.17.26-.26.01-.01.03-.03.04-.04.06-.06.12-.12.17-.17.01-.01.03-.03.04-.04.03-.03.06-.06.09-.09.04-.04.11-.06.13-.13.24-.2.43-.43.65-.65l.04-.04s.09-.1.13-.13.09-.06.13-.09c1.85,1.82,3.65,3.7,5.49,5.53h-10.97v-.04l.26-.26Z"/>
        <path class="st17" d="M49.27-18.98c0,.12-.11.15-.17.22-.85.9-1.76,1.76-2.64,2.64-.01.01-.03.03-.04.04-.03.03-.06.06-.09.09-.01.01-.03.03-.04.04-.06.06-.12.12-.17.17-.01.01-.03.03-.04.04-.75.75-1.48,1.52-2.25,2.25l-5.53-5.49h10.97Z"/>
        <path class="st11" d="M54.88,19.77l5.49,5.49h-10.93c0-.09.06-.12.11-.17,1.65-1.81,3.59-3.57,5.34-5.31Z"/>
        <path class="st10" d="M54.97-2.47c.06-.05.1-.11.17-.17,0,0,.05.01.07-.01.05-.04.12-.19.18-.25.01-.01.03-.03.04-.04l.09-.09s.03-.03.04-.04l.17-.17s.03-.03.04-.04c.23-.16.44-.38.6-.6.01-.01.03-.03.04-.04l.09-.09s.03-.03.04-.04l.04-.04s.03-.03.04-.04l.13-.13s.03-.03.04-.04c.28-.14.46-.41.65-.65.01-.01.03-.03.04-.04.09.01.1,0,.09-.09.03-.03.06-.06.09-.09.09.01.1,0,.09-.09.03-.03.06-.06.09-.09.14-.06.31-.19.35-.35.03-.03.06-.06.09-.09.11,0,.14-.09.17-.17.03-.03.06-.06.09-.09l.41-.34c.15-.17.36-.3.45-.52.06-.06.12-.12.17-.17.1,0,.17-.07.17-.17.01-.01.03-.03.04-.04.11,0,.14-.09.17-.17.01-.01.03-.03.04-.04l.13-.13s.03-.03.04-.04l.22-.13V3.1c-.11-.06-.18-.17-.26-.26-1.34-1.53-3.01-2.86-4.35-4.4-.01-.01-.17-.17-.19-.09-.03-.03-.06-.06-.09-.09l.04-.02c-.06-.06-.12-.15-.22-.15-.09-.09-.17-.17-.26-.26l-.09-.09s-.03-.03-.04-.04v-.17Z"/>
        <path class="st11" d="M60.33-18.98l-5.44,5.44s-.07-.03-.09-.04c-1.72-1.83-3.64-3.49-5.36-5.31-.02-.02-.03-.06-.04-.09h10.93Z"/>
        <path class="st11" d="M27.19-18.98s-.05.09-.04.13c-.08,0-.12.06-.17.11-.47.43-.9.91-1.34,1.36-.1.09-.23.16-.33.26-.89.85-1.75,1.76-2.61,2.64,0,0,0,.04,0,.04l-.09.09s-.09.09-.13.13-.09.09-.13.13-.09.09-.13.13l-.04.04s-.06.06-.09.09l-.04.04s-.03.03-.04.04l-.09.09s-.03.03-.04.04l-.04.04s-.03.03-.04.04h-.04l-5.44-5.44h10.89Z"/>
        <path class="st14" d="M27.36-18.98h10.84c-.11.17-.29.29-.43.43-.17-.23-.13.05-.17.11-.09.14-.69.69-.87.87-.16.16-.32.32-.5.49-.02.02-.15.11-.06.13-.13.13-.26.26-.39.39-.02-.09-.11.05-.13.06-.81.85-1.66,1.66-2.48,2.48-.02.02-.15.11-.06.13-.1.1-.2.2-.3.3l-.17-.04s-.03-.03-.04-.04l-.13-.13c-.19-.19-.37-.38-.56-.56.01-.08,0-.1-.09-.09-.07-.07-.14-.14-.22-.22l-.09-.09c-.16-.16-.32-.32-.48-.48-.11-.11-.23-.23-.35-.35-.01-.01-.03-.03-.04-.04l-.04-.04s-.06-.06-.09-.09c0-.09-.06-.12-.11-.17-.25-.27-.54-.54-.8-.8-.02-.02-.11-.15-.13-.06-.2-.2-.4-.4-.6-.6-.14-.14-.29-.29-.43-.43-.01-.01-.03-.03-.04-.04l-.09-.09c-.11-.11-.23-.23-.35-.35.01-.08,0-.1-.09-.09-.03-.03-.06-.06-.09-.09,0-.12-.12-.18-.19-.26l-.02.04c-.09-.09-.24-.14-.22-.3Z"/>
        <path class="st15" d="M25.07-7.96c.7,0,1.41,0,2.12,0v-10.74c.03-.05-.04-.13-.04-.15,0-.04.02-.09.04-.13h.04V-7.92s-.03,0-.04,0c-.71,0-1.41,0-2.12,0v-.04Z"/>
        <path class="st0" d="M27.06,14.2c-.04.07-.16.04-.24.04-.48,0-.95,0-1.42,0-3.08,0-6.15,0-9.23,0v-.04h10.89Z"/>
        <path class="st3" d="M49.35-18.98h.04s.03.07.04.09l-.04,10.89h-.04v-10.97Z"/>
        <path class="st15" d="M49.35,14.33v10.93h-.09v-.04c.11-3.54,0-7.1.04-10.65,0-.07-.03-.19.04-.24Z"/>
        <path class="st4" d="M49.27-18.98h.09v10.93h-.04v-10.82s-.15.08-.17.11h-.04c.07-.07.18-.1.17-.22Z"/>
        <polygon class="st3" points="27.23 14.5 27.23 25.22 27.23 25.26 27.19 25.26 27.23 14.5"/>
        <path class="st14" d="M21.75-2.43l3.2-3.2c.02.09.11-.04.13-.06.11-.11.27-.22.3-.37.07-.07.14-.14.22-.22.45-.44.92-.87,1.34-1.34.01-.01.03-.03.04-.04l.21-.14s-.04-.03-.04-.04c0-.03.03-.06.04-.09.01,0,.03,0,.04,0,.03,0,.06,0,.09,0,.15.27.42.47.65.69-.09.02.04.11.06.13.2.2.4.41.6.61.01.01.17.18.2.13.14.14.29.29.43.43l1.86,1.86c.49.49,1.02.95,1.49,1.47.05.05.11.09.11.17-1,1-1.98,2.02-2.98,3.02-.02-.09-.11.04-.13.06-.15.15-.36.31-.43.5-.17.17-.34.35-.52.52-.08.01-.18.12-.24.17-.18.17-.42.39-.54.61-.03.03-.06.06-.09.09-.12.12-.23.23-.35.35-.05.05-.08.08-.13.13-.15.02-.31-.05-.22-.22h-.22c-.48-.5-.95-1.01-1.43-1.51-.57-.61-1.15-1.19-1.77-1.77-.68-.63-1.3-1.31-1.94-1.94Z"/>
        <path class="st11" d="M27.28,3.14s.03.06.04.09c.2.3.72.69.99.95.68.71,1.37,1.39,2.07,2.07,1.23,1.25,2.47,2.49,3.72,3.72.07.07.14.15.22.22.03.03.06.06.09.09l2.51,2.51c.36.39.73.78,1.08,1.17l-.07.18h-10.64s0-10.66,0-10.66c.02-.06-.04-.13-.05-.15,0-.05,0-.1,0-.15l.04-.02Z"/>
        <path class="st10" d="M27.32-7.92c.06,0,.12,0,.17,0l10.45.04.13.02-.82.89s-.03.03-.04.04l-.04.04s-.03.03-.04.04c-.09-.01-.1,0-.09.09-.03.03-.06.06-.09.09-.15.07-.34.23-.39.39-.01.01-.03.03-.04.04-.18.03-.26.23-.37.35-.28.28-.59.53-.86.82-.05.05-.11.09-.11.17-.01.01-.03.03-.04.04-.1,0-.17.07-.17.17-.03.03-.06.06-.09.09l-.59.52-.32.39s-.03.03-.04.04c-.11.12-.23.23-.35.35-.28.29-.6.59-.86.86,0-.08-.06-.12-.11-.17-.47-.51-1-.98-1.49-1.47-.62-.62-1.24-1.24-1.86-1.86-.14-.14-.29-.29-.43-.43-.29-.29-.57-.58-.86-.86-.22-.22-.5-.42-.65-.69Z"/>
        <path class="st12" d="M38.29,3.14v.04s-.03,0-.04,0c-3.56.08-7.14-.11-10.69,0-.08,0-.16,0-.24.04-.02-.03-.03-.06-.04-.09h11.02Z"/>
        <path class="st0" d="M38.29-7.87s.07.08.05.15c-.04,3.43.04,6.86,0,10.29,0,.07.03.19-.04.24V-7.87Z"/>
        <path class="st15" d="M37.95-7.92v.04l-10.45-.04c3.48,0,6.97,0,10.45,0Z"/>
        <path class="st13" d="M26.89,2.8h.22c-.09.17.07.23.22.22-.04.04-.05.11-.13.13-.1-.12-.2-.24-.3-.35Z"/>
        <path class="st7" d="M37.26-6.97l.82-.89-.13-.02v-.04l.26.02c-.33.3-.64.62-.95.93Z"/>
        <path class="st13" d="M32.81-13.58s-.03.06-.04.09c-.04-.04-.09-.09-.13-.13l.17.04Z"/>
        <path class="st7" d="M33.97-3.68l.32-.39.59-.52c-.3.3-.61.6-.91.91Z"/>
        <path class="st13" d="M27.88,2.45c.11-.22.36-.43.54-.61.06-.05.16-.16.24-.17-.26.26-.52.52-.78.78Z"/>
        <path class="st7" d="M35.14-4.85c-.06.06-.12.12-.17.17,0-.1.07-.17.17-.17Z"/>
        <path class="st7" d="M35.18-4.89c0-.08.06-.12.11-.17.27-.29.59-.54.86-.82.11-.11.19-.32.37-.35-.45.45-.9.89-1.34,1.34Z"/>
        <path class="st13" d="M31.81-14.44c.08-.01.1,0,.09.09-.03-.03-.06-.06-.09-.09Z"/>
        <path class="st13" d="M27.88-18.37c.08-.01.1,0,.09.09-.03-.03-.06-.06-.09-.09Z"/>
        <path class="st7" d="M36.57-6.28c.04-.16.24-.32.39-.39-.13.13-.26.26-.39.39Z"/>
        <path class="st13" d="M29.74.59c-.19.19-.37.38-.56.56.08-.19.28-.35.43-.5.02-.02.11-.15.13-.06Z"/>
        <path class="st7" d="M37.04-6.75c-.01-.09,0-.1.09-.09l-.09.09Z"/>
        <path class="st8" d="M30.52-15.74c-.34-.35-.69-.69-1.04-1.04.02-.09.11.04.13.06.26.26.55.53.8.8.05.05.11.09.11.17Z"/>
        <path class="st13" d="M27.8-18.46c-.07-.07-.14-.14-.22-.22l.02-.04c.07.08.19.14.19.26Z"/>
        <path class="st13" d="M27.8,2.54l-.35.35c.11-.12.23-.23.35-.35Z"/>
        <path class="st13" d="M28.4-17.85s-.06-.06-.09-.09l.09.09Z"/>
        <path class="st13" d="M28.88-17.38l-.43-.43c.14.14.29.29.43.43Z"/>
        <path class="st8" d="M30.65-15.61s-.03-.03-.04-.04l.04.04Z"/>
        <path class="st8" d="M31.04-15.22l-.35-.35c.11.11.23.23.35.35Z"/>
        <path class="st13" d="M31.6-14.66s-.06-.06-.09-.09l.09.09Z"/>
        <path class="st13" d="M32.59-13.66s-.09-.09-.13-.13l.13.13Z"/>
        <path class="st7" d="M33.93-3.64l-.35.35c.11-.12.23-.23.35-.35Z"/>
        <path class="st7" d="M37.21-6.92s-.03.03-.04.04l.04-.04Z"/>
        <path class="st3" d="M38.16,14.07s.01-.06,0-.1c0-.02-.27-.12.09-.12,0,.03.04.07.04.09,0,.03,0,.09,0,.13l.17-.04c-.04.06-.1.1-.09.17l10.93.04c-.08.08-.18.14-.26.22-.02-.09-.12.05-.13.06-.2.24-.47.52-.65.71-.19.22-.31.3-.52.48-.25.21-.34.33-.56.56-.01.01-.03.03-.04.04-.22.15-.39.37-.58.56-.02.02-.15.11-.06.13-.18.19-.35.31-.52.48-.01.01-.03.03-.04.04s-.03.03-.04.04c-.1.03-.26.16-.33.23-.06.06-.17.27-.23.33-.01.01-.03.03-.04.04-.09.09-.27.22-.39.35-.39.39-.79.84-1.12,1.21-.79.87-1.75,1.71-2.59,2.55l-.13.13s-.06.06-.09.09c-.12.02-.24.14-.26.26-.06.06-.12.12-.17.17l-.04.04s-.03.03-.04.04c-.13.13-.26.26-.39.39-.03.03-.06.06-.09.09l-.04.04s-.03.03-.04.04l-.09.09c-.47.48-.92.98-1.43,1.43-.07-.04-.04-.16-.04-.24-.04-3.56.05-7.14-.02-10.7-.03-.04-.06,0-.07,0-.03-.02-.07-.06-.09-.09Z"/>
        <path class="st10" d="M43.87,19.69c.3-.39.7-.76,1.04-1.12.11-.12.3-.23.39-.39.01-.01.03-.03.04-.04.21-.16.37-.38.56-.56.01-.01.03-.03.04-.04l.04-.04c.17-.16.34-.29.52-.48.22-.23.43-.46.65-.69.01-.01.03-.03.04-.04l.56-.56c.21-.18.32-.26.52-.48.28-.24.51-.53.78-.78.08-.07.18-.14.26-.22h.04v.09c-.07.04-.04.16-.04.24-.04,3.55.07,7.11-.04,10.65-.56-.55-1.09-1.12-1.64-1.68-.2-.2-.41-.4-.6-.6-.01-.01-.03-.03-.04-.04-.16-.21-.35-.41-.56-.56-.05-.06-.12-.12-.17-.17,0,0-.01-.08-.06-.13-.76-.78-1.57-1.53-2.31-2.33Z"/>
        <path class="st10" d="M27.49,24.96c-.08-.11-.1.18-.22.13v-10.71c.12-.03.08.07.15.13.06.05.14.08.2.13.07.06.11.12.17.17l.04.04s.03.03.04.04l.04.04s.03.03.04.04c0,.1.09.15.15.22l.02-.04c.09.09.17.21.26.3.07.07.15.14.22.22.01.01.03.03.04.04.07.14.16.23.3.3.07.07.14.14.22.22.09.09.14.22.24.3l1.19,1.12s.06.06.09.09c.01.14.21.22.3.3.16.13.24.24.39.39.31.31.66.64.95.95.03.03.05.05.09.09.08.1.18.21.17.35-.04.03-.09.09-.13.13-.01.01-.03.03-.04.04-.22.22-.41.45-.65.65-.05.04-.11.06-.13.13-.03.03-.06.06-.09.09l-.04.04c-.06.06-.12.12-.17.17l-.04.04c-.09.09-.17.17-.26.26-.07.06-.2.07-.17.17-.01.01-.03.03-.04.04-.17.06-.31.24-.43.37-.18.18-.38.36-.52.58-.03.03-.06.06-.09.09l-.04.04s-.03.03-.04.04l-.17.17s-.03.03-.04.04l-.13.13s-.09.09-.13.13c-.33.2-.57.55-.84.82-.02.02-.15.11-.06.13-.27.28-.56.54-.82.82Z"/>
        <path class="st0" d="M27.23,3.31s.07.09.05.15v10.65s10.64,0,10.64,0l.07-.18s.13.09.17.13c.01.02.06.07.09.09v.04h-11.02s0-10.89,0-10.89Z"/>
        <path class="st4" d="M27.23,14.5v-.26c.13.08.26.28.39.39-.06-.05-.14-.08-.2-.13-.07-.06-.03-.16-.15-.13v10.71c.12.05.14-.24.22-.13l-.26.26v-10.71Z"/>
        <path class="st12" d="M38.38,25.09s-.06.13-.09.06c-.03-3.65.06-7.32-.04-10.95v-.04s.04-.05.07,0c.07,3.56-.02,7.13.02,10.7,0,.07-.03.19.04.24Z"/>
        <path class="st3" d="M44.9,18.52v.04c-.34.36-.73.73-1.04,1.12-.01.02-.03.03-.04.04h-.04c.34-.37.74-.82,1.12-1.21Z"/>
        <path class="st7" d="M32.72,19.73s-.09.05-.13.09c.01-.14-.09-.25-.17-.35.12.07.21.16.3.26Z"/>
        <path class="st7" d="M43.87,19.69c.74.8,1.55,1.55,2.31,2.33.05.05.05.12.06.13l-2.42-2.42s.03-.03.04-.04Z"/>
        <path class="st4" d="M27.97,14.98c.06.06.12.12.17.17l-.02.04c-.06-.06-.15-.12-.15-.22Z"/>
        <path class="st7" d="M30.6,17.66l-1.19-1.12c-.09-.09-.15-.21-.24-.3.48.47.95.95,1.43,1.43Z"/>
        <path class="st7" d="M30.69,17.74c.1.1.22.18.3.3-.09-.08-.29-.16-.3-.3Z"/>
        <path class="st7" d="M46.42,22.32c.21.15.4.35.56.56-.18-.19-.38-.37-.56-.56Z"/>
        <path class="st7" d="M28.66,15.71c.1.1.2.2.3.3-.14-.07-.23-.16-.3-.3Z"/>
        <path class="st13" d="M40.97,22.5c-.09.09-.17.17-.26.26.02-.12.14-.24.26-.26Z"/>
        <path class="st4" d="M27.84,14.85l-.04-.04s.03.03.04.04Z"/>
        <path class="st4" d="M27.93,14.94l-.04-.04s.03.03.04.04Z"/>
        <path class="st7" d="M28.62,15.67c-.07-.07-.14-.14-.22-.22l.22.22Z"/>
        <path class="st7" d="M32.33,19.39c-.29-.31-.64-.64-.95-.95l.95.95Z"/>
        <path class="st13" d="M39.89,23.58s-.06.06-.09.09l.09-.09Z"/>
        <path class="st13" d="M39.98,23.49s-.03.03-.04.04l.04-.04Z"/>
        <path class="st13" d="M40.45,23.01l-.39.39c.13-.13.26-.26.39-.39Z"/>
        <path class="st13" d="M40.54,22.93s-.03.03-.04.04l.04-.04Z"/>
        <path class="st13" d="M41.19,22.28s-.09.09-.13.13l.13-.13Z"/>
        <path class="st7" d="M47.63,23.53l-.6-.6c.2.2.41.4.6.6Z"/>
        <path class="st3" d="M49.44-18.89c1.72,1.82,3.64,3.48,5.36,5.31-.08.01,0,.11.03.13.13.12.27.22.4.34.01.01.03.03.04.04.1.1.2.2.3.3.12.11.23.23.35.35,0,.14.14.18.22.26.3.31.6.62.91.93.05.05.09.11.17.11.01.01.03.03.04.04.01.08.12.18.17.24.26.28.55.54.82.8.06.06.09.18.22.17.13.13.26.26.39.39.17.17.35.35.52.52.31.3.62.59.91.91-.04.07-.16.04-.24.04-3.55.04-7.1-.03-10.65,0l.04-10.89Z"/>
        <path class="st12" d="M49.31-7.87s.03-.03.04-.04c0,3.67,0,7.35,0,11.02l-.04-10.97Z"/>
        <path class="st12" d="M49.4-8c3.55-.03,7.1.04,10.65,0,.07,0,.19.03.24-.04.01.01.13.06.06.09h-10.99v-.04h.04Z"/>
        <path class="st7" d="M54.97-2.47v.17s-.08-.04-.09-.09c.03-.03.06-.06.09-.09Z"/>
        <path class="st13" d="M54.8-13.58s.07.03.09.04c0,.01,0,.07.04.11.1.11.22.2.3.32-.13-.12-.27-.23-.4-.34-.02-.02-.11-.12-.03-.13Z"/>
        <path class="st7" d="M57.48-4.98c-.19.23-.37.5-.65.65.22-.22.43-.43.65-.65Z"/>
        <path class="st7" d="M56.4-3.9c-.17.23-.38.45-.6.6.2-.2.4-.4.6-.6Z"/>
        <path class="st7" d="M55.4-2.91c-.06.06-.14.2-.18.25-.02.02-.07,0-.07.01.06-.12.17-.18.26-.26Z"/>
        <path class="st8" d="M56.14-12.19c.36.36.72.72,1.08,1.08-.08,0-.12-.06-.17-.11-.31-.31-.61-.62-.91-.93v-.04Z"/>
        <path class="st8" d="M57.26-11.07c.35.35.69.69,1.04,1.04h-.04c-.28-.26-.56-.52-.82-.8-.05-.06-.16-.16-.17-.24Z"/>
        <path class="st7" d="M57.61-5.11c.01.09,0,.1-.09.09.03-.03.06-.06.09-.09Z"/>
        <path class="st7" d="M57.78-5.28c.01.09,0,.1-.09.09.03-.03.06-.06.09-.09Z"/>
        <path class="st7" d="M58.56-6.06c.29-.29.58-.58.86-.86-.09.22-.31.35-.45.52l-.41.34Z"/>
        <path class="st13" d="M55.92-12.41c.07.07.14.14.22.22v.04c-.07-.08-.21-.12-.22-.26Z"/>
        <path class="st7" d="M58.21-5.71c-.03.16-.2.28-.35.35.12-.11.23-.23.35-.35Z"/>
        <path class="st7" d="M58.3-5.8c.06-.06.12-.12.17-.17-.03.08-.07.18-.17.17Z"/>
        <path class="st13" d="M58.3-10.03c.06.06.12.12.17.17-.12,0-.15-.11-.22-.17h.04Z"/>
        <path class="st7" d="M59.77-7.27c0,.1-.07.17-.17.17.06-.06.12-.12.17-.17Z"/>
        <path class="st7" d="M59.81-7.31c.06-.06.12-.12.17-.17-.03.08-.07.18-.17.17Z"/>
        <path class="st13" d="M55.57-12.76c-.1-.1-.2-.21-.3-.3l.3.3Z"/>
        <path class="st7" d="M55.53-3.04l-.09.09s.06-.06.09-.09Z"/>
        <path class="st7" d="M55.75-3.25l-.17.17c.06-.06.12-.12.17-.17Z"/>
        <path class="st7" d="M56.53-4.03l-.09.09s.06-.06.09-.09Z"/>
        <path class="st7" d="M56.61-4.12l-.04.04s.03-.03.04-.04Z"/>
        <path class="st7" d="M56.78-4.29l-.13.13s.09-.09.13-.13Z"/>
        <path class="st13" d="M59.38-8.95c-.17-.17-.35-.35-.52-.52l.52.52Z"/>
        <path class="st10" d="M60.24,14.07l-10.84.04V3.38s.22.11.22.11c.16.16.35.31.52.48.31.31.63.61.95.91.66.76,1.41,1.45,2.12,2.16.66.66,1.33,1.32,1.99,1.99.1.1.2.2.3.3.17.17.35.35.52.52.01.01.03.03.04.04.1.1.2.2.3.3.01.01.03.03.04.04.17.17.35.35.52.52.13.13.26.26.39.39.89.89,1.8,1.78,2.68,2.68.08.08.18.18.26.26Z"/>
        <path class="st15" d="M49.35,3.23h.04c.07.08.14.19.22.26l-.22-.11v10.74s10.84-.04,10.84-.04c.05.06.06.02.09.13h-10.97c0-3.66,0-7.32,0-10.97Z"/>
        <path class="st3" d="M57.3,11.13l.32.21c.72.8,1.53,1.56,2.3,2.33.02.02.15.11.06.13-.88-.9-1.79-1.79-2.68-2.68Z"/>
        <path class="st3" d="M56.01,9.84c-.17-.17-.35-.35-.52-.52.02-.09.11.04.13.06.13.13.33.28.39.45Z"/>
        <path class="st3" d="M51.08,4.87c.73.68,1.45,1.49,2.12,2.16-.71-.71-1.46-1.4-2.12-2.16Z"/>
        <path class="st3" d="M56.4,10.23l.37.3.15.22c-.17-.17-.35-.35-.52-.52Z"/>
        <path class="st3" d="M49.4,3.23c.15.05.28.25.41.37.09.08.21.16.3.23.02.02.11.12.03.13-.17-.17-.35-.31-.52-.48-.07-.07-.15-.18-.22-.26Z"/>
        <path class="st3" d="M53.2,7.03c.57.58,1.21,1.14,1.8,1.73l.19.26c-.66-.66-1.33-1.32-1.99-1.99Z"/>
        <path class="st3" d="M56.05,9.88c.11.02.25.19.3.3-.1-.1-.2-.2-.3-.3Z"/>
        <polygon class="st12" points="49.35 14.24 49.31 14.24 38.38 14.2 49.35 14.24"/>
        <path class="st10" d="M16.52,3.14c.04.07.16.04.24.04,3.42.04,6.84,0,10.26,0-.07.22-.32.34-.46.49-.12.12-.24.29-.36.42-.09.09-.17.17-.26.26h-.09s.04.04.04.04c-.01.01-.03.03-.04.04-1.04,1.04-2.08,2.07-3.11,3.11-.32.33-.63.67-.95.99-.33-.29-.64-.6-.95-.91-.01-.01-.03-.03-.04-.04-.06-.06-.12-.12-.17-.17-.01-.01-.03-.03-.04-.04-.14-.14-.29-.29-.43-.43-.01-.01-.03-.03-.04-.04-.22-.22-.43-.43-.65-.65-.06-.06-.12-.12-.17-.17-.04-.04-.09-.09-.13-.13-.01-.01-.03-.03-.04-.04-.04-.04-.09-.09-.13-.13-.01-.01-.03-.03-.04-.04l-.17-.17s-.03-.03-.04-.04c-.42-.42-.83-.84-1.25-1.25-.01-.01-.03-.03-.04-.04-.13-.13-.23-.29-.39-.39-.22-.23-.49-.42-.65-.69h.13Z"/>
        <path class="st15" d="M27.15,3.14s-.03.03-.04.04h-.09c-3.42,0-6.84.04-10.26,0-.07,0-.19.03-.24-.04h10.63Z"/>
        <path class="st3" d="M20.84,7.64c.31.31.62.62.95.91-.01.01-.03.03-.04.04-.22-.07-.23-.34-.46-.4l-.45-.55Z"/>
        <path class="st7" d="M26.2,4.09c.12-.12.24-.29.36-.42.14-.15.39-.27.46-.49h.09c-.25.32-.61.62-.91.91Z"/>
        <path class="st7" d="M22.74,7.55c1.03-1.04,2.07-2.07,3.11-3.11l-3.11,3.11Z"/>
        <path class="st8" d="M17.17,13.16c-.19.19-.38.37-.56.56-.09-.02.04-.11.06-.13.15-.15.31-.36.5-.43Z"/>
        <path class="st13" d="M18.94,11.39s-.09.09-.13.13c0-.08.05-.13.11-.17l.02.04Z"/>
        <path class="st7" d="M25.94,4.35s-.03.03-.04.04l-.04-.04h.09Z"/>
        <path class="st8" d="M17.9,12.43c-.15.16-.29.34-.48.48.16-.16.31-.32.48-.48Z"/>
        <path class="st13" d="M18.51,11.83c-.17.23-.4.41-.6.6.2-.21.4-.4.6-.6Z"/>
        <path class="st13" d="M18.59,11.74s-.03.03-.04.04l.04-.04Z"/>
        <path class="st10" d="M16.48-8.22s.03-.03.04-.04c.14-.16.4-.27.48-.48.03-.03.06-.06.09-.09.11.02.11-.11.17-.17.03-.03.06-.06.09-.09.14-.02.22-.2.3-.28.2-.19.49-.36.6-.63.01-.01.03-.03.04-.04.17-.06.27-.27.39-.39.01-.01.03-.03.04-.04.21-.22.43-.43.65-.65.01-.01.03-.03.04-.04.1.02.1-.06.13-.13.01-.01.03-.03.04-.04.09.01.1,0,.09-.09.01-.01.03-.03.04-.04.08-.01.1-.05.14-.1.35-.37.71-.75,1.07-1.11.01-.01.03-.03.04-.04.11,0,.24-.17.26-.26.01-.01.03-.03.04-.04.17-.17.35-.34.52-.52.01-.01.03-.03.04-.04s.03-.03.04-.04.03-.03.04-.04c.03-.03.06-.06.09-.09.01-.01.03-.03.04-.04s.03-.03.04-.04c.03-.03.06-.06.09-.09.01-.01.03-.03.04-.04.04-.04.09-.09.13-.13.09,0,.13-.04.13-.13.04-.04.09-.09.13-.13.03-.03.06-.06.09-.09,0,0,0-.04,0-.04.34-.15.54-.51.79-.76.71-.72,1.44-1.42,2.14-2.13.44-.45.87-.93,1.34-1.36.05-.05.09-.11.17-.11,0,.02.07.09.05.15V-7.96c-.71,0-1.42,0-2.12,0-.22,0-.43-.04-.62-.05-2.69-.03-5.37.02-8.06,0-.01-.09.04-.15.09-.22Z"/>
        <path class="st1" d="M16.48-8.22c-.05.06-.1.13-.09.22,2.69.02,5.37-.03,8.06,0,.2,0,.41.04.62.05v.04c-2.92,0-5.85-.02-8.77-.04l.17-.26Z"/>
        <path class="st1" d="M17.34-9.08c.3-.3.61-.6.91-.91-.11.27-.4.43-.6.63-.08.08-.17.26-.3.28Z"/>
        <path class="st7" d="M20.97-12.71c.09-.09.17-.17.26-.26-.02.09-.15.25-.26.26Z"/>
        <path class="st1" d="M18.68-10.42c-.12.12-.22.33-.39.39.13-.13.23-.29.39-.39Z"/>
        <path class="st1" d="M16.52-8.26c.14-.18.32-.32.48-.48-.08.2-.34.32-.48.48Z"/>
        <path class="st7" d="M19.67-11.42c.01.09,0,.1-.09.09.03-.03.06-.06.09-.09Z"/>
        <path class="st7" d="M19.54-11.29c-.03.07-.03.15-.13.13.04-.04.09-.09.13-.13Z"/>
        <path class="st7" d="M20.93-12.67c-.36.36-.72.74-1.07,1.11-.05.05-.07.08-.14.1.4-.41.78-.83,1.21-1.21Z"/>
        <path class="st1" d="M17.25-9c-.06.07-.07.2-.17.17.06-.06.11-.12.17-.17Z"/>
        <path class="st13" d="M27.15-7.83s.04.01.04.04l-.21.14c.05-.05.08-.14.17-.17Z"/>
        <path class="st13" d="M25.38-6.06c-.04.15-.2.26-.3.37-.02.02-.11.15-.13.06.17-.11.29-.29.43-.43Z"/>
        <path class="st13" d="M26.93-7.62c-.42.47-.89.9-1.34,1.34.42-.47.89-.9,1.34-1.34Z"/>
        <path class="st7" d="M21.75-13.53h.04c-.17.18-.35.34-.52.52l.48-.52Z"/>
        <path class="st7" d="M19.37-11.11c-.21.22-.43.43-.65.65l.65-.65Z"/>
        <path class="st8" d="M23.69-.49c.62.58,1.2,1.16,1.77,1.77l-1.77-1.77Z"/>
        <path class="st10" d="M39.42-9.04c.08-.07.14-.14.22-.22.03-.03.06-.06.09-.09.06-.06.12-.11.17-.17.22-.23.37-.38.6-.6.11-.1.2-.2.3-.3.04-.04.09-.09.13-.13l.13-.13c.91-.94,1.83-1.85,2.76-2.76.71-.69,1.47-1.39,2.14-2.12.05-.05.11-.09.11-.17.01-.01.03-.03.04-.04.08-.03.18-.07.17-.17.01-.01.03-.03.04-.04.09.01.1,0,.09-.09.01-.01.03-.03.04-.04.08-.01.18-.12.24-.17.84-.79,1.62-1.66,2.44-2.46.03-.03.14-.13.17-.11v10.82c-3.54,0-7.15.15-10.69.04-.08,0-.16,0-.24-.04.34-.38.68-.65,1.04-.99Z"/>
        <path class="st15" d="M38.38-8.05c.07.05.15.04.24.04,3.55.11,7.16-.05,10.69-.04h.04v.09c-3.68,0-7.36,0-11.04,0-.06-.03.05-.07.06-.09Z"/>
        <path class="st8" d="M33.11-13.88c-.09-.02.04-.11.06-.13.83-.83,1.67-1.64,2.48-2.48.02-.02.11-.15.13-.06-.89.89-1.8,1.77-2.68,2.68Z"/>
        <path class="st8" d="M36.18-16.95c-.09-.02.04-.11.06-.13.17-.17.34-.34.5-.49.17-.17.78-.72.87-.87.04-.06,0-.34.17-.11-.54.53-1.07,1.07-1.6,1.6Z"/>
        <path class="st7" d="M39.63-9.26c-.07.07-.14.14-.22.22l.22-.22Z"/>
        <path class="st7" d="M39.89-9.52c-.06.06-.12.11-.17.17l.17-.17Z"/>
        <path class="st7" d="M40.8-10.42c-.1.1-.2.2-.3.3l.3-.3Z"/>
        <path class="st7" d="M41.06-10.68l-.13.13s.09-.09.13-.13Z"/>
        <path class="st1" d="M43.82-13.49c.77-.73,1.5-1.5,2.25-2.25,0,.08-.06.12-.11.17-.66.72-1.43,1.43-2.14,2.12v-.04Z"/>
        <path class="st3" d="M19.46,6.25c.22.22.43.43.65.65-.2-.13-.36-.31-.54-.47-.02-.02-.19-.15-.11-.17Z"/>
        <path class="st3" d="M20.15,6.94c.14.14.29.29.43.43-.16-.08-.37-.25-.43-.43Z"/>
        <path class="st3" d="M18.98,5.78s.09.09.13.13c-.13.02-.15,0-.13-.13Z"/>
        <path class="st3" d="M19.16,5.95s.09.09.13.13l-.02.04c-.06-.05-.11-.09-.11-.17Z"/>
        <path class="st3" d="M17.04,3.83c.16.1.26.26.39.39-.13-.07-.31-.24-.41-.35-.02-.02.02-.04.02-.04Z"/>
        <path class="st3" d="M17.47,4.27c.42.42.84.84,1.25,1.25l-1.25-1.25Z"/>
        <path class="st3" d="M20.8,7.59c-.11.02-.11-.1-.17-.17.06.06.12.12.17.17Z"/>
        <path class="st3" d="M18.94,5.73c-.06-.06-.12-.12-.17-.17l.17.17Z"/>
        <path class="st4" d="M55.62-1.65c.02-.08.18.08.19.09,1.34,1.54,3.01,2.88,4.35,4.4-.09,0-.12-.06-.17-.11-1.48-1.35-2.92-2.97-4.36-4.39Z"/>
        <path class="st7" d="M55.53-1.74c-.06-.06-.11-.12-.17-.17.1,0,.15.09.22.15l-.04.02Z"/>
        <path class="st7" d="M55.1-2.17s-.06-.06-.09-.09l.09.09Z"/>
        <path class="st7" d="M28.31,24.14c-.09-.02.04-.11.06-.13.27-.27.51-.62.84-.82-.31.31-.6.64-.91.95Z"/>
        <path class="st7" d="M29.87,22.54c.14-.22.33-.4.52-.58.13-.13.27-.31.43-.37-.32.32-.63.63-.95.95Z"/>
        <path class="st7" d="M30.86,21.55c-.02-.11.11-.11.17-.17-.06.06-.11.12-.17.17Z"/>
        <path class="st7" d="M29.48,22.93s-.09.09-.13.13l.13-.13Z"/>
        <path class="st7" d="M29.7,22.71c-.06.06-.12.12-.17.17l.17-.17Z"/>
        <path class="st7" d="M29.78,22.63s-.03.03-.04.04l.04-.04Z"/>
        <path class="st7" d="M31.34,21.07s-.03.03-.04.04l.04-.04Z"/>
        <path class="st7" d="M31.55,20.85s-.03.03-.04.04l.04-.04Z"/>
        <path class="st7" d="M31.77,20.64c-.02.07-.09.09-.13.13.02-.07.08-.09.13-.13Z"/>
        <path class="st7" d="M32.46,19.95l-.04.04s.03-.03.04-.04Z"/>
        <path class="st1" d="M46.46-16.13c.88-.88,1.78-1.73,2.64-2.64h.04c-.82.81-1.6,1.67-2.44,2.46-.06.05-.16.16-.24.17Z"/>
        <path class="st1" d="M46.42-16.08c.01.09,0,.1-.09.09.03-.03.06-.06.09-.09Z"/>
        <path class="st1" d="M46.11-15.78c.06-.06.12-.12.17-.17,0,.11-.09.14-.17.17Z"/>
        <path class="st4" d="M22.7-14.48c.86-.88,1.72-1.79,2.61-2.64.1-.09.23-.16.33-.26-.7.72-1.43,1.42-2.14,2.13-.25.26-.45.61-.79.76Z"/>
        <path class="st7" d="M22.35-14.1s.09-.09.13-.13c0,.09-.04.13-.13.13Z"/>
        <path class="st7" d="M21.88-13.62s-.03.03-.04.04l.04-.04Z"/>
        <path class="st7" d="M22.01-13.75s-.06.06-.09.09l.09-.09Z"/>
        <path class="st7" d="M22.09-13.84s-.03.03-.04.04l.04-.04Z"/>
        <path class="st7" d="M22.22-13.97s-.03.03-.04.04l.04-.04Z"/>
        <path class="st7" d="M22.7-14.44s-.06.06-.09.09l.09-.09Z"/>
        <path class="st10" d="M38.47,13.99l-.13-.11V3.38c.01-.09.2.13.24.15.02.01.02-.04.02-.04.05.03.06.05.09.09l-.04.02c.1.08.17.22.3.24.01.01.03.03.04.04,0,.08.06.12.11.17.33.34.68.65.99.99l.2.13c1.15,1.15,2.32,2.29,3.46,3.46l-.04.13s-.03.03-.04.04c-.06.06-.06.05-.13.13-.01.02-.04.03-.04.04-.14,0-.11.11-.13.13-.07.08-.11.11-.17.17-.23.13-.43.34-.56.56-.01.01-.03.03-.04.04-.11-.02-.11.1-.17.17-.03.03-.06.06-.09.09l-.52.45-.13.19s-.06.06-.09.09c-.01.01-.03.03-.04.04-.04.04-.09.09-.13.13-.01.01-.03.03-.04.04-.03.03-.06.06-.09.09s-.06.06-.09.09c-.01.01-.03.03-.04.04-.1-.02-.1.06-.13.13-.01.01-.03.03-.04.04s-.03.03-.04.04-.03.03-.04.04c-.44.44-.92.85-1.36,1.3-.08.08-.16.21-.24.3-.04.04-.09.09-.13.13-.01.01-.03.03-.04.04-.04.05-.09.09-.13.13-.01.01-.03.03-.04.04-.05.05-.09.09-.13.13-.15.06-.22.18-.3.3-.01.02-.03.03-.04.04Z"/>
        <path class="st4" d="M38.29,13.94V3.19c.12.04.2.24.3.3,0,0,0,.05-.02.04-.03-.02-.23-.24-.24-.15v10.5s.13.11.13.11c0,0,0,.03,0,.04l-.17.04s0-.1,0-.13Z"/>
        <path class="st7" d="M43.74,8.63l.04.04s-.06.06-.09.09l.04-.13Z"/>
        <path class="st4" d="M38.68,3.57c.09.11.16.17.26.26-.14-.02-.21-.16-.3-.24l.04-.02Z"/>
        <path class="st4" d="M38.99,3.88c.44.43.86.87,1.3,1.3l-.2-.13c-.32-.35-.67-.66-.99-.99-.05-.05-.11-.09-.11-.17Z"/>
        <path class="st3" d="M27.97-7.23c.29.28.57.58.86.86-.02.05-.18-.11-.2-.13-.2-.2-.4-.41-.6-.61-.02-.02-.15-.11-.06-.13Z"/>
        <path class="st3" d="M29.26-5.93c.62.62,1.24,1.24,1.86,1.86l-1.86-1.86Z"/>
        <path class="st14" d="M38.25,3.19v10.67c-.36,0-.09.09-.09.12.01.03,0,.08,0,.1-.05-.04-.14-.09-.17-.13-.35-.39-.72-.78-1.08-1.17-.81-.87-1.66-1.68-2.51-2.51-.03-.03-.06-.06-.09-.09,0-.1-.1-.14-.17-.22-1.2-1.32-2.51-2.51-3.76-3.72-.68-.7-1.35-1.41-2.07-2.07-.28-.26-.79-.65-.99-.95.07-.05.15-.04.24-.04,3.56-.11,7.14.08,10.69,0Z"/>
        <path class="st8" d="M30.39,6.25c1.25,1.21,2.55,2.4,3.76,3.72h-.04c-1.25-1.23-2.49-2.47-3.72-3.72Z"/>
        <path class="st13" d="M34.41,10.27c.84.83,1.7,1.64,2.51,2.51l-2.51-2.51Z"/>
        <path class="st13" d="M28.31,4.18c.72.67,1.39,1.38,2.07,2.07-.7-.68-1.4-1.37-2.07-2.07Z"/>
        <path class="st13" d="M34.15,9.97c.07.08.16.12.17.22-.07-.07-.14-.14-.22-.22h.04Z"/>
        <path class="st3" d="M38.25,13.86V3.19s.03,0,.04,0v10.76s-.05-.05-.04-.09Z"/>
        <path class="st3" d="M45.34,18.13c.06-.07.17-.27.23-.33.07-.07.23-.2.33-.23-.19.18-.35.4-.56.56Z"/>
        <path class="st3" d="M48.27,15.24c.17-.2.44-.48.65-.71.01-.02.12-.15.13-.06-.26.25-.5.54-.78.78Z"/>
        <path class="st3" d="M44.9,18.52c.12-.12.3-.25.39-.35-.09.16-.27.26-.39.39v-.04Z"/>
        <path class="st3" d="M47.19,16.28c.22-.23.32-.36.56-.56l-.56.56Z"/>
        <path class="st3" d="M46.5,17.01c-.09-.02.04-.11.06-.13.19-.19.36-.41.58-.56-.22.23-.43.47-.65.69Z"/>
        <path class="st3" d="M45.98,17.49l-.04.04s.03-.03.04-.04Z"/>
        <path class="st7" d="M39.29,13.16c.08-.09.16-.22.24-.3.44-.45.91-.86,1.36-1.3-.53.53-1.04,1.1-1.6,1.6Z"/>
        <path class="st7" d="M38.51,13.94c.09-.13.16-.24.3-.3-.09.1-.23.22-.3.3Z"/>
        <path class="st7" d="M41.02,11.44c.03-.07.03-.15.13-.13-.04.04-.09.09-.13.13Z"/>
        <path class="st7" d="M41.66,10.79l.13-.19.52-.45c-.22.22-.43.43-.65.65Z"/>
        <path class="st7" d="M42.4,10.05c.06-.07.07-.19.17-.17-.06.06-.12.12-.17.17Z"/>
        <path class="st7" d="M43.35,9.1s-.01-.12.13-.13c-.04.05-.06.1-.13.13Z"/>
        <path class="st7" d="M42.61,9.84c.13-.22.34-.43.56-.56-.19.19-.38.37-.56.56Z"/>
        <path class="st7" d="M43.65,8.8l-.13.13c.07-.08.07-.07.13-.13Z"/>
        <path class="st7" d="M38.99,13.47l-.04.04s.03-.03.04-.04Z"/>
        <path class="st7" d="M39.16,13.29l-.04.04s.03-.03.04-.04Z"/>
        <path class="st7" d="M40.97,11.48l-.04.04s.03-.03.04-.04Z"/>
        <path class="st7" d="M41.27,11.18l-.09.09s.06-.06.09-.09Z"/>
        <path class="st7" d="M41.4,11.05l-.04.04s.03-.03.04-.04Z"/>
        <path class="st7" d="M41.58,10.88l-.04.04s.03-.03.04-.04Z"/>
      </g>
    </g>
  </g>
  <g>
    <g>
      <path class="st2" d="M99.87,25.62c0,3.51-2.51,5.25-7.57,5.25h-15.93v-3l15.96.03c2.77,0,4.14-.91,4.14-2.74,0-1.94-1.2-2.94-3.63-2.94h-13.16v7.26h-3.31V10.89h16.16c2.03,0,3.6.49,4.77,1.48,1.17,1,1.74,2.31,1.74,3.97,0,1.83-.86,3.26-2.6,4.23,2.28.77,3.43,2.46,3.43,5.05ZM95.82,16.54c0-.83-.29-1.46-.83-1.94-.57-.49-1.31-.74-2.28-.74h-13.02v5.4h12.91c.91,0,1.68-.26,2.28-.8.63-.51.94-1.17.94-1.91Z"/>
      <g>
        <path class="st2" d="M165.34,30.88h-3.63s-2.31-4.48-2.31-4.48h-13.45s-2.31,4.48-2.31,4.48h-3.63s10.59-19.99,10.59-19.99h4.14s5.96,11.2,5.96,11.2h-3.6s-4.45-8.35-4.45-8.35l-5.11,9.68,13.85-.03,3.94,7.48Z"/>
        <path class="st2" d="M103.3,23.4l13.85.03-5.11-9.68-4.45,8.35h-3.6s5.96-11.2,5.96-11.2h4.14s10.59,19.99,10.59,19.99h-3.63s-2.31-4.48-2.31-4.48h-13.45s-2.31,4.48-2.31,4.48h-3.63s3.94-7.48,3.94-7.48Z"/>
      </g>
      <polygon class="st2" points="134.02 10.89 130.71 10.89 118.21 10.89 119.82 13.86 130.7 13.86 130.7 30.88 130.71 30.88 134.02 30.88 134.03 30.88 134.03 13.86 144.91 13.86 146.49 10.89 134.02 10.89"/>
      <g>
        <path class="st2" d="M101.1,38.26v-1.28s0-.07-.02-.1l-1.23-2.14h.6c.31.56.79,1.43.95,1.76.15-.32.65-1.2.97-1.76h.55l-1.27,2.14s-.02.04-.02.09v1.28h-.52Z"/>
        <path class="st2" d="M105.36,36.96c0,.75-.43,1.35-1.23,1.35-.75,0-1.2-.57-1.2-1.35s.45-1.35,1.23-1.35c.72,0,1.2.54,1.2,1.34ZM103.44,36.97c0,.55.27.94.71.94s.7-.37.7-.94-.25-.94-.71-.94-.7.36-.7.94Z"/>
        <path class="st2" d="M108.33,37.5c0,.25,0,.58,0,.75h-.48c-.01-.07-.02-.22-.02-.37-.13.28-.38.43-.77.43-.45,0-.85-.24-.85-.95v-1.69h.49v1.59c0,.33.1.63.51.63.45,0,.62-.25.62-.86v-1.35h.5v1.83Z"/>
        <path class="st2" d="M109.37,36.38c0-.34,0-.55,0-.7h.49c0,.07.01.28.01.51.13-.34.43-.56.86-.57v.49c-.53.01-.86.26-.86.92v1.23h-.5v-1.88Z"/>
        <path class="st2" d="M113.68,37.25l-.36,1.01h-.52l1.24-3.52h.65l1.3,3.52h-.55l-.37-1.01h-1.38ZM114.93,36.8c-.32-.89-.5-1.38-.58-1.65h0c-.09.31-.29.89-.54,1.65h1.12Z"/>
        <path class="st2" d="M118.93,34.54v2.99c0,.24,0,.48,0,.72h-.48c-.01-.07-.02-.26-.02-.35-.13.26-.38.41-.8.41-.66,0-1.07-.53-1.07-1.32s.44-1.38,1.16-1.38c.44,0,.64.17.71.31v-1.39h.5ZM117.09,36.98c0,.6.28.92.67.92.58,0,.7-.44.7-.97s-.11-.9-.67-.9c-.44,0-.7.35-.7.95Z"/>
        <path class="st2" d="M120.21,35.68c.33,1.02.57,1.8.64,2.12h0c.07-.31.33-1.09.69-2.12h.5l-.94,2.58h-.54l-.89-2.58h.53Z"/>
        <path class="st2" d="M123.09,37.06c0,.49.25.85.67.85.39,0,.51-.19.59-.37h.5c-.1.33-.38.78-1.1.78-.82,0-1.16-.65-1.16-1.32,0-.77.39-1.38,1.18-1.38.84,0,1.12.66,1.12,1.23,0,.08,0,.14,0,.21h-1.79ZM124.39,36.72c0-.4-.2-.72-.62-.72s-.62.3-.66.72h1.28Z"/>
        <path class="st2" d="M125.75,36.38c0-.34,0-.55,0-.7h.49c0,.07.01.28.01.51.13-.34.43-.56.86-.57v.49c-.53.01-.86.26-.86.92v1.23h-.5v-1.88Z"/>
        <path class="st2" d="M127.7,35.68h.44v-.75h.5v.75h.56v.4h-.56v1.46c0,.24.06.36.29.36.06,0,.15,0,.21-.02v.37c-.12.04-.28.05-.4.05-.42,0-.6-.22-.6-.65v-1.56h-.44v-.4Z"/>
        <path class="st2" d="M129.95,34.54h.5v.57h-.5v-.57ZM129.95,35.68h.5v2.58h-.5v-2.58Z"/>
        <path class="st2" d="M131.74,37.51c.07.27.27.42.6.42.36,0,.5-.15.5-.37s-.12-.33-.59-.44c-.76-.18-.91-.42-.91-.77s.27-.74.95-.74.96.39.99.75h-.48c-.03-.15-.15-.37-.53-.37-.34,0-.44.16-.44.32,0,.18.1.27.56.38.8.19.95.46.95.84,0,.45-.35.79-1.02.79s-1.02-.35-1.08-.81h.49Z"/>
        <path class="st2" d="M134.2,34.54h.5v.57h-.5v-.57ZM134.2,35.68h.5v2.58h-.5v-2.58Z"/>
        <path class="st2" d="M135.75,36.33c0-.22,0-.45,0-.65h.48c.01.07.02.33.02.41.1-.21.31-.47.8-.47s.86.31.86.98v1.65h-.5v-1.59c0-.37-.14-.62-.52-.62-.45,0-.64.33-.64.84v1.38h-.5v-1.93Z"/>
        <path class="st2" d="M141.11,38.01c0,.83-.33,1.31-1.2,1.31-.81,0-1.04-.45-1.08-.79h.51c.07.26.28.41.6.41.56,0,.7-.35.7-.93v-.19c-.14.28-.37.44-.79.44-.64,0-1.07-.52-1.07-1.27,0-.83.49-1.35,1.12-1.35.48,0,.69.23.74.39,0-.11.02-.28.02-.33h.47c0,.16,0,.5,0,.74v1.59ZM139.28,36.95c0,.52.27.87.67.87.53,0,.68-.36.68-.9s-.14-.89-.67-.89c-.44,0-.69.37-.69.92Z"/>
        <path class="st2" d="M143.81,34.74h.52v1.45h1.75v-1.45h.52v3.52h-.52v-1.63h-1.75v1.63h-.52v-3.52Z"/>
        <path class="st2" d="M148.04,37.06c0,.49.25.85.67.85.39,0,.51-.19.59-.37h.5c-.1.33-.38.78-1.1.78-.82,0-1.16-.65-1.16-1.32,0-.77.39-1.38,1.18-1.38.84,0,1.12.66,1.12,1.23,0,.08,0,.14,0,.21h-1.79ZM149.34,36.72c0-.4-.2-.72-.62-.72s-.62.3-.66.72h1.28Z"/>
        <path class="st2" d="M150.7,36.38c0-.34,0-.55,0-.7h.49c0,.07.01.28.01.51.13-.34.43-.56.86-.57v.49c-.53.01-.86.26-.86.92v1.23h-.5v-1.88Z"/>
        <path class="st2" d="M155.04,36.96c0,.75-.43,1.35-1.23,1.35-.75,0-1.2-.57-1.2-1.35s.45-1.35,1.23-1.35c.72,0,1.2.54,1.2,1.34ZM153.12,36.97c0,.55.27.94.71.94s.7-.37.7-.94-.25-.94-.71-.94-.7.36-.7.94Z"/>
        <path class="st2" d="M156.26,37.06c0,.49.25.85.67.85.39,0,.51-.19.59-.37h.5c-.1.33-.38.78-1.1.78-.82,0-1.16-.65-1.16-1.32,0-.77.39-1.38,1.18-1.38.84,0,1.12.66,1.12,1.23,0,.08,0,.14,0,.21h-1.79ZM157.56,36.72c0-.4-.2-.72-.62-.72s-.62.3-.66.72h1.28Z"/>
        <path class="st2" d="M159.23,37.51c.07.27.27.42.6.42.36,0,.5-.15.5-.37s-.12-.33-.59-.44c-.76-.18-.91-.42-.91-.77s.27-.74.95-.74.96.39.99.75h-.48c-.03-.15-.15-.37-.53-.37-.34,0-.44.16-.44.32,0,.18.1.27.56.38.8.19.95.46.95.84,0,.45-.35.79-1.02.79s-1.02-.35-1.08-.81h.49Z"/>
      </g>
      <path class="st2" d="M167.62,26.99l3.29-1.73v2.58h10.81v2.95h-14.11v-3.81Z"/>
      <path class="st9" d="M167.52,10.95h3.32v12.62l-3.32,1.68v-11.01l-3.18,1.39v-2.87l3.18-1.82Z"/>
    </g>
    <polygon class="st9" points="169.77 23.04 173.79 21.86 170.84 23.57 165.34 26.38 168.33 24.12 169.77 23.04"/>
    <polygon class="st2" points="169.57 26.97 165.55 28.16 168.5 26.44 174 23.63 171.01 25.9 169.57 26.97"/>
  </g>
</svg>